<?xml version="1.0" encoding="UTF-8" standalone="no"?>
<svg width="144px" height="144px" viewBox="0 0 144 144" version="1.1" xmlns="http://www.w3.org/2000/svg" xmlns:xlink="http://www.w3.org/1999/xlink">
    <!-- Generator: Sketch 42 (36781) - http://www.bohemiancoding.com/sketch -->
    <title>c1</title>
    <desc>Created with Sketch.</desc>
    <defs></defs>
    <g id="Page-1" stroke="none" stroke-width="1" fill="none" fill-rule="evenodd">
        <g id="c1" fill="#FFFFFF">
            <path d="M43.024,74.424 L43.024,36.552 L8.608,36.552 L8.608,18.264 L62.176,18.264 C60.736,14.664 59.008,10.776 57.424,7.608 L78.016,3 C80.608,7.608 83.92,13.944 85.792,18.264 L134.464,18.264 L134.464,36.552 L99.472,36.552 L99.472,45.624 L110.704,38.28 C119.776,44.472 130.144,53.688 135.472,60.024 L119.776,71.544 C115.312,65.64 107.104,57.576 99.472,51.384 L99.472,74.424 L78.304,74.424 L78.304,36.552 L64.192,36.552 L64.192,74.424 L43.024,74.424 Z M23.872,38.568 L42.592,43.608 C37.84,54.264 29.632,65.064 22.144,71.832 C18.4,68.52 10.48,63.336 6.016,60.888 C13.504,55.416 20.272,46.92 23.872,38.568 Z M91.552,95.304 L51.808,95.304 C57.28,100.344 64.048,104.52 71.68,108.264 C79.312,104.664 86.08,100.344 91.552,95.304 Z M110.704,76.44 L124.096,85.368 C116.896,98.184 106.816,108.408 94.432,116.472 C107.536,120.072 122.656,122.376 139.072,123.672 C134.896,128.136 129.856,136.632 127.264,141.96 C105.52,139.656 86.8,135.336 70.816,128.424 C53.68,135.192 34.096,139.368 13.792,141.96 C12.208,136.776 7.456,127.848 4,123.528 C20.128,122.232 35.392,119.928 49.072,116.184 C40.864,110.28 33.52,103.368 27.328,95.304 L16.528,95.304 L16.528,77.16 L107.392,77.16 L110.704,76.44 Z"></path>
        </g>
    </g>
</svg>