<?xml version="1.0" encoding="UTF-8" standalone="no"?>
<svg width="108px" height="108px" viewBox="0 0 108 108" version="1.1" xmlns="http://www.w3.org/2000/svg" xmlns:xlink="http://www.w3.org/1999/xlink">
    <!-- Generator: Sketch 42 (36781) - http://www.bohemiancoding.com/sketch -->
    <title>c2</title>
    <desc>Created with Sketch.</desc>
    <defs></defs>
    <g id="Page-1" stroke="none" stroke-width="1" fill="none" fill-rule="evenodd">
        <g id="c2" fill="#FFFFFF">
            <path d="M33.916,55.704 L33.916,25.896 L6.916,25.896 L6.916,14.556 L48.496,14.556 C47.2,11.64 45.58,8.508 44.176,5.916 L56.596,3 C58.756,6.456 61.456,11.316 62.86,14.556 L100.12,14.556 L100.12,25.896 L72.58,25.896 L72.58,34.32 L81.652,28.596 C88.564,33.672 96.34,41.232 100.12,46.2 L90.4,53.22 C86.62,47.928 78.952,40.044 72.58,34.752 L72.58,55.704 L59.62,55.704 L59.62,25.896 L46.984,25.896 L46.984,55.704 L33.916,55.704 Z M19.984,28.488 L31.54,31.512 C28.084,39.828 21.928,48.036 16.312,53.22 C13.936,51.384 9.076,48.036 6.376,46.524 C11.992,41.988 17.284,35.184 19.984,28.488 Z M71.392,69.312 L35.968,69.312 C40.612,74.28 46.552,78.384 53.572,81.84 C60.592,78.384 66.64,74.388 71.392,69.312 Z M82.732,57.648 L90.94,63.264 C85.324,73.308 77.116,81.084 67.072,87.24 C77.764,90.696 89.86,92.964 103.252,94.152 C100.66,96.744 97.636,102.036 96.016,105.384 C79.6,103.44 65.344,99.876 53.14,94.368 C40.18,99.768 25.384,103.224 10.048,105.384 C8.968,102.144 6.16,96.636 4,94.044 C16.852,92.748 29.056,90.48 40.072,87.024 C32.728,82.164 26.464,76.224 21.172,69.312 L13.072,69.312 L13.072,58.08 L80.68,58.08 L82.732,57.648 Z"></path>
        </g>
    </g>
</svg>