<?xml version="1.0" encoding="UTF-8" standalone="no"?>
<svg width="72px" height="72px" viewBox="0 0 72 72" version="1.1" xmlns="http://www.w3.org/2000/svg" xmlns:xlink="http://www.w3.org/1999/xlink">
    <!-- Generator: Sketch 42 (36781) - http://www.bohemiancoding.com/sketch -->
    <title>c3</title>
    <desc>Created with Sketch.</desc>
    <defs></defs>
    <g id="Page-1" stroke="none" stroke-width="1" fill="none" fill-rule="evenodd">
        <g id="c3" fill="#FFFFFF">
            <path d="M23.52,37.56 L23.52,16.68 L4.512,16.68 L4.512,10.776 L33.096,10.776 C32.304,8.832 31.008,6.384 29.856,4.584 L36.408,3 C37.92,5.376 39.792,8.616 40.8,10.776 L66.144,10.776 L66.144,16.68 L46.992,16.68 L46.992,37.488 L40.224,37.488 L40.224,16.68 L30.288,16.68 L30.288,37.56 L23.52,37.56 Z M48.504,22.44 L53.4,19.416 C58.008,23.16 63.192,28.56 65.712,32.088 L60.528,35.616 C58.008,31.872 52.752,26.184 48.504,22.44 Z M14.592,19.128 L20.568,20.784 C18.192,26.328 14.16,31.944 10.344,35.616 C9.192,34.536 6.6,32.88 5.088,32.016 C8.976,28.776 12.504,24.024 14.592,19.128 Z M49.008,45.192 L21.864,45.192 C25.32,49.224 29.856,52.68 35.4,55.416 C40.944,52.68 45.552,49.368 49.008,45.192 Z M54.912,39.072 L59.16,41.952 C55.272,48.864 49.368,54.192 42.24,58.368 C49.8,61.176 58.512,63.048 68.016,63.984 C66.648,65.424 65.064,68.088 64.2,69.816 C53.256,68.448 43.464,65.928 35.184,62.04 C26.4,65.856 16.464,68.304 6.24,69.888 C5.664,68.16 4.152,65.352 3,63.984 C12,62.904 20.784,61.032 28.488,58.296 C22.872,54.768 18.192,50.448 14.52,45.192 L8.832,45.192 L8.832,39.36 L53.688,39.36 L54.912,39.072 Z"></path>
        </g>
    </g>
</svg>