<?xml version="1.0" encoding="UTF-8" standalone="no"?>
<svg width="36px" height="36px" viewBox="0 0 36 36" version="1.1" xmlns="http://www.w3.org/2000/svg" xmlns:xlink="http://www.w3.org/1999/xlink">
    <!-- Generator: Sketch 42 (36781) - http://www.bohemiancoding.com/sketch -->
    <title>c4</title>
    <desc>Created with Sketch.</desc>
    <defs></defs>
    <g id="Page-1" stroke="none" stroke-width="1" fill="none" fill-rule="evenodd">
        <g id="c4" fill="#FFFFFF">
            <path d="M12.908,18.172 L12.908,6.652 L2.504,6.652 L2.504,5.068 L17.876,5.068 C17.336,3.988 16.544,2.548 15.752,1.468 L17.372,1 C18.272,2.26 19.28,3.952 19.784,5.068 L33.14,5.068 L33.14,6.652 L22.664,6.652 L22.664,18.1 L20.936,18.1 L20.936,6.652 L14.636,6.652 L14.636,18.172 L12.908,18.172 Z M25.004,9.532 L26.336,8.884 C28.676,11.08 31.304,14.176 32.528,16.156 L31.088,16.984 C29.864,14.932 27.164,11.728 25.004,9.532 Z M8.588,8.56 L10.208,8.956 C8.948,11.944 6.932,14.932 4.988,16.876 C4.7,16.624 4.016,16.156 3.584,15.94 C5.636,14.068 7.472,11.296 8.588,8.56 Z M26.12,20.872 L9.668,20.872 C11.648,23.608 14.384,25.912 17.768,27.712 C21.224,25.948 24.14,23.68 26.12,20.872 Z M27.704,19.18 L28.82,19.972 C26.696,23.608 23.456,26.416 19.496,28.612 C23.636,30.52 28.604,31.816 33.968,32.428 C33.608,32.824 33.176,33.508 32.96,33.976 C27.308,33.184 22.124,31.708 17.804,29.476 C13.304,31.672 8.12,33.076 2.936,34.012 C2.756,33.544 2.324,32.824 2,32.428 C6.932,31.708 11.864,30.448 16.076,28.54 C12.62,26.524 9.812,23.968 7.76,20.872 L4.844,20.872 L4.844,19.252 L27.344,19.252 L27.704,19.18 Z"></path>
        </g>
    </g>
</svg>