<?xml version="1.0" encoding="UTF-8" standalone="no"?>
<svg width="18px" height="18px" viewBox="0 0 18 18" version="1.1" xmlns="http://www.w3.org/2000/svg" xmlns:xlink="http://www.w3.org/1999/xlink">
    <!-- Generator: Sketch 42 (36781) - http://www.bohemiancoding.com/sketch -->
    <title>c5</title>
    <desc>Created with Sketch.</desc>
    <defs></defs>
    <g id="Page-1" stroke="none" stroke-width="1" fill="none" fill-rule="evenodd">
        <g id="c5" fill="#FFFFFF">
            <path d="M6.58,9.532 L6.58,3.574 L1.18,3.574 L1.18,3.052 L9.1,3.052 C8.83,2.494 8.38,1.738 7.948,1.162 L8.416,1 C8.902,1.63 9.424,2.494 9.676,3.052 L16.498,3.052 L16.498,3.574 L11.062,3.574 L11.062,9.496 L10.54,9.496 L10.54,3.574 L7.12,3.574 L7.12,9.532 L6.58,9.532 Z M12.538,5.014 L12.988,4.852 C14.158,6.004 15.508,7.66 16.102,8.686 L15.616,8.902 C15.004,7.84 13.654,6.166 12.538,5.014 Z M4.456,4.654 L4.978,4.78 C4.366,6.31 3.358,7.822 2.368,8.83 C2.278,8.758 2.044,8.596 1.9,8.524 C2.944,7.534 3.88,6.094 4.456,4.654 Z M13.276,10.648 L4.474,10.648 C5.5,12.178 6.976,13.456 8.794,14.446 C10.684,13.474 12.25,12.214 13.276,10.648 Z M13.816,10.09 L14.14,10.36 C13.06,12.196 11.368,13.636 9.334,14.734 C11.512,15.814 14.086,16.534 16.858,16.894 C16.75,17.02 16.624,17.218 16.552,17.362 C13.69,16.966 11.044,16.174 8.83,15.004 C6.562,16.156 3.934,16.894 1.324,17.38 C1.252,17.236 1.108,17.02 1,16.894 C3.538,16.462 6.094,15.76 8.29,14.698 C6.436,13.654 4.924,12.286 3.898,10.648 L2.404,10.648 L2.404,10.126 L13.672,10.126 L13.816,10.09 Z"></path>
        </g>
    </g>
</svg>