<?xml version="1.0" encoding="UTF-8" standalone="no"?>
<svg width="108px" height="108px" viewBox="0 0 108 108" version="1.1" xmlns="http://www.w3.org/2000/svg" xmlns:xlink="http://www.w3.org/1999/xlink">
    <!-- Generator: Sketch 42 (36781) - http://www.bohemiancoding.com/sketch -->
    <title>change3</title>
    <desc>Created with Sketch.</desc>
    <defs></defs>
    <g id="Page-1" stroke="none" stroke-width="1" fill="none" fill-rule="evenodd">
        <g id="change3" fill="#FFFFFF">
            <path d="M37.644,55.732 L37.644,23.116 L8.052,23.116 L8.052,15.988 L52.224,15.988 C50.82,12.856 48.768,8.968 46.716,5.944 L54.492,4 C56.976,7.672 59.784,12.64 61.296,15.988 L100.176,15.988 L100.176,23.116 L70.26,23.116 L70.26,55.624 L62.268,55.624 L62.268,23.116 L45.636,23.116 L45.636,55.732 L37.644,55.732 Z M74.472,31.756 L80.52,28.3 C87.432,34.348 95.316,42.988 99.096,48.496 L92.832,52.6 C88.944,46.768 81.06,37.804 74.472,31.756 Z M24.36,27.652 L31.596,29.596 C28.032,38.236 21.984,46.876 16.152,52.492 C14.748,51.196 11.724,49.144 9.888,48.172 C15.828,42.988 21.228,35.428 24.36,27.652 Z M76.632,65.884 L32.028,65.884 C37.536,72.904 44.988,78.736 54.06,83.38 C63.348,78.844 71.016,73.12 76.632,65.884 Z M83.544,58.324 L88.728,61.996 C82.572,72.58 73.284,80.788 62.268,87.16 C73.932,92.02 87.756,95.152 102.876,96.88 C101.148,98.608 99.312,101.74 98.34,103.9 C81.6,101.74 66.588,97.636 53.844,91.372 C40.56,97.528 25.332,101.416 9.996,103.9 C9.24,101.848 7.404,98.5 6,96.772 C20.04,94.936 33.864,91.804 45.852,87.052 C36.672,81.328 29.112,74.308 23.388,65.884 L14.64,65.884 L14.64,58.756 L82.14,58.756 L83.544,58.324 Z"></path>
        </g>
    </g>
</svg>