<?xml version="1.0" encoding="UTF-8" standalone="no"?>
<svg width="144px" height="144px" viewBox="0 0 144 144" version="1.1" xmlns="http://www.w3.org/2000/svg" xmlns:xlink="http://www.w3.org/1999/xlink">
    <!-- Generator: Sketch 42 (36781) - http://www.bohemiancoding.com/sketch -->
    <title>change4</title>
    <desc>Created with Sketch.</desc>
    <defs></defs>
    <g id="Page-1" stroke="none" stroke-width="1" fill="none" fill-rule="evenodd">
        <g id="change4" fill="#FFFFFF">
            <path d="M51.632,74.688 L51.632,28.608 L10.016,28.608 L10.016,22.272 L71.504,22.272 C69.344,17.952 66.176,12.192 63.008,7.872 L69.488,6 C73.088,11.04 77.12,17.808 79.136,22.272 L132.56,22.272 L132.56,28.608 L90.656,28.608 L90.656,74.4 L83.744,74.4 L83.744,28.608 L58.544,28.608 L58.544,74.688 L51.632,74.688 Z M100.016,40.128 L105.344,37.536 C114.704,46.32 125.216,58.704 130.112,66.624 L124.352,69.936 C119.456,61.728 108.656,48.912 100.016,40.128 Z M34.352,36.24 L40.832,37.824 C35.792,49.776 27.728,61.728 19.952,69.504 C18.8,68.496 16.064,66.624 14.336,65.76 C22.544,58.272 29.888,47.184 34.352,36.24 Z M104.48,85.488 L38.672,85.488 C46.592,96.432 57.536,105.648 71.072,112.848 C84.896,105.792 96.56,96.72 104.48,85.488 Z M110.816,78.72 L115.28,81.888 C106.784,96.432 93.824,107.664 77.984,116.448 C94.544,124.08 114.416,129.264 135.872,131.712 C134.432,133.296 132.704,136.032 131.84,137.904 C109.232,134.736 88.496,128.832 71.216,119.904 C53.216,128.688 32.48,134.304 11.744,138.048 C11.024,136.176 9.296,133.296 8,131.712 C27.728,128.832 47.456,123.792 64.304,116.16 C50.48,108.096 39.248,97.872 31.04,85.488 L19.376,85.488 L19.376,79.008 L109.376,79.008 L110.816,78.72 Z"></path>
        </g>
    </g>
</svg>