<?xml version="1.0" encoding="UTF-8" standalone="no"?>
<svg width="36px" height="36px" viewBox="0 0 36 36" version="1.1" xmlns="http://www.w3.org/2000/svg" xmlns:xlink="http://www.w3.org/1999/xlink">
    <!-- Generator: Sketch 42 (36781) - http://www.bohemiancoding.com/sketch -->
    <title>change</title>
    <desc>Created with Sketch.</desc>
    <defs></defs>
    <g id="Page-1" stroke="none" stroke-width="1" fill="none" fill-rule="evenodd">
        <g id="change" fill="#FFFFFF">
            <path d="M10.756,18.856 L10.756,9.388 L2.152,9.388 L2.152,4.816 L15.544,4.816 C15.184,3.916 14.752,2.944 14.356,2.152 L19.504,1 C20.152,2.152 20.98,3.736 21.448,4.816 L33.616,4.816 L33.616,9.388 L24.868,9.388 L24.868,11.656 L27.676,9.82 C29.944,11.368 32.536,13.672 33.868,15.256 L29.944,18.136 C28.828,16.66 26.776,14.644 24.868,13.096 L24.868,18.856 L19.576,18.856 L19.576,9.388 L16.048,9.388 L16.048,18.856 L10.756,18.856 Z M5.968,9.892 L10.648,11.152 C9.46,13.816 7.408,16.516 5.536,18.208 C4.6,17.38 2.62,16.084 1.504,15.472 C3.376,14.104 5.068,11.98 5.968,9.892 Z M22.888,24.076 L12.952,24.076 C14.32,25.336 16.012,26.38 17.92,27.316 C19.828,26.416 21.52,25.336 22.888,24.076 Z M27.676,19.36 L31.024,21.592 C29.224,24.796 26.704,27.352 23.608,29.368 C26.884,30.268 30.664,30.844 34.768,31.168 C33.724,32.284 32.464,34.408 31.816,35.74 C26.38,35.164 21.7,34.084 17.704,32.356 C13.42,34.048 8.524,35.092 3.448,35.74 C3.052,34.444 1.864,32.212 1,31.132 C5.032,30.808 8.848,30.232 12.268,29.296 C10.216,27.82 8.38,26.092 6.832,24.076 L4.132,24.076 L4.132,19.54 L26.848,19.54 L27.676,19.36 Z"></path>
        </g>
    </g>
</svg>