<svg xmlns="http://www.w3.org/2000/svg" viewBox="0 0 177 250">
  <g fill="none" fill-rule="evenodd" stroke="#000" stroke-linecap="round" stroke-linejoin="round">
    <path d="M151.232653 25.6306122L140.87449 35.1918367M163.183673 38.55L157.093878 45.094898M124.82449 24.4897959C131.457143 17.7071429 140.670408 8.14795918 149.292857 5.99285714 161.135714 3.03367347 168.35102 13.8244898 168.021429 18.5142857 167.281633 29.0428571 158.087755 29.2142857 155.045918 24.3755102 154.02551 22.7520408 155.822449 19.3408163 155.387755 18.627551 153.965306 16.2938776 151.773469 17.9408163 151.188776 18.6428571 150.440015 19.6412294 150.113164 20.8936684 150.278571 22.1306122 151.176531 28.5867347 157.607143 30.977551 161.347959 30.1806122 165.122426 29.5047166 168.356721 27.0875434 170.074055 23.6591034 171.791389 20.2306634 171.790415 16.1929176 170.071429 12.7653061 168.192857 8.66734694 164.765306 5.61632653 159.997959 3.60204082 145.046939-2.7122449 127.592857 15.5622449 121.978571 22.9591837M144.061224 37.2979592L153.337755 28.1346939" transform="matrix(-1 0 0 1 176.53 0)"/>
    <path d="M118.529592 19.6377551C130.506122 29.9438776 146.621429 37.9969388 159.365306 47.1L153.337755 54.0387755 113.163265 28.1346939 112.733673 25.6306122 118.529592 19.6377551zM119.459184 20C120.286735 17.5510204 122.876531 14.9714286 124.894898 13.2061224 133.278571 5.87040816 144.302041-3.0377551 156.004082 1.98163265M157.093878 30.3316327C158.752041 32.5826531 161.411224 36.422449 163.183673 38.55M163.183673 38.55C180.247959 38.55 176.244898 23.6428571 171.737755 15.2040816M112.691837 29.2418367C112.115306 29.5826531 110.831633 30.0734694 110.54898 30.7887755 110.038776 32.0673469 111.004082 37.3632653 109.35102 40.6693878 107.936735 43.4989796 101.512245 45.9357143 101.017347 48.9030612 100.77449 50.3591837 105.720408 51.9642857 106.85102 51.022449 107.688776 50.3244898 107.112245 48.4428571 107.266327 47.5214286M88.1265306 128.316327C91.1826531 119.077551 97.7183673 111.087755 103.187755 103.135714 104.820408 100.756122 106.109184 98.1591837 107.659184 95.722449 111.710204 89.3571429 118.062245 83.1367347 124.956122 79.9561224 129.213265 77.9918367 133.942857 75.6704082 138.605102 74.9561224 139.684694 74.7897959 150.793878 72.8306122 151.488776 72.3673469 151.859184 72.1204082 151.444898 69.9928571 151.312245 69.6602041" transform="matrix(-1 0 0 1 176.53 0)"/>
    <path d="M92.1857143,118.726531 C93.7877551,115.489796 95.7142857,112.42449 97.4214286,109.254082 C98.4591837,107.326531 99.2020408,105.221429 100.186735,103.253061 C101.277551,101.071429 102.802041,99.1510204 104.069388,97.0765306 C110.059184,87.2744898 116.314286,81.5765306 126.426531,76.1326531 C134.018871,71.8889211 142.556582,69.6228186 151.254082,69.5428571" transform="matrix(-1 0 0 1 176.53 0)"/>
    <path d="M91.7612245 120.329592C95.0117657 115.257653 98.9743843 110.679216 103.527551 106.734694 106.268367 104.242857 108.808163 101.37551 111.881633 99.2632653 121.094898 92.9285714 130.905102 87.9928571 141.881633 85.4959184 145.038776 84.7816327 148.452041 83.7897959 151.707143 83.7897959 152.039437 83.8359652 152.376687 83.7514699 152.647959 83.5540816 152.75 83.0438776 151.497959 72.3755102 151.483673 72.3612245M152.728571 85.3744898C157.682653 95.0683673 163.937755 104.09898 165.502041 115.05102 165.670408 116.231633 166.257143 117.35 166.405102 118.534694 167.919164 129.571938 168.04908 140.755051 166.791837 151.82449 166.361224 155.273469 165.423469 158.616327 164.853061 162.017347 163.985714 167.221429 164.27551 172.510204 163.691837 177.759184 163.40762 180.894613 163.451053 184.051129 163.821429 187.177551 163.946946 189.498644 163.946946 191.824825 163.821429 194.145918 163.821429 198.972449 163.902041 203.809184 164.337755 208.596939 164.979592 215.663265 164.103061 222.84898 164.982653 229.886735 165.627551 235.045918 166.143878 237.143878 166.143878 242.531633" transform="matrix(-1 0 0 1 176.53 0)"/>
    <path d="M128.083673,98.4061224 C124.928018,101.125371 121.463386,103.463895 117.761224,105.373469 C114.902934,106.772109 111.973804,108.021076 108.985714,109.115306 C104.435766,111.196608 100.387237,114.233091 97.1153061,118.018367 C94.1265306,121.506122 91.5826531,125.247959 88.6,128.732653 C85.5928571,132.240816 81.722449,134.985714 78.1479592,137.764286 C76.0581633,139.390816 71.4071429,143.739796 68.9877551,144.344898 C66.8673469,144.87449 64.9642857,145.511224 62.922449,144.344898 C62.5647324,144.007614 62.1759275,143.704906 61.7612245,143.440816 C59.6060097,142.706969 57.4084793,142.103832 55.1806122,141.634694 C53.2326531,141.244898 41.5071429,141.77551 39.8265306,142.279592 C36.8244898,143.179592 33.6918367,144.728571 30.5408163,144.728571 C26.6632653,144.728571 23.6234694,141.283673 19.5734694,143.309184 C17.4356589,144.368919 15.6126108,145.969978 14.2857143,147.953061 C11.4285714,151.959184 8.25408163,166.238776 7.18877551,171.565306 C6.73469388,173.835714 5.83469388,176.011224 5.38265306,178.27449 C3.66530612,186.861224 2.00714286,195.213265 1.38265306,203.95102 C1.13571429,207.4 -0.274489796,213.84898 1.1244898,217.114286 C1.86020408,218.829592 3.52142857,218.811224 4.35,220.469388" transform="matrix(-1 0 0 1 176.53 0)"/>
    <path d="M23.8295918,143.82449 C17.2857143,155.793878 16.1173469,166.935714 18.7979592,180.339796 C19.5061224,183.879592 19.4469388,187.835714 20.4755102,191.435714 C21.0367347,193.402041 24.0989796,202.864286 23.8295918,204.209184 C23.3571429,206.57449 20.9663265,207.636735 20.2173469,209.886735" transform="matrix(-1 0 0 1 176.53 0)"/>
    <path d="M.990816327 215.434694C2.79489796 208.645918 9.11530612 204.017347 15.1836735 200.983673 17.1755102 199.987755 20.6938776 198.07449 22.9255102 199.564286M23.7010204 148.984694C27.0173469 157.25 27.1612245 166.317347 29.5071429 174.919388 30.8438776 179.817347 32.4214286 184.715306 33.894898 189.628571 34.2316327 190.75102 34.2306122 191.981633 34.5397959 193.113265 36.5530612 200.494898 39.15 207.892857 43.0561224 214.403061 46.5255102 220.177551 47.8673469 222.641837 53.5071429 226.402041 53.9455073 226.791669 54.4208954 227.13753 54.9265306 227.434694 61.6469388 230.122449 63.6285714 229.805102 70.7969388 230.402041 74.75 230.731633 78.7173469 231.667347 82.6673469 230.788776 87.3989796 229.737755 96.7091837 224.676531 100.602041 221.757143 103.641837 219.477551 106.229592 216.466327 109.246939 214.144898 109.773469 213.736735 110.420408 213.532653 110.92449 213.112245 111.375367 212.535017 111.895221 212.015163 112.472449 211.564286" transform="matrix(-1 0 0 1 176.53 0)"/>
    <path d="M35.0540816 191.306122C42.2795918 213.244898 50.3897959 215.931633 51.5704082 217.111224 54.3255102 219.866327 62.5183673 222.434694 66.2795918 223.563265 74.8989796 226.14898 83.9959184 224.032653 92.3438776 221.756122 93.2763504 221.61545 94.1868729 221.355496 95.0530612 220.982653 97.9183673 219.390816 101.042857 218.061224 103.828571 216.337755 105.440816 215.339796 106.934694 214.015306 108.603061 213.112245 110.019388 212.344898 111.815306 211.895918 113.119388 210.919388 116.802041 208.157143 121.690816 202.507143 124.603061 199.016327 124.667347 198.938776 130.816327 185.64898 131.054082 185.113265 131.822449 183.384694 132.754082 180.358163 133.503061 178.532653 136.215306 171.945918 140.970408 164.283673 142.534694 157.50102 142.72551 156.67551 142.534694 155.868367 142.664286 155.052041 143.168367 151.771429 144.179592 148.537755 144.728571 145.245918 146.407143 135.176531 145.217347 124.139796 149.888776 114.794898M90.794898 124.857143C90.272449 125.469388 89.9918367 124.969388 90.15 124.340816 90.8795918 121.42449 94.3479592 117.912245 96.3438776 115.695918 103.108163 108.179592 109.405102 104.746939 118.020408 99.8255102 120.907143 98.1765306 123.513265 96.0602041 126.407143 94.4061224" transform="matrix(-1 0 0 1 176.53 0)"/>
    <path d="M151.05102 103.309184C153.506122 115.895918 150.25102 129.083673 148.857143 141.630612 148.114286 148.323469 151.267347 155.390816 148.083673 161.759184 145.407143 167.112245 139.443878 169.364286 135.955102 174.017347M59.6387755 143.502041C55.1102041 148.814286 54.1612245 155.87449 52.9295918 162.652041 48.9989796 184.269388 52.6938776 178.085714 60.7581633 196.9 64.6357143 205.939796 69.4561224 218.259184 81.8663265 216.185714 85.4438776 215.589796 88.8357143 213.469388 92.0704082 211.853061 106.983673 204.395918 110.314286 197.744898 122.404082 187.669388" transform="matrix(-1 0 0 1 176.53 0)"/>
    <path d="M64.6714286,146.436735 C59.7734694,156.062245 66.5826531,162.141837 70.6816327,170.340816 C72.5928571,174.161224 73.6346939,179.103061 75.9938776,182.641837 C80.8918367,189.996939 96.7408163,195.258163 104.65,191.867347 C110.772449,189.241837 113.629592,184.044898 117.789796,179.426531 C132.982653,162.544898 134.281633,156.682653 144.768367,138.328571" transform="matrix(-1 0 0 1 176.53 0)"/>
    <path d="M68.444898 147.27551C69.6010204 150.294898 68.1387755 153.761224 69.1438776 156.781633 72.3071429 166.279592 82.2908163 182.936735 93.327551 184.039796 106.459184 185.353061 125.565306 165.757143 132.047959 155.383673M146.031633 63.0744898C146.243834 65.0415092 146.333802 67.0197985 146.30102 68.9979592M123.086735 35.1918367C123.231633 37.1469388 123.504082 41.2765306 123.504082 43.2408163 123.468934 43.7504151 123.468934 44.2618298 123.504082 44.7714286 124.308116 44.3022434 125.08707 43.791342 125.837755 43.2408163 126.890816 42.6387755 129.286735 42.2285714 130.415306 42.7918367 136.87551 46.022449 131.669388 55.8969388 128.261224 59.3061224 126.77551 60.7918367 124.681633 60.1530612 122.966327 61.0112245M130.144898 58.3183673C134.328571 57.4 138.158163 61.8030612 141.454082 62.6265306 147.016327 64.0173469 151.116327 59.6673469 152.762245 54.7285714" transform="matrix(-1 0 0 1 176.53 0)"/>
    <path d="M122.965306 58.3183673C123.564286 63.2918367 121.807143 68.0693878 120.631633 72.7683673 120.523469 73.1989796 119.642857 76 119.285714 76 119.253061 76 119.243878 71.9357143 119.195918 71.6020408 119.084694 70.8204082 118.583673 69.2989796 118.836735 68.5510204 119.261005 67.6355869 119.773641 66.7637641 120.367347 65.9479592 121.545045 63.4671723 122.3901 60.8417718 122.880612 58.1397959M111.029592 34.8040816C112.626036 34.037596 114.373986 33.638702 116.144898 33.6367347M111.297959 39.1122449C116.938776 38.1112245 113.204082 41.0010204 110.490816 40.4581633 109.25102 40.2102041 109.980612 39.4704082 110.85 39.4704082M102.413265 54.1897959C102.001224 54.5598096 101.639315 54.982094 101.336735 55.4459184 99.0785714 58.6091837 103.722449 56.144898 104.836735 56.7030612 106.770408 57.6693878 108.565306 60.6357143 108.87551 62.8061224 108.961341 63.6027251 109.142219 64.3861896 109.414286 65.1397959 109.806122 65.1397959 109.557143 60.7877551 109.593878 60.3836735 110.002041 55.8765306 107.057143 51.3020408 102.444898 54.2285714M103.310204 72.2295918C101.365306 72.9846939 99.8530612 78.2071429 99.4510204 80.2173469 98.6081633 84.4316327 97.0714286 91.4744898 94.3357143 94.7571429 93.266502 96.0173552 92.0959267 97.1879306 90.8357143 98.2571429 90.3332036 98.6936952 89.7926093 99.084371 89.2204082 99.4244898 89.127551 99.4795918 88.9510204 99.7112245 88.9510204 99.6040816 88.9510204 99.005102 91.522449 98.0622449 92.0020408 97.7193878 96.0040816 94.8622449 102.337755 93.6102041 105.643878 89.6418367 108.204082 86.5693878 108.139796 82.2408163 108.603061 78.5132653 108.819729 77.8764744 108.940773 77.2110748 108.962245 76.5387755 108.818367 76.2989796 106.962245 75.5581633 106.359184 74.6540816 105.365306 73.1642857 105.314286 71.2795918 103.382653 72.0520408M104.387755 63.1989796C107.367347 62.4326531 106.209184 65.4438776 104.657143 66.4785714M104.387755 51.4795918C104.310204 51.8734694 104.245918 53.0908163 104.118367 53.4714286M110.194898 41.3765306C110.282653 41.977551 111.311224 42.7520408 112.031633 43.2683673" transform="matrix(-1 0 0 1 176.53 0)"/>
    <path d="M103.786735 57.5112245C102.645918 58.5510204 104.42449 60.3061224 104.312245 60.8642857 104.178571 61.5326531 103.29898 61.7316327 103.180612 62.4397959 103.016327 63.4295918 103.942857 64.9510204 104.110204 65.955102 104.281633 66.9816327 104.060204 68.0785714 104.231633 69.1071429 104.592857 71.2734694 105.723469 74.7795918 107.94898 75.7326531 110.365306 76.7683673 113.641837 75.0336735 115.908163 74.2785714M104.432653 60.1020408C105.107777 60.1716947 105.764669 60.3632304 106.371429 60.6673469" transform="matrix(-1 0 0 1 176.53 0)"/>
    <path d="M102.185714 55.4765306C105.773469 53.044898 107.311224 53.9459184 108.481633 58.0357143 108.787755 59.1193878 109.240816 60.5142857 108.991837 60.3897959 107.744898 59.7663265 108.02551 53.6836735 103.566327 55.1693878 102.761967 55.3587794 102.042718 55.8086236 101.520408 56.4489796 101.404082 56.6806122 101.989796 56.2234694 102.234694 56.1428571 102.829223 55.9466201 103.450488 55.8433627 104.076531 55.8367347 104.533799 55.7645312 104.99627 55.7304005 105.459184 55.7346939 106.354082 55.8836735 107.19898 57.527551 107.404082 58.344898M5.04379801 207.949199C5.22147372 209.265454 4.80283258 210.677532 5.04379801 211.987469 5.56637363 214.83058 5.28360215 217.756351 5.73475911 220.622101 5.94204744 221.938356 5.49379368 223.349381 5.73475911 224.660371 5.98269221 226.008216 5.73069463 228.333249 5.96701494 229.395204 6.11565868 230.0686 5.91824122 230.799911 6.04424001 231.483837 6.37578521 233.289212 6.25907665 235.148817 6.42804277 236.984203 6.61152488 239.01808 7.28274424 243.260106 7.11668132 244.990718 7.06732695 245.503531 6.83855496 246.460712 6.73287855 246.938776M16.0316327 203.026531C15.984705 204.268632 16.12129 205.510785 16.4397959 206.738517 16.8918367 208.361099 16.1204082 210.112439 16.5744898 211.742345 17.4265306 214.798951 17.5428571 217.936107 18.0591837 221.022615 18.6571429 224.602183 19.6183673 228.168326 20.2183673 231.755216 20.4581633 233.186189 21.0663265 234.606177 21.4326531 236.032268 21.8112245 237.504126 22.1530612 238.99246 22.377551 240.47103 22.6285714 242.123514 23.3602041 243.72962 23.5918367 245.393698 23.7755102 246.709339 23.1836735 247.967008 23.1836735 249.266783" transform="matrix(-1 0 0 1 176.53 0)"/>
  </g>
</svg>
