<svg xmlns="http://www.w3.org/2000/svg" viewBox="0 0 154 250"><g fill="none" fill-rule="evenodd" stroke="#000" stroke-linecap="round" stroke-linejoin="round"><path d="M40.3918367,63.7816327 C44.0285714,60.3663265 48.0030612,61.6061224 51.922449,63.7816327 M43.2397959,70.5622449 C46.1653061,71.2469388 49.4122449,72.5357143 52.3214286,71.2408163 M42.4938776,69.544898 C46.5122449,67.5204082 49.6520408,69.9938776 53.3428571,70.5653061 M32.7673469,64.1877551 C31.5295918,71.2163265 35.3265306,72.6469388 36.6632653,77.5459184 C37.1979592,79.5061224 38.8632653,82.3683673 39.172449,84.3734694 C39.877551,88.9571429 43.5785714,91.9244898 47.444898,94.4979592"/><path d="M30.5602041,68.3918367 C29.4632653,67.3897959 28.2989796,66.8255102 26.9663265,67.7142857 C23.905102,69.755102 27.95,76.4704082 29.4418367,78.7091837 C33.0510204,83.477551 34.9520408,84.1428571 36.0744898,83.5795918 C36.9877551,83.122449 36.3469388,80.2520408 36.6377551,79.3806122 M61.7520408,69.2061224 C64.3549525,68.5451298 66.667008,67.0436926 68.3295918,64.9346939 M61.5489796,67.85 C63.3571429,65.672449 65.8081633,64.8520408 68.4653061,64.1877551 M63.9214286,66.222449 C63.194898,69.6979592 65.8469388,64.8397959 63.8530612,66.8346939 M47.2408163,69.544898 C46.3734694,72.3163265 50.1112245,68.9163265 47.3081633,69.6806122 M58.2928571,69.2061224 C58.2244898,74.2061224 66.5653061,81.005102 58.0887755,79.5122449 M56.8693878,85.2091837 C58.9285714,81.9214286 58.627551,84.3928571 60.1918367,84.3928571 C60.677551,84.3928571 60.8755102,82.8704082 61.6204082,83.2397959 C62.3132653,83.5867347 62.2479592,84.6469388 63.1122449,84.9346939 M57.8183673,85.7510204 C59.2208781,85.9640687 60.6550479,85.7758649 61.955102,85.2081633 M57.0734694,85.6836735 C59.7908163,86.9540816 60.5132653,88.9663265 62.8367347,85.4795918 M19.2857143,46.3979592 C18.0118447,45.241341 16.6655805,44.1670563 15.255102,43.1816327 C14.7265306,43.3326531 11.6959184,45.2867347 11.3867347,44.744898 C11.1069264,43.1144701 11.0240194,41.4563296 11.1397959,39.8061224 C11.6805193,39.3567268 12.1519288,38.8299584 12.5387755,38.2428571 C13.1887755,36.9438776 11.5642857,35.3418367 12.2091837,34.3734694 C12.5938776,33.7969388 15.7367347,33.7214286 16.4071429,33.3857143 C16.7438776,33.2173469 17.0663265,31.377551 17.394898,30.9163265 C18.3132653,29.6306122 18.5826531,30.8867347 19.7816327,30.5867347 C19.7989796,30.5867347 21.1081633,27.1632653 22.0040816,26.7183673 C22.9306122,26.255102 23.7142857,27.6234694 24.555102,27.6234694 C24.8612245,27.6234694 25.3306122,26.4663265 25.4602041,26.3061224 C26.0806256,25.4704619 26.8649805,24.7701327 27.7653061,24.2479592 C28.1265306,24.1030612 29.305102,25.4244898 29.7408163,24.9887755 C30.4030612,24.3265306 30.3530612,22.9653061 31.4693878,22.5193878 C32.0731212,22.4363289 32.6869529,22.4643404 33.2806122,22.6020408 C33.7989796,21.305102 34.5244898,16.9897959 36.4091837,16.6744898 C37.9434114,16.5590926 39.4841396,16.5590926 41.0183673,16.6744898 C41.6826531,16.7693878 42.3091837,17.1 42.9938776,17.1683673 C43.3,17.1979592 43.7969388,17.0326531 44.0642857,17.0857143 C44.2479592,17.122449 43.4438776,20.8469388 44.1459184,20.3785714 C44.6010204,20.072449 47.0591837,17.4479592 47.4387755,17.827551 C47.5520408,17.9408163 47.572449,18.1265306 47.6857143,18.2357143 C49.4204082,19.9704082 51.0061224,18.1265306 53.1959184,18.5642857 C55.0122449,18.927551 52.6387755,21.0530612 53.3602041,21.7744898 C54.1010204,22.5153061 55.9112245,21.4459184 56.4877551,22.0214286 C56.9632653,22.4969388 55.4673469,24.3602041 55.2530612,24.6561224 C54.9057902,25.013991 54.627037,25.4324667 54.4306122,25.8908163 C54.505102,26.0020408 56.0459184,26.4704082 55.5010204,26.8785714 C54.2836735,27.7969388 52.5234694,27.9897959 51.2153061,28.772449 M59.65,62.6285714 C61.1336735,58.9479592 63.8918367,55.4673469 68.1255102,56.1193878"/><path d="M31.6204082,72.8295918 C27.1438776,70.855102 30.7316327,76.7459184 32.105102,77.922449 C32.1479592,77.9591837 33.6908163,78.8785714 33.8234694,78.6806122 C34.027551,78.3744898 33.2377551,76.7418367 33.2377551,76.305102 M17.8897959,33.3030612 C18.391711,33.3645581 18.8570223,33.597394 19.2071429,33.9622449 C18.6315735,34.3646375 18.106388,34.8346665 17.6428571,35.3622449 C16.4744898,36.822449 18.9173469,36.2204082 19.2887755,37.3377551 C19.4122449,37.705102 18.6602041,38.5918367 19.1244898,38.9010204 C19.8242667,39.0840679 20.5555493,39.1122746 21.2673469,38.9836735 M25.2163265,28.1173469 C25.557822,28.2773415 25.8440828,28.5351894 26.0387755,28.8581633 C26.1061224,29.5285714 24.7785714,30.3244898 24.8867347,31.0806122 C24.9244898,31.3418367 26.7336735,30.3591837 27.0295918,30.7510204 C27.4295918,31.2846939 27.0295918,32.5877551 27.0295918,33.2204082 M32.8714286,23.0132653 C35.2357143,23.6163265 32.4928571,27.1459184 32.7897959,27.5408163 C33.1030612,27.9591837 34.6183673,26.9030612 34.6826531,27.1326531 C34.8969388,27.8836735 33.6622449,29.5163265 33.9418367,30.8377551 C34.1459184,31.7663265 35.0846939,30.9306122 35.6704082,31.9081633 M44.8897959,20.5438776 C46.2102041,20.8173469 44.7755102,23.3102041 45.0540816,23.5897959 C45.5142857,24.05 46.827551,23.2285714 46.7826531,23.5897959 C46.7377551,23.9510204 45.1622449,26.3744898 45.5479592,26.4714286 C45.9585763,26.4319334 46.372036,26.4319334 46.7826531,26.4714286 C47.4602041,27.1489796 44.9,30.4122449 46.1234694,29.1877551"/><path d="M44.8897959,18.8153061 C47.4408163,11.6530612 41.5428571,6.02857143 36.9877551,3.75102041 C32.0969388,1.30204082 27.205102,-0.942857143 21.2642857,1.69285714 C17.3989796,3.40714286 17.477551,5.89081633 17.3285714,9.84183673 C7.84591837,9.26530612 3.51836735,14.1632653 1.5122449,19.3908163 C-1.27755102,26.6418367 1.7377551,39.1469388 11.0612245,39.1469388 M54.222449,28.7244898 C73.7816327,37.2387755 69.1408163,45.405102 69.1408163,60.1193878 C69.1408163,65.2265306 70.0142857,77.6489796 68.8693878,82.2255102 C67.4908163,87.7357143 64.8663265,94.8469388 59.105102,97.0071429 C56.4061224,98.0193878 49.6602041,95.7306122 47.4428571,94.4979592 M53.6102041,28.7244898 C50.9010204,28.0571429 47.5204082,29.0387755 45.2020408,30.4877551 C43.5234694,31.5357143 42.2581633,33.4714286 40.1163265,33.4714286 C38.122449,33.4714286 34.1734694,32.722449 32.7255102,32.9285714 C29.567332,33.5035573 26.61872,34.9076079 24.1816327,36.9969388 C22.2520408,38.6510204 20.4479592,42.3030612 19.6622449,44.6591837 C19.2140044,48.1003087 19.1602548,51.5813704 19.5020408,55.0346939 C21.3748875,63.5746519 24.5296725,71.7819094 28.8591837,79.377551 C29.9204082,81.2887755 34.9530612,83.4591837 36.6357143,84.8632653 C40.0408163,87.7 40.2469388,89.6540816 40.8612245,94.5663265 C41.3112245,98.1673469 40.2112245,101.489796 39.7081633,105.009184 C39.4020408,107.152041 39.8469388,109.611224 39.0295918,111.654082 C38.7989796,112.229592 36.2306122,115.837755 35.7071429,116.672449 C35.0193878,117.772449 31.9653061,125.489796 31.4693878,126.978571 M65.6877551,91.977551 C68.2102041,94.8846939 72.844898,100.673469 73.4755102,104.458163 C73.8683673,106.814286 74.1632653,109.173469 74.6673469,111.520408 C75.755102,116.597959 76.8642857,121.718367 78.4112245,126.667347 C78.9744898,128.469388 79.3408163,131.334694 79.9418367,132.537755"/><path d="M67.7806122,94.3540816 C69.0939438,96.4901303 71.1061545,98.1057398 73.4755102,98.9265306 C75.1166865,99.4289784 76.7955476,99.7988738 78.4959184,100.032653 C79.2928565,100.041094 80.0885434,100.098002 80.8785714,100.203061 C85.2334285,101.487489 89.3865058,103.376657 93.2163265,105.815306 C96.8789084,108.25628 100.174085,111.20785 103.002041,114.580612 C104.430612,116.293878 106.236735,119.978571 107.797959,121.539796 M117.385714,134.835714 C119.732653,140.317347 122.379592,143.862245 126.320408,148.365306 C127.504082,149.717347 128.415306,151.339796 129.554082,152.705102 C129.781832,153.057368 129.981104,153.42725 130.15,153.811224 C132.258163,157.326531 134.877551,161.196939 138.064286,163.853061 C142.803061,167.802041 146.20102,170.314286 149.722449,175.594898 C150.464286,176.707143 150.742857,178.029592 151.423469,179.166327 C152.321429,180.661224 153.770408,184.937755 153.12551,186.654082 C152.678571,187.845918 147.441837,193.870408 146.318367,194.993878 C145.411224,195.90102 144.766327,197.003061 143.935714,197.971429 C142.087302,199.69815 140.094674,201.263713 137.979592,202.65102 C136.572156,203.063672 135.094394,203.179725 133.639796,202.991837 C130.420408,202.455102 127.395918,197.615306 125.044898,196.439796 C122.732653,195.283673 117.856122,196.559184 116.195918,194.482653 C114.633756,192.131355 113.536114,189.502764 112.962245,186.738776 C112.881857,185.531562 112.682245,184.335261 112.366327,183.167347"/><path d="M117.554082,169.467347 C118.393878,168.584694 119.554082,168.760204 120.615306,168.361224 C122.029592,167.830612 123.830612,166.385714 125.207143,167.765306 C126.072449,168.630612 125.732653,170.426531 125.887755,171.509184 C126.439159,176.082304 126.666596,180.688682 126.568367,185.293878"/><path d="M117.128571,171.341837 C118.185714,172.27449 120.307143,171.797959 121.382653,172.872449 C125.302041,176.791837 123.117347,187.20102 120.702041,191.422449 C120.097002,192.721531 119.19312,193.858989 118.064286,194.741837 C117.916327,194.843878 117.805102,195.329592 117.723469,195.167347 C117.670329,195.002363 117.641791,194.830448 117.638776,194.657143 M126.658163,169.978571 C124.114286,169.32449 129.234694,168.396939 129.55102,168.532653 C129.932653,168.695918 130.255102,170.192857 130.402041,170.573469 C131.75102,174.080612 132.442857,178.089796 133.890816,181.465306 C134.424583,182.412208 135.021512,183.32209 135.677551,184.188776 M134.146939,169.042857 C133.673429,170.051536 133.468175,171.165323 133.55102,172.276531 C133.785714,174.386735 135.309184,178.79898 136.784694,180.27449 M126.318367,165.638776 C127.219388,163.341837 128.440816,160.497959 131.168367,160.108163 M78.7510204,100.797959 C80.4795918,108.583673 83.5469388,116.053061 85.8938776,123.687755 C86.7591837,126.502041 88.5316327,129.343878 88.5316327,132.367347 M53.2234694,99.2673469 C53.5367347,99.0479592 59.522449,102.712245 59.605102,102.670408 C60.1581633,102.393878 64.9336735,93.9030612 64.9336735,92.6336735 C64.9336735,92.327551 64.4520408,94.6744898 64.2857143,94.927551 C63.5581633,96.05 62.8846939,97.2091837 62.1581633,98.3306122 C60.3561224,101.115306 57.872449,105.953061 56.394898,108.903061 M70.9744898,98.6571429 C68.3253367,102.909841 66.0128435,107.363215 64.0581633,111.976531 M31.4397959,127.176531 C31.2299903,128.926755 31.1729723,130.691924 31.2693878,132.452041 C31.555102,137.317347 32.8673469,142.081633 32.3755102,147.003061 C32.1377551,149.380612 30.6704082,151.266327 29.8244898,153.384694 C29.3602969,154.906276 29.0747036,156.476697 28.9734694,158.064286 C28.9205307,158.402362 28.9205307,158.746618 28.9734694,159.084694 C29.1367347,159.492857 30.6928571,158.966327 30.9306122,158.829592 C32.0020408,158.217347 37.2377551,157.842857 37.7377551,159.510204 C37.8460898,160.155001 37.7255255,160.817383 37.3969388,161.382653 M30.8683673,161.735714 C30.7877551,163.727551 31.5183673,166.412245 30.6795918,168.368367 C29.9020408,170.182653 28.5714286,170.943878 28.1193878,173.203061 C27.6520408,175.540816 28.1193878,177.896939 28.1193878,180.218367"/><path d="M29.8255102,165.717347 C29.8255102,165.622449 29.9204082,165.432653 29.8255102,165.432653 C29.4657112,165.701559 29.1464567,166.020813 28.877551,166.380612 C27.8233358,167.12685 26.6762328,167.732303 25.4653061,168.181633 C23.8010204,168.736735 25.0091837,168.193878 23.8530612,168.371429 C23.0653061,168.492857 22.5265306,169.056122 21.7673469,169.22449 C21.4714286,169.289796 20.5428571,169.122449 20.344898,169.22449 C19.6816327,169.556122 20.3867347,171.689796 20.4397959,172.163265 C20.6276148,175.860579 20.5642037,179.566379 20.25,183.255102 C20.250116,184.215631 20.1228152,185.171931 19.8714286,186.09898 C19.4743949,186.920144 19.1569579,187.777463 18.9234694,188.659184 C18.9765306,188.746939 22.0612245,189.169388 22.4316327,189.227551 C24.4271523,189.799285 26.1667998,191.036952 27.3612245,192.734694 C28.9938776,195.591837 29.4846939,201.380612 32.4806122,202.878571"/><path d="M23.094898,190.270408 C21.6918367,193.64898 23.8887755,196.442857 24.8959184,199.466327 C25.644898,201.711224 25.8316327,204.004082 27.5489796,205.722449 C27.803768,206.355023 27.9323726,207.031324 27.927551,207.713265 C29.1183673,207.95102 34.9346939,205.637755 36.1755102,205.060204 C37.1577801,204.499451 38.1701987,203.993241 39.2081633,203.543878 C40.0244898,203.272449 43.5581633,202.606122 44.0428571,202.121429 C44.7061224,201.459184 44.9612245,200.087755 45.3693878,199.277551 C46.4632653,197.090816 47.9887755,195.076531 49.1612245,192.926531 C50.7735411,190.049147 52.5449965,187.263874 54.4673469,184.583673 C55.2744898,183.430612 55.272449,182.104082 55.7938776,180.886735 C56.3374935,179.953875 56.691869,178.922996 56.8367347,177.853061 C56.9265306,176.408163 55.6387755,173.347959 55.2255102,171.691837"/><path d="M49.2602041,181.545918 C49.8602041,180.661224 50.4469388,179.766327 51.0612245,178.892857 C52.7901175,176.687125 54.2239767,174.265343 55.3265306,171.688776 C55.6469388,170.833673 55.7846939,169.969388 56.1795918,169.128571 C56.6438776,168.141837 57.9336735,166.185714 58.0755102,165.052041 C58.2418367,163.718367 57.4122449,162.194898 57.4122449,160.785714"/><path d="M48.4061224,170.741837 C51.2489796,167.158163 53.8714286,162.817347 57.8857143,160.409184 C58.4979592,160.043878 60.6867347,159.357143 61.0142857,158.702041 C61.4653061,157.80102 60.1591837,155.187755 59.8765306,154.152041 C59.7870642,153.365282 59.7553467,152.573026 59.7816327,151.781633 C59.4561224,149.17449 59.2663265,147.359184 57.7908163,145.14898"/><path d="M46.1316327,142.872449 C45.3261845,143.076991 44.5795389,143.46656 43.9510204,144.010204 C42.0438776,145.397959 43.0459184,146.210204 43.1928571,148.276531 C43.1616458,149.494567 43.321405,150.709976 43.6663265,151.878571 C44.3288785,153.086404 45.0568309,154.257191 45.8469388,155.385714 C46.6102041,156.785714 48.2142857,161.588776 50.4928571,161.263265 C51.2719028,161.014361 51.9848133,160.593033 52.5785714,160.030612 C53.2102041,159.593878 54.694898,159.273469 55.1387755,158.609184 C55.3492685,158.029701 55.4767218,157.423352 55.5173469,156.808163 C56.155453,154.350258 56.5990011,151.845918 56.8438776,149.318367 C57.0112245,147.468367 56.5489796,145.547959 57.4122449,143.819388 M32.6020408,146.767347 C34.1744898,145.194898 32.7928571,146.478571 35.3520408,144.586735 C39.1142857,141.806122 38.0438776,143.056122 42.177551,141.933673 C42.7814101,141.910714 43.3830759,141.84765 43.9785714,141.744898 C45.2091837,141.217347 45.6632653,140.139796 47.1071429,139.659184 M64.3683673,149.722449 C66.9255102,148.278571 70.1153061,145.019388 72.6336735,143.506122 C78.7081633,139.862245 87.3010204,136.97551 94.3071429,136.730612 C100.55,136.508163 100.633673,137.607143 102.513265,138.232653"/><path d="M64.3683673,149.722449 C65.1428571,149.018367 65.8836735,144.271429 66.4846939,143.469388 C74.9020408,136.97551 80.3744898,134.188776 86.205102,132.59898 C89.6561224,131.658163 94.2826531,130.614286 97.2683673,131.733673 C102.517347,133.7 102.186735,136.94898 102.517347,137.278571 M105.702041,138.494898 C103.973469,131.707143 106.153061,126.886735 110.232653,124.277551 C112.171429,123.035714 115.97551,124.723469 115.010204,126.976531 M64.3683673,149.722449 C65.1846939,155.984694 66.9928571,162.054082 67.927551,168.288776 C68.5846939,178.015306 69.2030612,180.967347 69.3704082,183.969388 C69.4918367,186.162245 69.4204082,192.030612 69.4663265,192.05 C77.0438776,185.530612 80.85,182.920408 83.5918367,181.55 C91.1295918,178.358163 92.2408163,178.055102 96.8826531,177.042857"/><path d="M68.8897959,152.223469 C73.5204082,170.741837 73.1642857,174.917347 73.3153061,175.119388 C73.4887755,175.35102 79.9714286,171.903061 79.9479592,171.690816 C77.7030612,154.304082 76.0704082,150.064286 75.5326531,149.530612 C72.494898,150.783673 70.5132653,151.445918 68.8857143,152.260204 M41.6418367,104.513265 C38.5908163,112.846939 47.5928571,116.145918 50.9979592,121.987755 C54.522449,128.029592 53.6989796,134.196939 50.4602041,140.269388 C48.9040816,143.187755 46.7816327,147.139796 43.5214286,148.442857"/><path d="M42.3408163,104.566327 C42.6141949,104.651389 42.8200154,104.877909 42.8785714,105.158163 C43.1979592,106.116327 43.0112245,107.19898 43.255102,108.169388 C43.8173469,110.419388 45.5102041,113.353061 47.7183673,114.29898"/><path d="M46.3734694,113.465306 C44.5714286,111.016327 44.4744898,108.118367 46.75,107.738776 C48.4591837,107.454082 53.9642857,111.993878 53.3091837,112.255102 C50.4765306,113.385714 50.0632653,110.071429 48.3693878,110.75 C47.3489796,111.158163 48.7846939,113.236735 49.2408163,113.465306 M49.5989796,108.169388 C48.7911849,107.233704 48.0711464,106.225718 47.4479592,105.158163 C46.9768367,104.374344 46.5463362,103.566815 46.1581633,102.738776 C45.8418367,102.106122 45.605102,101.463265 45.3510204,100.8 C44.8071429,99.3846939 44.0989796,92.5612245 46.1581633,97.7887755 C46.6306122,98.9897959 50.5653061,107.467347 52.0765306,107.467347 C52.3959184,107.467347 51.6540816,106.984694 51.4846939,106.714286 C50.9959184,105.932653 50.2826531,105.171429 49.8714286,104.34898 C49.2540816,103.113265 45.9020408,97.1112245 47.7214286,96.2010204 C48.5193878,95.8020408 49.9938776,100.384694 50.2479592,100.961224 C51.4153061,103.588776 53.2071429,105.173469 54.9204082,107.719388 C57.2030612,111.116327 58.7234694,112.160204 59.6530612,114.295918"/><path d="M58.4173469,122.14898 C57.294898,118.591837 59.0204082,116.728571 60.1387755,114.29898 C61.5489796,111.237755 61.5489796,105.803061 62.8367347,105.533673 C63.7846939,105.335714 63.7918367,108.647959 63.7918367,108.979592 C63.7918367,111.209184 63.3346939,114.835714 63.5795918,117.040816 C63.9438776,120.317347 62.594898,122.953061 61.5908163,125.966327 C58.8357143,136.231633 57.0734694,139.085714 57.1285714,145.966327 M101.569388,133.744898 C101.85,129.511224 103.896939,123.55 107.793878,121.541837 C111.054082,119.862245 113.1,120.763265 113.771429,121.392857 C115.503131,123.254263 115.785405,126.040309 114.462245,128.211224 C109.32449,136.70102 102.512245,141.205102 96.8785714,142.870408"/><path d="M115.010204,126.976531 C113.706149,133.500772 113.027903,140.134605 112.984694,146.787755 C112.984694,148.427551 113.74898,151.287755 112.984694,152.815306 M119.619388,177.678571 C115.512245,171.658163 113.442857,164.441837 112.641837,157.236735 C112.57551,156.641837 112.069388,151.62449 111.05102,151.80102 C110.732653,151.855102 110.234694,153.89898 110.234694,154.184694 C110.234694,156.720408 110.731633,159.286735 110.731633,161.760204"/><path d="M112.363265,183.168367 C111.891162,180.858993 111.25172,178.587013 110.45,176.370408 C109.855102,174.941837 106.135714,174.035714 105.104082,172.857143 C102.42551,169.795918 100.89898,166.234694 98.4714286,162.959184 C97.5530612,161.723469 92.994898,156.632653 93.4040816,156.047959 C93.8867347,155.361224 97.2510204,157.723469 97.5612245,158.02449 C99.2884292,159.691065 100.77577,161.589477 101.980612,163.665306 C101.040806,161.791008 99.8686553,160.042553 98.4918367,158.461224 C97.439756,157.090997 96.4781902,155.653591 95.6132653,154.158163 C95.4010204,153.805102 94.1561224,151.387755 95.1867347,150.914286 C96.6734694,150.230612 103.92449,159.390816 103.92449,159.390816 C104.486729,159.683415 104.910673,160.186206 105.104082,160.789796 C100.457143,151.70102 98.3010204,149.531633 98.3010204,149.531633 C98.3010204,149.531633 95.9612245,146.107143 96.8826531,145.422449 C98.0469388,144.557143 100.431633,148.14898 100.616327,148.444898 C101.629592,150.066327 103.535714,151.894898 104.458163,153.564286 C105.806122,156.007143 107.461224,159.541837 107.053061,158.52551 C105.857143,155.54898 105.741837,153.480612 104,150.943878 C101.44898,147.22449 101.310204,144.658163 102.219388,144.507143 C103.270408,144.331633 104.894898,147.382653 105.272449,148.018367 C107.536735,151.834694 110.514286,156.793878 110.733673,161.385714 M97.0173469,143.905102 C97.0877551,144.313265 97.1030612,144.721429 97.1846939,145.129592"/><path d="M97.1285714,162.193878 C98.1061224,166.082653 97.0265306,170.160204 97.6306122,174.070408 C97.7236472,174.791291 97.7608328,175.518285 97.7418367,176.244898 C97.7418367,176.579592 97.3612245,177.163265 97.6857143,177.247959 C98.3663265,177.418367 100.542857,175.854082 101.197959,175.57551 C103.083438,174.864554 105.022567,174.30496 106.996939,173.902041 M58.9081633,161.617347 C60.3662222,168.692127 62.4527289,175.622676 65.1428571,182.326531 C66.05,184.594898 67.8377551,186.626531 68.594898,188.895918 C69.0408376,190.322967 69.4124257,191.772194 69.7081633,193.237755 M52.8959184,189.118367 C52.8427898,189.971119 53.0358237,190.821176 53.4520408,191.567347 C54.3102041,192.855102 56.8979592,192.885714 57.3489796,194.238776 C58.1081633,196.517347 57.1663265,199.623469 59.0193878,201.476531 C59.9040816,202.361224 60.7704082,201.132653 61.5806122,200.808163 C61.9612245,200.656122 62.3112245,200.729592 62.6938776,200.585714 C63.0765306,200.441837 63.9928571,199.658163 63.8071429,200.029592 C63.0132653,201.616327 61.1540816,202.318367 60.0214286,203.591837 C59.3379652,204.37964 58.740693,205.238262 58.2397959,206.153061 C58.0285714,206.522449 54.8071429,210.383673 54.3428571,210.940816 C53.3467342,212.398444 52.4537407,213.923932 51.6704082,215.506122 C50.7938776,216.908163 49.3183673,217.75102 48.3306122,219.069388 C46.6734694,221.277551 45.0326531,223.386735 43.3204082,225.526531 C42.7438776,226.246939 42.0612245,227.007143 41.5387755,227.753061 C41.2244898,228.203061 41.0540816,229.385714 40.5367347,229.645918 C38.8468424,230.406133 37.3308928,231.504979 36.0826531,232.87449 C35.7110439,233.421914 35.301898,233.942893 34.8581633,234.433673 C33.9867347,235.181633 32.7153061,235.47551 31.8520408,236.215306 C30.705102,237.19898 29.9132653,238.595918 28.844898,239.666327 C26.822449,241.688776 24.0367347,243.441837 22.4979592,245.90102 C22.1918367,246.386735 21.9428571,246.981633 21.6081633,247.460204 C21.0979592,248.189796 19.9755102,248.723469 19.6040816,249.464286 M55.2336735,212.611224 C55.7530612,212.35102 56.2540816,212.058163 56.7928571,211.831633 C58.322799,211.313823 59.8113963,210.681066 61.2459184,209.938776 C62.5147235,208.951309 63.8543863,208.058428 65.2540816,207.267347 C66.3033532,206.92219 67.2833845,206.394348 68.1489796,205.708163"/><path stroke-width=".5" d="M35.1204082,49.4744898 C34.9163265,54.2357143 35.355102,59.372449 34.1540816,63.5785714 C33.8571429,64.6173469 33.0020408,65.4071429 32.6622449,66.4265306 M35.1204082,49.4744898 C35.4520408,52.9357143 38.0153061,60.1469388 35.6459184,63.3071429 M39.1714286,47.405102 C38.2469388,51.8122449 39.1030612,56.9 37.9469388,60.9336735 M39.1714286,47.9142857 C40.1683673,51.8122449 40.9214286,56.4571429 39.3755102,60.3234694 M42.4938776,45.7581633 C43.7849595,49.8710854 43.39497,54.327899 41.4091837,58.1540816 M42.4938776,45.7581633 C44.522449,49.4744898 44.4612245,54.95 43.2397959,58.6153061 M45.6132653,44.6591837 C46.4504891,49.4457465 45.6122555,54.3746031 43.2397959,58.6153061 M45.6132653,44.6591837 C47.444898,47.9142857 47.45,52.0755102 46.572449,55.5887755 M48.7010204,43.95 C49.4020408,47.1438776 49.5459184,52.9693878 48.3693878,56.0397959 M50.1071429,42.8969388 C51.2545271,47.034474 51.3923999,51.3869167 50.5091837,55.5887755 M51.9193878,39.505102 C53.3071429,44.1255102 52.3857143,51.3642857 50.5091837,55.5877551 M51.9193878,39.8510204 C53.8040816,42.005102 55.5397959,49.1673469 54.6989796,52.3214286 M53.9642857,41.8112245 C56.0265306,44.1285714 56.5887755,47.405102 56.3938776,51.0336735 M57.8183673,40.9765306 C58.2265306,46.1193878 57.8183673,47.9153061 56.3897959,51.0336735 M59.027551,38.6459184 C61.8846939,43.7255102 60.0142857,49.6897959 59.65,55.1602041 M59.65,39.0632653 C61.955102,41.8112245 62.6418367,46.572449 62.0234694,50.6959184 M63.4469388,41.0653061 C64.1939602,43.4631635 64.2645809,46.0206955 63.6510204,48.4561224 M64.9367347,41.8112245 C66.1891581,43.8109528 66.581718,46.2314327 66.0255102,48.5244898 M66.2816327,39.8510204 C67.9795918,42.4122449 68.1255102,45.7571429 67.2642857,49.4734694 M66.2816327,39.8510204 C69.6177698,42.3661117 70.9649413,46.7371177 69.6234694,50.6938776 M57.8183673,40.9765306 C58.6979592,43.572449 59.65,51.0336735 59.65,55.1602041"/></g></svg>