<svg xmlns="http://www.w3.org/2000/svg" data-name="Layer 1" viewBox="0 0 182.893 249.914">
  <path fill="none" stroke="#000" d="M143.6,144.2c8.2,2.3,16.1,13.2,20.3,13.9,4.8,0.8,11.4-5.5,9.4-10.4-1.9-4.5-6.5,2-6.9-1.5-1.1-9,22.9-10.1,15.4-18.8-1.2-1.4-2.7-2.7-4-4a30.191,30.191,0,0,0-3.9-3.2m-31.8-.5c-2.9-5.9-1.6-21.1-2-28.3m-2.3,38.9c6.9-9.2,11.2-19.6,14-30.7m-9.3,30.7c3.8-3,5.9-8.3,8.2-12.4m-3.7,13c2.8-1.7,4.2-4.2,5.7-7.1m0,7.3c4.5-2.2,7.1-7.1,9.5-11.3" transform="translate(-.862 -.787)" stroke-linecap="round" stroke-linejoin="round"/>
  <path fill="none" stroke="#000" d="M129.7,138.3c2-9.9,14.9-4.8,21.4-3.9,4,0.6,7.3-1.3,10.6-3.2a13.975,13.975,0,0,0,6.3-8m-28.4-12c-4-4-8.6-7.6-11.9-12.3m-1.4,9.3a76.585,76.585,0,0,0,11.8,7.6m-9.8.1c3.5,1.2,6.3,5.7,10.9,4.9M122.5,122c4.7,2.4,9.3,3.9,14.7,3m4.3,84.6c-5.2-7.3-6.5-19.8-5.6-28.6s6.4-16.6,7.3-25.4a12.972,12.972,0,0,0-1.4-7.5,17.437,17.437,0,0,0-3-4.9c-2.9-2.9-9.4-3.1-13-1.9-0.8.3-1.3,1.1-2.1,1.1" transform="translate(-.862 -.787)" stroke-linecap="round" stroke-linejoin="round"/>
  <path fill="none" stroke="#000" d="M109.6,151.2a38.3,38.3,0,0,1,.3-6.8,4.721,4.721,0,0,1,2.7-3.7c6.8-2.9,10.4,9.8,16.2,9.1,1.5-.2,1.8-2.2,1.1-3.3" transform="translate(-.862 -.787)" stroke-linecap="round" stroke-linejoin="round"/>
  <path fill="none" stroke="#000" d="M129.4,205.9c0-7.1-3.5-18.6-8.1-24-5.8-6.8-21.2-11.2-19.7-21.5,0.2-1.4.2-3.3,1.1-4.6,4.4-6.2,12.5-1.7,14.7-9.2M154.6,176c-2-6.1-8.9-9.3-10.7-15.6m9.5,20.9c-1.7-6.9-6.8-11.5-10-17.5m8.2,23.6c-0.4-2.2-.4-4.5-1-6.7-1.1-3.7-6.3-8.5-8.3-11.8m6.4,39.2c4,1.3,6.3-3.8,5.8-7.1-1.7-11.9-11.7-15.2-13.5-27.7a13.1,13.1,0,0,0-.6-2.7" transform="translate(-.862 -.787)" stroke-linecap="round" stroke-linejoin="round"/>
  <path fill="none" stroke="#000" d="M140.1,234.1c1.2-1.2,2.1-2.7,3.4-3.8,3.1-2.7,8.8-6.7,8-11.5a31.167,31.167,0,0,0-.9-4.4c-1.5-3.9-8.1-9.7-4.8-14.3,1.1-1.6,3.7,1.3,4.4,2.2m9-26.1c2.7-4,3.7-9.1,8.3-11.4,4.1-2,11.3-2.8,13.8-7.1,3.3-5.7-1.2-13.1-2.5-18.6" transform="translate(-.862 -.787)" stroke-linecap="round" stroke-linejoin="round"/>
  <path fill="none" stroke="#000" d="M154.9,195.7c1.5-4.6,3.8-8.3,8.1-10.9,1.5-.9,3.1-1.4,4.3-2.9,1.6-2,1.6-7.2,2-9.9a37.491,37.491,0,0,1,1.3-5.8m-42.8,54c-1.2-3.5-.7-7.2-2.1-10.7-4-9.5-10.9-20.2-8.8-31.2" transform="translate(-.862 -.787)" stroke-linecap="round" stroke-linejoin="round"/>
  <path fill="none" stroke="#000" d="M125.2,227.3c0-6.3-.7-13.4-3.3-19.2-2.9-6.6-7.6-13.4-8.5-20.7-0.4-2.8.6-7.8,0.1-10.6" transform="translate(-.862 -.787)" stroke-linecap="round" stroke-linejoin="round"/>
  <path fill="none" stroke="#000" d="M120.9,231.5c1.6-8.1.1-18.3-3.3-25.8-1.2-2.7-3-5.3-4.4-7.8-3.7-6.5-3.5-16.5-2.9-23.7" transform="translate(-.862 -.787)" stroke-linecap="round" stroke-linejoin="round"/>
  <path fill="none" stroke="#000" d="M103.2,167.9c-2.5,9.9,2.2,19.6,6.4,27.8,1.7,3.3,6.1,21.2.8,33.8-2.3,5.5.4,20.8,6.3,20.7,7.8-.2,14.1-6.2,15.9-11.4,1.7-5.1,4.4-11,9.2-14.7" transform="translate(-.862 -.787)" stroke-linecap="round" stroke-linejoin="round"/>
  <path fill="none" stroke="#000" d="M104.4,248.9a73.19,73.19,0,0,1-2.8-8.7c-2.9-14.7,8.3-33.8,2.2-48.9" transform="translate(-.862 -.787)" stroke-linecap="round" stroke-linejoin="round"/>
  <path fill="none" stroke="#000" d="M104.7,201c-1.4-4.1-5.7-9.1-6.1-11.1-0.8-4,3.5-6.7,3.6-10.7M115.8,54.6c7.7,7.7,19.5,8.8,28.6,14.5C161,79.5,166,96.8,169.6,114.9c1,5,4.4,10.8,7.8,14.4" transform="translate(-.862 -.787)" stroke-linecap="round" stroke-linejoin="round"/>
  <path fill="none" stroke="#000" d="M76.5,61c7.5,11.2,25.6,20.9,37.8,11,3.1-2.6,6.4-8.8,7.2-12.7M49.7,98.2c-1.5-.5-3-3.6-3.3-5-0.3-1.7-.9-3.3-0.6-5,2-10.1,11.4-16.5,19.7-21.5,2.8-1.7,7.7-4.7,11-5.6M48.7,105a6.507,6.507,0,0,0-.4-3.9c-1.9-3-6.7-6-3.1-10.6m1.6,22.2c4.8-7.9-7-9.1-3.3-16.3m-9.9,20c3.5-3.5,5.2-10.5,9.2-13.8m13.8,66.7a63.065,63.065,0,0,1-5.3-15.1c-2.8-13-3-42.2,2.4-54.5M62.5,177a3.287,3.287,0,0,0-1.6-.7A12.736,12.736,0,0,0,59,175c-5.1-2.1-6.2-2.9-5-8.9" transform="translate(-.862 -.787)" stroke-linecap="round" stroke-linejoin="round"/>
  <path fill="none" stroke="#000" d="M136.5,65.9C133,73,126.4,84,119.5,88.1a41.471,41.471,0,0,1-17,5.8c-1.4.1-2.8,0.6-4.3,0.7-16,1.2-29.9-11.5-35.1-25.8M86.3,95.5c-5.2,10.4-5.8,24-7.1,35.4a124.884,124.884,0,0,0-.4,25.2c0.2,2.5-.2,5.1.4,7.6,0.5,2.1,1,4.2,1.6,6.2,0.5,1.7,2.1,3.1,2.4,4.7,0.4,2.2-3.1,2.3-2.8,4.3s2.6,2,2.5,4m-62.5-44A21.765,21.765,0,0,1,27.2,127c1.8-1.5,6.1-3.5,6.7-5.9,0.7-2.7-3.8-5.4-5.6-6.7" transform="translate(-.862 -.787)" stroke-linecap="round" stroke-linejoin="round"/>
  <path fill="none" stroke="#000" d="M21.5,136.9a26.613,26.613,0,0,1,1-4.9c2.1-4.7,8.1-8.5,5.6-14.2-0.2-.5-1-0.4-0.9-1m13.7,46.3c-2.8-6.9.7-19,3-25.9,1.2-3.5,3.3-6.8,2.8-10.7-0.4-3.5-6.5-5.8-9.3-4.4m2.4,9.6c-1.5-1.9-2.6-4.2-4.4-5.8" transform="translate(-.862 -.787)" stroke-linecap="round" stroke-linejoin="round"/>
  <path fill="none" stroke="#000" d="M48.9,213.3a23.466,23.466,0,0,0,4.4-10.4c1.8-16.5-21.8-44.1-15.8-63.1m-16-6.5c-0.3,2.3-1.3,4.5-1.6,6.8-1.1,7.8,2.7,14.4-1,24.3C11,185.1,0,192.2,3.1,217c0.6,4.9.8,8.3,3.8,12.3,2.6,3.5,4.5,7.3,9.3,8.3,6,1.2,11.7-7.7,14.1-12,9.7-17.8-.9-34.6-2.7-52.6-0.7-6.8-.5-15.9,1.9-22.2,1.5-4,3.5-7.9,4.1-12.2,0.6-4,.3-8.1-1.9-11.7" transform="translate(-.862 -.787)" stroke-linecap="round" stroke-linejoin="round"/>
  <path fill="none" stroke="#000" d="M2.1,206.5c-1.9-9.7.2-21.6,4.6-30.4,1.8-3.6,4.6-7.6,5.2-11.7,0.6-4.3-3.3-7.7-2.5-12.4,0.6-3.4,3.1-6.6,4.6-9.6m0.2,7.4c0,8-4.7,23-.1,4m6.3,84.1c11.1,0,23.7-8.8,26.2-20.2,1.3-6,1.1-12,1.8-18.1M9.2,185.5c1,9.4.3,22.7,10.4,27.7,4.9,2.5,8.2,3.7,13.5.7M9.9,183.1c4.3,12.8,6.8,26.3,23.7,21.6M14.8,177.3c1.3,8,3.1,30.5,16.6,23.9M16.7,171.8c2.3,5.4,4.6,14.1,11.8,12.4m-8.1-21c1.4,3.3,2.7,6.3,5.8,8.6m-6.1-15.2c1.3,3.2,2.7,6.7,5.9,8.6m-3.5-14a12.43,12.43,0,0,0,4,8.6M20,141.2c2.8,2.8,4.2,6.8,7,9.8m-6.6-2.6c1.1,0,2.7-.6,2.5-2.1m4.8-5.3a29.63,29.63,0,0,0,2.2-10.7m-0.7,13.1c4.2-2.7,2.5-11.1,2.2-15.6m-9.3,15c0-5.2,5.8-7.8,6.4-12.7M13,131.4c0,2.6,1.1,10.2,4.9,8.3m44.9,38.8c1.5,1.5,4.6,2.7,6.7,3.6,2.9,1.2,5.8,3.1,8.8,3.7a62.859,62.859,0,0,0,17.9,1.4M59,184.4c1.5,2.2,5.1,3.3,7.3,4.5,10.3,5.7,21.1,7.5,32.8,6.7" transform="translate(-.862 -.787)" stroke-linecap="round" stroke-linejoin="round"/>
  <path fill="none" stroke="#000" d="M85.6,194.7c1.8-.8,5.6-1,6.3-3.3,0.1-.4-3.7-3.3-4.2-3.7m-9.8,5.5c-0.9-.7-4.5-3.3-4.8-4a8.7,8.7,0,0,1,1.4-.8,15.95,15.95,0,0,1,2.7-1.2c0.3-.1.5-0.2,0.8-0.3" transform="translate(-.862 -.787)" stroke-linecap="round" stroke-linejoin="round"/>
  <path fill="none" stroke="#000" d="M91.6,195.4a14.158,14.158,0,0,1,.4-2c0.4-1.6-.2-3.3-0.2-4.9m2.2,7.1a25.508,25.508,0,0,0,0-7.3m2.4,7.1c0.6-2.1,0-5.7-.5-7.7M72,191.8a17.755,17.755,0,0,1,1.5-7.1m-4.3,5.6a29.32,29.32,0,0,1,.7-7.2M64,187.5c0.7-.1,4.5-0.7,4.5-0.8,0.2-1-2.8-4.7-3.3-5.6" transform="translate(-.862 -.787)" stroke-linecap="round" stroke-linejoin="round"/>
  <path fill="none" stroke="#000" d="M61.1,185.7c0.6,0,4.3-.2,4.4-0.5,0-.1-2.5-4.2-2.4-4.6m20.3,13.7c1.4-1.7,1.1-4.4,1-6.3m-2.7,5.9a20.363,20.363,0,0,1,.2-6.5m-0.2,4.9a1.668,1.668,0,0,0,1.3.3m-1.2-3.3a2.046,2.046,0,0,1,1.7-.1m-60-77.9c-2,1.3-3.7-.8-5.4-1.5-1.8-.7-3,0.8-5.6-1.8-0.5-.5-1-2.2-0.4-2.8,0.3-.3,2.4.1,3,0.1,4.3-.7,4.2.5,7.6,2.2a14.527,14.527,0,0,1,3.2,1.8c1.5,1.5.6,11,0,13.1" transform="translate(-.862 -.787)" stroke-linecap="round" stroke-linejoin="round"/>
  <path fill="none" stroke="#000" d="M13.8,106.7a4.671,4.671,0,0,1,1,.5c1.8,1-.5-0.7.1-1.3,0.1-.1.8,1.9,1.1,1.7,0.3-.1-0.8-0.7-0.5-0.8m-0.3-1.9c-1.7-2.5-6.6-4.3-7.3-5.8-0.1-.3-1.4-2.3-0.9-2.6,0.4-.3,2.2.6,2.7,0.7,1.2,0.2,3,.2,4,0.9a20.67,20.67,0,0,1,8,7.8M13,102.3a5.638,5.638,0,0,0,1.2.4m0.9-.6a1.874,1.874,0,0,1-.7.6" transform="translate(-.862 -.787)" stroke-linecap="round" stroke-linejoin="round"/>
  <path fill="none" stroke="#000" d="M9.2,100c1.1,0.6,2.8,1.3,2.8.6,0-.3-0.5,0-0.8,0a1.388,1.388,0,0,0-.9,0,2.2,2.2,0,0,0,1.6,0m10,15.8c-1.7-1-.7-3.5-1.2-4.8m-4,5.9a11.16,11.16,0,0,1,1.8-4.2m4.6,16.3a3.8,3.8,0,0,1-1.3-1.8m-0.6,2.9c0.9,0.6-.7-0.6-0.6-0.7M4.3,111.1c-2.4.4-4,2.4-2.1,4.6,1.7,2.1,4.2,3.7,5.6,6.1,1,1.7,1.4,3.4,2.9,4.8,1.9,1.9,4.8,2.5,6.7,4.4a27.462,27.462,0,0,1,2.2,2.6M9.5,108.9c1.5,1,3.5,1.4,3.5,3.5a0.752,0.752,0,0,1-.5.7c-0.6.2-1.4-1-1.7-1.4-2-2.3-3-4.7-2.4-7.6a1.685,1.685,0,0,1,1.7-1.7c0.4-.1,2,0,1.4.3m-4.3,9.9a4.869,4.869,0,0,1,1.2-.1,4.671,4.671,0,0,1,1,.5c0.4,0.4.1,1.8-.5,1.9-0.5.1-3.5-3.6-3.8-4.2-0.6-1.1-.4-5.1,1.5-4.5" transform="translate(-.862 -.787)" stroke-linecap="round" stroke-linejoin="round"/>
  <path fill="none" stroke="#000" d="M4.4,116.8c0.7-1,1.2-.6,1.7-1.1,0.8-.8-0.3-2.9-0.8-3.4M5.6,118c0.7,0,1.9-.6,1.3-1.4m15.2,10.1a4.158,4.158,0,0,1-2.2-.2c-1.2-.7-4.4-3.6-4.6-5.1-0.1-.7.7-1.1,0.5-1.7-0.4-1.2-2.4-1.2-1.6-2.8a9.172,9.172,0,0,0,.9-2.3,2.177,2.177,0,0,0,.5-0.8c-0.5-.4-1.1.2-1.5,0.3m-7.6,4.7a2.7,2.7,0,0,0,1.1.5c0.2-.1.8-2.4,1.4-2.6a2.617,2.617,0,0,1,3,.8c0.2,0-.5-2.3-0.5-2.6m1.4-2.8c0.9,0.7,1.2.1,1.9-.7M87.3,54a14.959,14.959,0,0,0,5.4,5.2c4.8,3.2,7.8,7,14.1,4.5a9.908,9.908,0,0,0,1.7-1.1,13.947,13.947,0,0,0,2.7-2.1c3.5-4.1,4.8-10.3,3.9-15.6a25.492,25.492,0,0,0-1.8-5.3,29.929,29.929,0,0,1-2.4-7.7" transform="translate(-.862 -.787)" stroke-linecap="round" stroke-linejoin="round"/>
  <path fill="none" stroke="#000" d="M105.8,45.5c0.4-.6,1.9-0.8,2.2-1.5,0.7-1.8-2-3.2-2.7-4.5-2.4-4,1.3-7.6,4.5-9.7m-0.2,5.4-0.2.2" transform="translate(-.862 -.787)" stroke-linecap="round" stroke-linejoin="round"/>
  <path fill="none" stroke="#000" d="M108.3,35.7c4.3,2.2-.3,3-0.8,2-0.3-.7,3.2-3.3,3.7-3.8a0.2,0.2,0,0,0-.2.1M88.1,31.5c2.2,0,4,1.7,6,2a12.188,12.188,0,0,0,2.7,0h1.7M91,38.4a8.467,8.467,0,0,0,1.9,1.4c0.9,0.2,4.5.8,5.2,0.3a1.485,1.485,0,0,0,.4-1.4,2.383,2.383,0,0,0-.5-1.8l-0.1-.1h0a1.421,1.421,0,0,0-.6-0.2,0.864,0.864,0,0,0-.6.3c-0.4.7-.1,2-1.4,2a1.746,1.746,0,0,1-1.2-.4c-0.3-.4-0.6-0.9-0.9-1.4a6.69,6.69,0,0,0-1.9-1.4,2.177,2.177,0,0,0-.8-0.5c0,0.7,6.5,1.3,6.7,1.3M101.6,47c-3.1-1.5,1.1-3.6-.3-3m1.6,1.3c0.6-1.1,1.6-.6,1.2.5m1.8,1.3c2.5,0.4,3.6,3.1,6.4,2.7a0.517,0.517,0,0,0,.6-0.2c0.1-.2-4.9-1.3-4.8-1.6m-4.4-.8c-0.8.8-2,1-2.9,1.7-1.1.9-1.9,2.4-3.3,2.7a1.28,1.28,0,0,1-1.4-.6,0.55,0.55,0,0,1,.3-0.5,5.9,5.9,0,0,1,1.4-.2,9.438,9.438,0,0,0,2.8-1.5l0.9-.4m1.4,2.9-0.6-.3c1.5,0,2.8-1,4.4-.9M105,52.9a7.569,7.569,0,0,0,1.5.1c0.3,0,.9,0,0.9-0.3,0-.1-0.2,0-0.3,0h-0.9c-0.9,0-1.7-.6-2.5-0.6a0.876,0.876,0,0,0,.6.2A4.717,4.717,0,0,1,106,52m-0.7,5.2a7.388,7.388,0,0,0,2.1,0H107a16.2,16.2,0,0,1-2.2.1,2.092,2.092,0,0,1,.4-0.6,17.409,17.409,0,0,0,1.2-1.4,3.508,3.508,0,0,1-.5.8,4.968,4.968,0,0,1-1.9,1.3,0.536,0.536,0,0,1,.4-0.3,11.044,11.044,0,0,1,1.6-.3c0.1-.2-0.5-0.6-0.2-0.8a2.9,2.9,0,0,1,1.5.9c0,0.1-.3-0.3-0.3-0.2-1.1-1-.4-0.7-0.1,0,0.2,0.3.6,0.8,0.3,1-0.5.3-2.1-1.5-1.4-2.2m-0.5,6.3c-0.8-.3-1.7-0.8-2.5-1.1a3.81,3.81,0,0,0-1-.3c0,0.2.3,0,.5,0a7.366,7.366,0,0,1,1.4.4c2.8,0.8,4.4-1.6,6.8-2.6M104.1,64c-1.4-.8-2.8-1.5-4.1-2.3a11.6,11.6,0,0,1-2.1-1.6,1.67,1.67,0,0,0-.9-0.3c0.4,0.2.9,0.4,1.4,0.6,0.4,0.1.9,0.2,1.3,0.3M84.8,54.5a17.27,17.27,0,0,0,2-4.1c0.4-2.9-2.6-11.6-3.4-14.4" transform="translate(-.862 -.787)" stroke-linecap="round" stroke-linejoin="round"/>
  <path fill="none" stroke="#000" d="M83,50c-2.3,0-4.4-2.6-4.6-4.7-0.2-1.2.3-1.9,0.6-3s-0.6-2.8.3-3.8c1.3-1.3,4.8,2.6,5.1,3.4" transform="translate(-.862 -.787)" stroke-linecap="round" stroke-linejoin="round"/>
  <path fill="none" stroke="#000" d="M84.6,46.9a3.552,3.552,0,0,1-.4-0.9,2,2,0,0,1-.2-1.3c0-.5-0.2-1.7-0.9-0.9-0.2.2,0.6,0.2,0.9,0.3,0.4,0.3,1.2,1.1,1,1.6-0.2.9-3,1-3.6,0.6-1.4-.9.3-2,0.7-2.6a3.553,3.553,0,0,0-.2-1c-0.2-.6-0.6-1.2-0.8-1.8m4.3,13.6c0.9-1.8.2-4.3,0.2-6.3V46.8a0.535,0.535,0,0,0,0-.4c-0.1.5-.1,0.9-0.2,1.4a22.954,22.954,0,0,0,.2,3.7s0.1,1.2.3,0.9c0.3-.3,0-1.9,0-2.3A5.153,5.153,0,0,0,86,48m-0.1,8.1c1.1-.7,1.5-5.5,1.4-6.4" transform="translate(-.862 -.787)" stroke-linecap="round" stroke-linejoin="round"/>
  <path fill="none" stroke="#000" d="M86.2,55.7c0.6-.2.3-4.4,0.3-5.2v1.1c0,1.1-.4,2.3-0.1,3.3,0.1,0.3.2-.5,0.3-0.8a28.055,28.055,0,0,0,0-4.1c-0.2-.2-0.1.5-0.1,0.7l-0.3,1.5c-0.2,1.1-.6,2.1-0.9,3.2-0.1.3,0.4-2.5,0.4-2.4m23.6-22.5c2.3-1.5-1.6-4.9-2.1-6.5M106,21.8c0.3,0.6.9,1.1,1.2,1.7" transform="translate(-.862 -.787)" stroke-linecap="round" stroke-linejoin="round"/>
  <path fill="none" stroke="#000" d="M80.2,38.9c-0.6-.2-7.1-5.3-7.1-5.4-0.2-.7.8-2.5,0.7-3.5-0.1-.9-1-3.2-0.9-3.8,0,0,4.3-3.5,4.8-4.1,0.7-.9,1.1-3.5,1.3-3.7,0,0,1.6.6,1.7,0.6a29.857,29.857,0,0,0,7.9.1,23.653,23.653,0,0,0,9-2.8c0.8-.5,2.4-2.9,2.9-3,0.2-.1,1.9,1.8,2.1,2,1.1,0.7,7.6,3.6,7.8,3.9a42.736,42.736,0,0,1-1.3,4.8" transform="translate(-.862 -.787)" stroke-linecap="round" stroke-linejoin="round"/>
  <path fill="none" stroke="#000" d="M84.1,34.3c0.8-1.3,2.6-1.8,3.8-2.7,5.2-3.9,10.3-4.6,16.7-4.6,1.1,0,2.2.5,3.3,0.2m-27,10a21.269,21.269,0,0,1,7.5-11.9m-8.2,8.9c0.6-1.3,1-3.5,2.2-4.8M79,36.9a2.177,2.177,0,0,1-.5-0.8,12.5,12.5,0,0,1,.3-1.9c0.2-1.6.2-3.2,0.5-4.7,0.3-1.6,1.1-3.2,1.3-4.8V23.6M100.5,22a8.752,8.752,0,0,0-1.6.2,13.894,13.894,0,0,0-1.9.6c-2.8.7-.7,2.7,0.3,2.8,0.5,0.1,4.4-.6,4.4-0.9a6.963,6.963,0,0,0-1.1-2.3m-7.2-5c1.2,0,2.6,1.9,3.3,2.6m-4-2.1c-0.6-1.9-4-4.9-5.3-6.8m11,10.8a7.551,7.551,0,0,1-1.1-1.4" transform="translate(-.862 -.787)" stroke-linecap="round" stroke-linejoin="round"/>
  <path fill="none" stroke="#000" d="M75.8,23.4c-1.8-1.2-3.1-5-4.1-7-0.1-.3-0.6-0.7-0.4-1,0.1-.2,3.9-1.7,4.3-2a48.425,48.425,0,0,1,6.6-2.8c1.3-.5,2.3-1.5,3.8-1.9,2.2-.6,4.6.4,6.9,0.4,0.6,0,5-.6,5.1-0.3,0.1,0.2-.3,4.6,0,5m-11.7-8a17.4,17.4,0,0,0,1.8-3.3c0.1-.3-0.1-1.1.3-1.2a2.947,2.947,0,0,1,1.3.5,12.93,12.93,0,0,1,2.1.7,0.52,0.52,0,0,1-.2.4c-0.8,1.6-1.1,3.3-2.1,4.8m-9.3,3.5c-0.8-.5-5.2-1.3-7-2.4-0.5-.3.4-1.8,0.6-2.3,0.2-.4,0-2.2.5-2.3,0.2-.1.6,1,0.7,1.1a12.065,12.065,0,0,0,2.4,2.1c1,0.8,2,1.4,3,2.2M120,48.7c0.9-.5,4.2-6.3,4-6.8-0.4-1-2.7-2.3-3.5-3.2-0.8-.8-1.4-1.7-2.2-2.4a14.54,14.54,0,0,1-2.3-1.9,9.5,9.5,0,0,0-1-1.7,4.688,4.688,0,0,0-2.1-.6" transform="translate(-.862 -.787)" stroke-linecap="round" stroke-linejoin="round"/>
  <path fill="none" stroke="#000" d="M117.7,47.6c0.6-.6,3.2-4.6,3.1-5.1-0.4-1.8-4.1-3.2-4.5-5.1M115.5,55c1.3-.4,1.7-1.8,2.7-2.7,0.6-.5,2-1.1,2.2-1.8,0.1-.3-0.5-0.3-0.8-0.4-0.9-.6-1.8-1.4-2.7-2.1m-1.6-5.5c-0.3-1.9-1.9-3.4-2.2-5.2-0.1-.6,1.4-1.7,1.4-2.3M80.4,49.7c-1.8.9-2.5,2.3-3.8,3.8-0.5.5-1.1,0.8-1.5,1.3-0.5.5-1.3,2-2.1,2a27.881,27.881,0,0,1-.9-3.4c-0.5-1.4-.7-2.8-1.2-4.2s-2.8-6-2.5-7.3c0.5-1.9,3.9-3.5,4.2-5.4" transform="translate(-.862 -.787)" stroke-linecap="round" stroke-linejoin="round"/>
  <path fill="none" stroke="#000" d="M77.6,37.5c0.7,0.2-.4,1.6-0.3,2.2,0.1,0.5.7,0.5,0.8,0.9,0.3,1.3-.1,3.1.1,4.5,0.1,0.7,1,2.1.6,2.8-0.5.9-3.3,2.9-4.2,3.4a4.129,4.129,0,0,1-1.1.7c-0.6-.4-1-3.7-1.1-4.4a13.77,13.77,0,0,0-.9-3.9,0.764,0.764,0,0,1-.2-0.5,4.7,4.7,0,0,1,1.2-.9c1.6-1.3,2.7-3.6,3.6-5.4" transform="translate(-.862 -.787)" stroke-linecap="round" stroke-linejoin="round"/>
  <path fill="none" stroke="#000" d="M71.7,43.5a13.047,13.047,0,0,0,.5-3.7s-0.5.6-.6,0.7a2.573,2.573,0,0,1-1.5-.1,2.445,2.445,0,0,1,1.1-.9,9.25,9.25,0,0,1,1-.5,12.1,12.1,0,0,0,2.5-2.1m36.7,27.7c0.4-.2,1-0.1,1.5-0.3,1.5-.8,3-1.7,4.5-2.5" transform="translate(-.862 -.787)" stroke-linecap="round" stroke-linejoin="round"/>
  <path fill="none" stroke="#000" d="M89.6,58.1c-3.9,1-2-.8-5.3,2.5a13.029,13.029,0,0,0,1,1.5c1.3,1.6,3.2,2.7,4.8,4.1,5.1,4.6,9.3,3.8,15.2,1.7a14.491,14.491,0,0,0,3.5-1.2c2.6-1.8,3.2-.6,4.1-4.2,0.2-.9.8-1.7,0.4-2.7M85.1,60c0-1.5-1-3.2-1.6-4.5" transform="translate(-.862 -.787)" stroke-linecap="round" stroke-linejoin="round"/>
  <path fill="none" stroke="#000" d="M84.7,60.8a37.34,37.34,0,0,1-5.6-2,1.986,1.986,0,0,1-.1-1.1,6.929,6.929,0,0,1-.3-2c0.3-1.2,2.1-1.6,3-1.6,0.4,0,.9-0.1,1.3-0.1m8.6,15c0.9,0.6,1.5,2,2.2,2.7,0.8,0.9,3.3,3.2,4.4,3.6a1.012,1.012,0,0,0,.7-0.4,31.833,31.833,0,0,1,4-2.3c0.8-.5,1.3-1.2,2.1-1.7,1.2-.9,4.5-2,3.9-4" transform="translate(-.862 -.787)" stroke-linecap="round" stroke-linejoin="round"/>
  <path fill="none" stroke="#000" d="M93.5,69.2a2.836,2.836,0,0,0,1,.9c1,0.3,2,.3,2.9.6a2.01,2.01,0,0,0,.8.4c1,0,2.3-1,3.3-.3M77.2,59.7a3.178,3.178,0,0,0,.3.9c1.2,1.6,7.4,5.8,8.7,6.5a18.659,18.659,0,0,0,2.2.7" transform="translate(-.862 -.787)" stroke-linecap="round" stroke-linejoin="round"/>
  <path fill="none" stroke="#000" d="M90.9,67.2c0.8-.2.2,1.6,0.3,2.3,0.1,0.4,1,2.7.8,2.9s-3.1-2.3-3.4-2.6a29.494,29.494,0,0,1-3.9-3.1M103.8,75a6.579,6.579,0,0,0,1.5-.4c1.4-.8,2.6-1.7,4-2.4,0.4-.2,1.5-0.3,1.7-0.9a1.486,1.486,0,0,0-.2-0.9c-0.1-.9.4-2,0.1-2.6-0.5-1,6.2-5.9,7-5.8" transform="translate(-.862 -.787)" stroke-linecap="round" stroke-linejoin="round"/>
  <path fill="none" stroke="#000" d="M111.2,70.4c1.6-.4,6.6-6.2,7.2-7.1a4.714,4.714,0,0,0,.6-1.5M95.7,63.1c-0.7-.3-1.4-0.5-2.1-0.8l-1.3-.7c-0.1.1,0.2,0.1,0.3,0.2,0.4,0.2.7,0.6,1.1,0.8a37.111,37.111,0,0,0,5.5,2.2,7.613,7.613,0,0,0,2.1.3m7-2.4a6.468,6.468,0,0,1,1.3-.4,3.128,3.128,0,0,0,1-.5c2.2-1.1-1.3,3.4-1.1,3.5,0.9,0.6,3-3.6,3.2-3.9,0.5-.8,1.1-1.4,1.5-2.2,0.3-.5.8-2.6,0.6-2.5m-11.2,6.2a10.679,10.679,0,0,0,2.5-.3c0.8-.3,4.5-2.4,3.9-3.4-0.2-.3-0.6.4-0.7,0.5a7.231,7.231,0,0,1-2.2,1.7c-0.5.2-2.2,0.5-2.5,0.9-0.5.6,2.9-1.5,2.5-1.1m-1.8,3.7c-2-1-4.3-1.7-6.2-3m6.7,1.1c-1.5-.4-2.7-1.5-4-2.1M77.5,57.7c-1.3.3,1.5,2.2,1.5,1.7,0-.2-2.6-0.6-2.8-0.9a9.652,9.652,0,0,1,0-1.7c-0.1-.3-0.4-0.6-0.5-0.9s1-1.1,1.2-1.3a11.009,11.009,0,0,1,2.9-2.8c0.3-.1.6-0.3,0.9-0.4l0.9-.9c0.4,0,1.6,3.3,1,3.9m32.9,0.7c0.6-.6,2.2-2.8,2.1-3.6-0.2-.7-0.9-1.7-0.7-2.4,0.1-.2.9,0.8,0.9,0.9,0.1,0.4-.4,1.7-0.4,1.3,0-.6,1.5.5,0.1-0.4M85.3,56.1a9.13,9.13,0,0,1,1.3.8,6.034,6.034,0,0,1,.8.8,0.53,0.53,0,0,0,.2.3c0.1,0-2.4-4.8-2-3.1m-3.4-4.2,0.2,0.1M73.3,34.2c0.6,0-.3.9-0.3,1.2" transform="translate(-.862 -.787)" stroke-linecap="round" stroke-linejoin="round"/>
</svg>
