<svg xmlns="http://www.w3.org/2000/svg" viewBox="0 0 167 250">
    <g fill="none" fill-rule="evenodd" stroke="#000" stroke-linecap="round" stroke-linejoin="round">
        <path d="M50.283195,59.5145228 C47.5062241,60.5798755 44.8807054,62.6006224 45.9263485,65.7385892 M48.8226141,67.7385892 C46.2510373,72.6410788 46.2510373,78.1659751 52.4616183,81.2966805 M55.8848548,78.1680498 C52.5778008,79.5850622 52.93361,82.8454357 54.3288382,83.7748963 M56.9636929,83.0829876 C53.7987552,86.9429461 51.9149378,98.5549793 57.9087137,100.987552 M51.5726141,79.6244813 C50.8827801,80.9118257 51.2261411,83.2925311 50.7593361,84.6919087 M49.4315353,87.5425311 C48.7053942,90.3858921 49.7427386,92.2251037 51.6576763,94.1358921 M64.0746888,92.8516598 C67.7697095,93.909751 71.8070539,93.0591286 75.2925311,91.5674274 M66.3869295,83.7748963 C66.8367511,83.8876293 67.3074397,83.8876293 67.7572614,83.7748963 M73.8371369,83.1753112 C74.3637793,83.0298385 74.9277705,83.1239636 75.3786307,83.4325726 M83.343361,78.6369295 C84.3939358,80.7349139 84.9227335,83.0554319 84.8848548,85.4014523 M82.0580913,87.4574689 C84.0850622,89.1058091 86.4491701,88.8278008 85.8257261,92.2520747 M54.9118257,64.8215768 C58.2158683,64.583107 61.5298966,65.1205842 64.5892116,66.3910788 M73.2966805,68.3724066 C75.94338,65.3038785 80.1369241,64.061422 84.0280083,65.1929461 M54.7406639,69.9875519 C56.6556017,67.7396266 62.8962656,68.2520747 63.0394191,68.8412863 C63.0871369,69.0311203 61.1068465,69.7012448 60.9284232,69.9875519 C59.2365145,72.7209544 58.1618257,68.3713693 60.3879668,69.3879668 M79.0612033,67.9917012 C83.7707469,66.219917 78.6327801,63.780083 78.6327801,68.3724066 M57.909751,72.4740664 C59.7395336,71.3056186 61.9699264,70.942767 64.0757261,71.4709544 M75.1224066,69.813278 C77.1970954,69.3921162 79.4004149,69.6784232 81.4595436,69.3848548 M73.2966805,59.9688797 C80.0041494,53.626556 91.8578838,58.2354772 92.6224066,67.4149378 M86.596473,62.0238589 C89.0297371,65.1830572 90.2998761,69.084329 90.1929461,73.0705394 M86.6825726,73.9273859 C89.1473029,76.3910788 90.8475104,84.5612033 89.4232365,87.8858921 M54.9128631,55.8578838 C55.8492212,56.9343287 56.9470087,57.8588918 58.1670124,58.5985477 M60.9346473,49.4636929 C64.0757261,52.9232365 59.4616183,57.1794606 64.5892116,59.9678423 M70.5840249,53.2894191 C69.0197095,53.7271784 67.6919087,57.8112033 68.3578838,60.1358921 M73.6659751,54.3879668 C74.1473029,53.343361 75.3713693,52.1006224 76.0155602,52.2614108 M79.4896266,52.1784232 C80.1664288,52.2978692 80.8636928,52.1767654 81.4605809,51.8360996 M43.6939834,54.060166 C43.1109959,55.0975104 42.9139004,55.8329876 41.8952282,55.686722 M45.6919087,48.3226141 C43.689834,49.846473 40.0549793,51.9533195 38.6379668,53.9740664 M43.0954357,46.9522822 C42.2064315,47.7147303 40.1130705,49.0155602 39.2417012,49.7790456 M44.0207469,44.2676349 C42.4248891,44.0855637 40.8562904,44.7858097 39.9263485,46.0954357 M49.5612033,46.9522822 C50.4657676,47.6846473 52.7997925,48.6939834 53.7987552,48.4045643 M54.7406639,52.3475104 C55.7593361,53.4180498 56.7385892,52.7624481 57.909751,52.2624481 M60.3931535,44.2116183 C61.2593361,45.3641079 62.9159751,45.7676349 64.246888,46.2665975 M66.6441909,45.3246888 C68.7987552,45.596473 70.4688797,46.0290456 69.0414938,48.4076763 M47.8454357,44.2676349 C49.4450207,44.2676349 50.3174274,45.0975104 51.9149378,44.9823651 M46.2551867,41.2997925 C48.8267635,40.186722 49.7665975,43.526971 53.5394191,43.0124481 M44.2935685,80.1784232 C44.1358921,82.1711618 43.2302905,86.4024896 45.9201245,86.9429461 M45.4927386,90.3682573 C45.3298755,94.6047718 48.4408714,96.4315353 52.3392116,96.1058091 M41.9813278,74.6981328 C41.2302905,76.0674274 39.4917012,79.9626556 41.2956432,80.8641079 M41.8983402,67.0767635 C39.6670124,69.6701245 39.4087137,73.1379668 38.5580913,76.3246888 M38.060166,60.2251037 C37.7904564,60.9854772 40.8931535,63.0456432 40.8682573,63.1960581 C40.503112,65.3848548 38.0912863,67.0560166 37.7852697,70.4149378 M40.2479253,58.5985477 C40.7077038,59.196497 41.2319589,59.7419728 41.8112033,60.2251037" />
        <path d="M38.6421162,44.2676349 C35.5155602,46.0155602 35.2489627,58.7738589 34.5072614,59.5165975 C33.276971,60.7479253 27.8682573,59.5165975 28.1089212,66.8215768 C28.2977178,72.5394191 36.6473029,74.0134855 38.813278,79.0674274 M32.6659751,65.3630705 C31.3008299,69.719917 32.6659751,72.6421162 34.5041494,73.9263485 M68.1815353,40.4896266 C68.1815353,37.1358921 71.4139004,34.746888 73.6670124,35.6483402 M70.5290456,40.3226141 C71.2452932,40.2135237 71.9328147,39.963548 72.5518672,39.5871369 M72.5529046,42.2427386 C73.6348548,40.7074689 74.7894191,39.2344398 76.4948133,38.9885892 M76.4917012,43.4543568 C77.1723884,43.0442304 77.889047,42.6970121 78.6327801,42.4170124 M80.5124481,41.8267635 C81.406639,40.1275934 83.0892116,38.3060166 84.8838174,39.5881743 M83.343361,43.0674274 C83.9481328,42.810166 85.5995851,42.0643154 86.1690871,41.8226141 M84.4678423,44.9937759 C85.0478809,45.8062342 85.8052589,46.4759905 86.6825726,46.9522822 M86.1690871,48.4076763 C88.3319502,47.6939834 89.2385892,49.0466805 90.5549793,50.6275934 M88.2282158,49.7780083 C90.5539419,61.0560166 98.4979253,52.7292531 98.4979253,69.3838174 M51.5726141,100.987552 C57.3122407,106.78527 65.846473,107.29668 72.5529046,104.788382 M94.3039419,69.9875519 C95.0608439,71.7968434 95.6903179,73.6568419 96.1877593,75.5539419 M91.6493776,82.4906639 C93.6763485,83.8858921 94.469917,84.7147303 93.4470954,87.3713693 M47.2074689,98.7551867 C46.1701245,99.4553942 43.6939834,102.437759 44.6317427,105.135892 C45.6690871,108.119295 49.3350622,105.91805 49.1960581,106.219917 C48.6410788,107.46473 40.3651452,112.697095 43.4470954,115.854772 C43.8869295,116.306017 48.2603734,113.127593 48.8174274,112.835062 C51.906639,111.209544 53.2883817,111.124481 56.5342324,110.241701 M40.2479253,117.392116 C22.8786307,121.678423 30.973029,128.745851 28.4159751,134.715768 C27.5985477,136.623444 24.8340249,137.686722 24.8340249,140.298755 C24.8340249,142.477178 28.9585062,141.894191 28.9585062,144.423237 C28.9585062,148.584025 24.5829876,151.614108 28.4159751,157.665975 M29.7178423,151.801867 C34.1784232,145.96473 39.8309129,142.212656 46.2510373,146.226141 M28.4128631,157.662863 C27.5340634,158.476817 27.0246731,159.613581 27.0020747,160.811203 C27.0020747,162.141079 27.5103734,164.026971 26.7748963,165.119295 C22.2728216,171.8361 5.15041494,174.487552 1.27593361,181.434647 C0.691165752,182.84203 0.431262763,184.363154 0.515560166,185.884855 M31.7811203,158.09751 C33.2956432,157.744813 36.8060166,152.260373 38.5560166,153.311203 C40.0674274,154.217842 37.7852697,159.729253 37.7852697,161.282158 C37.7852697,163.564315 39.2251037,163.745851 39.813278,165.804979 C40.3630705,167.729253 38.6815353,170.004149 37.9688797,171.667012 C37.4595436,172.853734 39.2282158,174.815353 39.4885892,176.11722 C39.6960581,177.16805 34.5674274,180.879668 33.7354772,181.544606" />
        <path d="M46.7603734,158.747925 C43.8454357,164.5 48.2582988,180.61722 42.9616183,184.14834 C40.3983402,185.856846 34.2894191,185.415975 33.1919087,188.712656 C31.3661826,194.187759 34.8143154,195.259336 36.0134855,199.458506 C37.2914938,203.931535 36.5570539,208.794606 38.0757261,213.352697 C39.0943983,216.406639 46.7821577,219.174274 49.5819502,227.572614 M56.9636929,118.585062 C51.9149378,125.411826 53.4263485,139.514523 51.9149378,144.553942 C51.4585062,146.076763 49.4087137,149.543568 47.8454357,149.767635 M67.4937759,112.832988 C64.6390041,120.572614 60.4657676,128.001037 58.2676349,136.062241 C57.4325726,139.124481 57.8080913,142.556017 56.9647303,145.502075 M53.5363071,150.432573 C52.2914938,161.784232 55.8962656,173.628631 58.8080913,184.309129 C59.5912863,187.179461 62.2946058,192.178423 62.503112,193.756224 M64.0197095,144.311203 C62.7105809,146.776971 63.0155602,149.873444 63.2593361,152.560166 C63.7437759,157.890041 67.7458506,172.315353 69.5549793,177.743776 C70.0072614,179.10166 70.81639,182.661826 72.2686722,180.240664 M69.7728216,124.121369 C72.2697095,144.311203 77.1628631,146.689834 77.6908714,151.801867 C78.6327801,160.912863 83.7966805,166.337137 85.9273859,174.862033 M75.5259336,116.414938 C75.1441009,119.90566 75.4017702,123.436749 76.2863071,126.835062 C77.379668,130.660788 91.7541494,162.297718 93.8941909,164.971992 M81.4585062,107.29668 C82.5860996,108.906639 85.7302905,112.510373 86.8143154,114.135892 M87.7914938,122.710581 C92.93361,126.076763 95.7323651,132.08195 99.7697095,136.852697 C102.985477,140.651452 105.895228,142.904564 108.404564,147.553942 M90.1939834,107.29668 C92.1348548,108.16805 95.3910788,110.174274 96.5840249,111.96473 C99.189834,115.874481 101.799793,120.819502 104.419087,124.747925 C111.326763,135.109959 117.630705,144.554979 125.022822,154.51971 M101.467842,101.720954 C103.994813,106.344398 110.003112,107.811203 113.129668,111.979253 C117.494656,117.86245 121.468294,124.026147 125.024896,130.430498 C127.26971,134.357884 129.237552,138.625519 131.950207,142.239627 C133.560166,144.384855 135.903527,145.938797 137.11722,148.365145" />
        <path d="M91.156639,94.1618257 C95.3008299,100.089212 103.618257,95.6078838 109.067427,98.7261411 C111.521415,100.31535 113.798524,102.162285 115.859959,104.235477 C118.177386,106.552905 121.334025,107.773859 123.978216,109.697095 C126.806017,111.754149 129.717842,117.877593 132.096473,120.473029 C138.009336,126.923237 142.177386,130.18361 148.334025,136.344398 C150.582988,138.593361 152.736515,144.511411 155.309129,146.38278 C159.510373,149.437759 162.951245,152.320539 165.512448,156.802905 M56.3526971,214.604772 C55.6016598,227.860996 70.5290456,236.059129 70.5290456,249.181535 M33.8195021,80.56639 C34.8070539,84.0197095 38.5591286,85.6919087 41.8008299,86.340249 M42.6493776,91.6037344 C43.5570539,92.4533195 44.3578838,93.4813278 45.1960581,94.3205394 M40.2479253,27.5871369 C38.5010373,31.6524896 39.2354772,32.1016598 41.8039419,31.7365145 C42.8350622,31.5923237 41.2676349,34.6348548 41.8143154,35.3672199 C42.6607884,36.4958506 45.0560166,35.1016598 45.879668,36.246888 C47.8506224,38.9875519 40.4107884,40.0912863 39.2572614,40.3226141 M66.3869295,36.343361 C66.3869295,32.3423237 72.8952282,27.0809129 70.1576763,23.3423237 M50.283195,24.4636929 C52.4481328,25.8578838 51.216805,30.9253112 53.5363071,30.4149378 M56.3246888,24.4636929 C57.253112,26.5570539 55.8848548,27.5871369 56.3246888,29.5860996 M62.503112,23.7977178 C61.6292392,24.9288423 61.4392996,26.4455771 62.0072614,27.7572614 M46.2551867,30.4149378 C48.7966805,33.5954357 52.3755187,36.7178423 54.0497925,40.4896266 M54.9118257,33.4885892 C56.2848645,35.8420742 57.2955137,38.3889801 57.909751,41.0435685 M61.6317427,32.3412863 C61.3859693,34.3621585 61.3574524,36.4035491 61.5466805,38.4304979 M54.3288382,0.518672199 C52.0352697,1.71161826 51.9149378,6.5186722 49.5829876,8.49896266 C48.9709544,9.01763485 46.689834,9.38589212 45.9211618,9.60580913 C44.3558091,10.0529046 43.4522822,15.7821577 41.9792531,17.0041494 C40.4387967,18.2842324 39.7313278,17.6607884 38.8962656,18.3526971 C38.7261411,18.4948133 35.1462656,22.4813278 35.1462656,22.5435685 C35.4075227,22.8866241 35.7661449,23.1429377 36.1753112,23.2790456 C39.3236515,25.25 40.5176349,24.1618257 44.1161826,24.1618257 C49.5394191,24.1618257 65.9917012,24.0051867 69.7697095,22.1763485 C71.436722,21.3692946 75.1192946,16.3931535 75.3713693,14.5 C75.4751037,13.7676349 67.810166,9.31327801 67.4211618,8.53215768 M54.9118257,0.518672199 C57.909751,3.37759336 63.3039419,13.68361 66.7676349,9.53215768 M48.7448133,13.5093361 C50.6286307,20.4139004 48.8775934,17.9481328 47.2064315,23.7977178 M43.4543568,19.2759336 C44.8443983,19.373444 47.8340249,19.0186722 49.1213693,19.533195 M54.3288382,10.4875519 C55.2012448,12.2697095 55.0020747,15.7780083 55.8848548,17.6939834 M57.2510373,16.370332 C60.6522325,16.391755 64.0513075,16.1952947 67.4273859,15.7821577 M70.6649378,11.8848548 C67.3039419,14.6483402 68.3360996,18.5767635 67.1379668,22.1794606 M62.503112,10.4875519 C61.9922095,12.4048486 61.7691632,14.3874435 61.8412863,16.370332 M90.5497925,57.1794606 C94.8921162,68.3371369 91.6711618,79.4522822 87.5414938,89.7655602 C86.75,91.7437759 87.503112,93.5943983 85.9190871,95.1763485 C85.3609959,95.7344398 82.7946058,98.8858921 82.0497925,98.4387967 C81.4450207,98.0757261 80.6794606,94.936722 80.6794606,95.6379668 C80.6794606,100.319502 76.4139004,99.8246888 73.2873444,102.430498 M47.6141079,77.526971 C46.7385892,79.906639 46.6804979,82.1483402 48.8952282,83.7012448" />
    </g>
</svg>
