<svg id="Layer_1" data-name="Layer 1" xmlns="http://www.w3.org/2000/svg" viewBox="0 0 292.457 605.741"><title>gaoqiu-regular</title><g id="_2" data-name="2"><path d="M120.3,54.616c-0.519-.519-6.513,6.785-3.674,3.946" fill="none" stroke="#a2fac6" stroke-linecap="round" stroke-linejoin="round" stroke-width="2"/><path d="M121.658,54.071a0.143,0.143,0,0,1,.009-0.044s0.007,0.008.007,0.012c0,0.043,0,.088,0,0.131l-0.014.23" fill="none" stroke="#a2fac6" stroke-linecap="round" stroke-linejoin="round" stroke-width="2"/><path d="M176.09,54.207a30.529,30.529,0,0,1,1.6,4.262" fill="none" stroke="#a2fac6" stroke-linecap="round" stroke-linejoin="round" stroke-width="2"/><path d="M177.723,55.024a14.008,14.008,0,0,1,1.9,4.048" fill="none" stroke="#a2fac6" stroke-linecap="round" stroke-linejoin="round" stroke-width="2"/><path d="M123.7,49.853a49.267,49.267,0,0,1,11.567-6.532c9.17-3.439,26.148-1.347,34.292,4.083,2.324,1.549,3.36,4.175,5.307,6.123" fill="none" stroke="#a2fac6" stroke-linecap="round" stroke-linejoin="round" stroke-width="2"/><path d="M125.6,18.146c-1.433,1.011-2.765,2.156-4.11,3.279" fill="none" stroke="#a2fac6" stroke-linecap="round" stroke-linejoin="round" stroke-width="2"/><path d="M121.94,44.788l-0.282,1.527c-0.368,1.718.336,3.647-.68,5.171" fill="none" stroke="#a2fac6" stroke-linecap="round" stroke-linejoin="round" stroke-width="2"/><path d="M120.978,53.255c-1.153,2.568,1.033-1.905,1.905-1.905,0.568,0-.49,2.308-0.545,2.449l-0.045.109" fill="none" stroke="#a2fac6" stroke-linecap="round" stroke-linejoin="round" stroke-width="2"/><path d="M129.823,17.6c4.535-.42,9.239.859,13.744,0.408,1.9-.19,3.913-0.731,5.851-0.408a42.882,42.882,0,0,0,9.8.136,35.7,35.7,0,0,1,6.668-.136,103.383,103.383,0,0,0,12.792.68" fill="none" stroke="#a2fac6" stroke-linecap="round" stroke-linejoin="round" stroke-width="2"/><path d="M179.492,20.187c-0.1.965,8.308,11.812,8.3,11.839-0.1.39-6.077,6.56-6.668,7.348-0.708.944-.443,3.438-0.68,4.627-1.012,5.055-1.769,5.508-1.769,11.158" fill="none" stroke="#a2fac6" stroke-linecap="round" stroke-linejoin="round" stroke-width="2"/><path d="M128.19,17.6c1.5-.043-2.256.272-2.722,0.272" fill="none" stroke="#a2fac6" stroke-linecap="round" stroke-linejoin="round" stroke-width="2"/><path d="M121.794,20.731c-0.516.38-6.985,7.874-6.94,8.029,0.245,0.858,2.039,1.223,2.722,1.769a10.429,10.429,0,0,1,1.436,1.444" fill="none" stroke="#a2fac6" stroke-linecap="round" stroke-linejoin="round" stroke-width="2"/><path d="M119.753,33.251c1.185,1.239,1.558,2.982,2.313,4.491" fill="none" stroke="#a2fac6" stroke-linecap="round" stroke-linejoin="round" stroke-width="2"/><path d="M119.345,33.388c0.114-.788-0.532-2.4-0.136-0.817" fill="none" stroke="#a2fac6" stroke-linecap="round" stroke-linejoin="round" stroke-width="2"/><path d="M121.794,40.328c0,1.754-.975,5.432-0.68,5.579a15.034,15.034,0,0,0,.408-2.314,51.255,51.255,0,0,0,.408-5.579" fill="none" stroke="#a2fac6" stroke-linecap="round" stroke-linejoin="round" stroke-width="2"/><path d="M130.775,7.4A15.692,15.692,0,0,0,133.5,7.26c3.774-.6,6.353-6.26,6.8-6.26,1.637,0,3,1.942,4.49,2.313a64.481,64.481,0,0,0,9.39,1.5A77.1,77.1,0,0,0,166.7,3.722c1.2-.3,4.135-2.048,4.49-1.905,1.229,0.491,4.419,3.874,5.579,5.034,0.611,0.611,3.675,2.213,3.675,3.13,0,0.318-2.681,1.667-3.13,2.041a22.364,22.364,0,0,0-3.946,5.035" fill="none" stroke="#a2fac6" stroke-linecap="round" stroke-linejoin="round" stroke-width="2"/><path d="M130.231,9.029c1.411,2.4,3.946,5.478,3.946,8.436" fill="none" stroke="#a2fac6" stroke-linecap="round" stroke-linejoin="round" stroke-width="2"/><path d="M148.193,11.478c0.979,0.31,1.553,1.184,2.45,1.633" fill="none" stroke="#a2fac6" stroke-linecap="round" stroke-linejoin="round" stroke-width="2"/><path d="M144.927,13.111c1.9,1.106,4.155,2.114,5.716,3.674" fill="none" stroke="#a2fac6" stroke-linecap="round" stroke-linejoin="round" stroke-width="2"/><path d="M152.82,8.757c-0.2,1.414.32,2.984-.136,4.354" fill="none" stroke="#a2fac6" stroke-linecap="round" stroke-linejoin="round" stroke-width="2"/><path d="M155.814,9.709c-0.742,2.138.025,4.688-.681,6.8" fill="none" stroke="#a2fac6" stroke-linecap="round" stroke-linejoin="round" stroke-width="2"/><path d="M159.9,11.75c-1.06,1.4-2.567,2.354-3.538,3.81" fill="none" stroke="#a2fac6" stroke-linecap="round" stroke-linejoin="round" stroke-width="2"/><path d="M162.481,13.519a15.982,15.982,0,0,0-4.626,4.9" fill="none" stroke="#a2fac6" stroke-linecap="round" stroke-linejoin="round" stroke-width="2"/><path d="M114.446,111.633c0.013,1.236-4.8,6.686-2.858,5.715" fill="none" stroke="#a2fac6" stroke-linecap="round" stroke-linejoin="round" stroke-width="2"/><path d="M117.848,113.4c-1.2,1.933-10.276,9.927-9.8,11.839,0.6,2.407,8.391,6.862,10.75,7.076,1.818,0.165,3.655-.175,5.444.272,1.991,0.5,1.365,4.355,2.993,4.627a1.908,1.908,0,0,0,.817-0.408,67.393,67.393,0,0,1,8.164-.545c7.19,0,20.121.014,26.808-1.769,2.381-.635,4-2.611,6.123-3.674,1.316-.657,3.383.564,4.491-0.544,1.606-1.606.8-3.592,1.361-5.443,1.623-5.412,2.88-3.607.952-9.39-0.819-1.822-2.261-3.136-2.914-5.054" fill="none" stroke="#a2fac6" stroke-linecap="round" stroke-linejoin="round" stroke-width="2"/><path d="M113.765,106.6c-1.494,1.262-3.374,1.881-5.034,2.858-2.985,1.755-6.066,3.791-9.39,4.9-9.293,3.1-18.742,2.3-26.671,8.981-1.479,1.246-3.293,2.116-4.627,3.538a41.726,41.726,0,0,0-2.857,3.946c-7.4,10.046-12.225,21.287-18.1,32.252-3.608,6.736-7.583,13.568-11.7,20-3.108,4.857-6.661,9.238-9.253,14.424" fill="none" stroke="#a2fac6" stroke-linecap="round" stroke-linejoin="round" stroke-width="2"/><path d="M177.587,105.918a9.384,9.384,0,0,0,1.5,1.361c1.911,1.092,3.121.678,5.035,1.088a18.87,18.87,0,0,1,2.585,1.225c4.011,1.542,8.3,2.248,12.383,3.538,4.806,1.518,8.629,4.178,13.064,6.4,5.248,2.624,10.3,4.585,14.56,8.845,6.047,6.047,5.626,16.171,9.117,23.541,4.007,8.46,7.971,17.123,12.519,25.311a69.522,69.522,0,0,1,3.81,6.8c1.421,3.411,2.181,7.222,3.266,10.751,2.4,7.793,5.1,15.48,7.076,23.405" fill="none" stroke="#a2fac6" stroke-linecap="round" stroke-linejoin="round" stroke-width="2"/><path d="M119.481,49.036c-2.274.579-4.517-.48-6.8-0.272-2.867.261-5.7,0.963-8.573,1.225-5.3.482-10.424-.917-15.649-1.225-5.627-.331-11.235-1.008-16.874-1.36-3.524-.221-7.1.157-10.614-0.137-5.171-.431-10.312-1.088-15.512-1.088-4.982,0-9.96-2.123-14.969-1.5a25.874,25.874,0,0,0-2.994.816c-0.311.078-.952-0.184-0.952,0.137a3.669,3.669,0,0,0,.952.816c3.615,3.616,12.238,4.082,17.01,4.082,4.665,0,9.366-.122,14.016.136,3.752,0.209,7.52,1.183,11.294,1.5,8.623,0.719,17.364-.344,25.991.272,7.883,0.564,15.636.953,23.542,0.953" fill="none" stroke="#a2fac6" stroke-linecap="round" stroke-linejoin="round" stroke-width="2"/><path d="M120.978,50.261c-2.141-1.1.282-.314-0.409-0.544" fill="none" stroke="#a2fac6" stroke-linecap="round" stroke-linejoin="round" stroke-width="2"/><path d="M182.538,57.455c1.044,0.038,1.79.906,2.791,1.073,2.706,0.451,11.879,1.136,14.38.859a39.046,39.046,0,0,1,4.293-.43c5.236,0,10.671.434,15.883,0a51.885,51.885,0,0,1,8.37-.429c2.942,0.226,5.761.152,8.585,0.859,3.083,0.771,7.9-.215,11.161-0.215,7.138,0,14.294.43,21.463,0.43,3.12,0,6.79-.514,9.874,0,2.518,0.419,4.733,2.512,7.3,2.146,6.212-.887,5.853-8.487,2.146-9.229" fill="none" stroke="#a2fac6" stroke-linecap="round" stroke-linejoin="round" stroke-width="2"/><path d="M283.414,52.3c-3.554.22-6.561,2.071-10.087,2.576-3.582.511-7.308-.174-10.731-0.859-2.706-.541-13.915-0.215-17.385-0.215-2.468,0-5.723,1.229-7.941.859-2.658-.443-5.838-1.2-8.585-0.859a13.226,13.226,0,0,1-3.22.43c-3.262-.408-5.646-1.073-9.229-1.073-1.935,0-4.334-.379-6.224,0-1.945.388-3.99,1.111-6.01,0.859-0.78-.1-1.368-0.748-2.147-0.859a98.616,98.616,0,0,0-10.3-.215c-1.472.211-3.029,0.859-4.507,0.859-2.611,0-7.758-.7-9.874,0" fill="none" stroke="#a2fac6" stroke-linecap="round" stroke-linejoin="round" stroke-width="2"/><path d="M180.82,57.884c-4.61.516,2.812,1.561,0,.859" fill="none" stroke="#a2fac6" stroke-linecap="round" stroke-linejoin="round" stroke-width="2"/><path d="M182.109,59.171c-4.384-.689-0.772.129,1.287-0.214,0.224-.037.8-0.055,0.644-0.214-0.826-.825-3.2.181-3-0.214,0.4-.8,1.768-0.413,2.36-0.215" fill="none" stroke="#a2fac6" stroke-linecap="round" stroke-linejoin="round" stroke-width="2"/><path d="M98.4,119.054c-1.057,2.067-6.037,10.541-4.507,13.093,0.99,1.649,10.151,6.854,12.234,8.156,2.271,1.42,4.538,2.747,6.868,4.078,2.294,1.311,4.131,3.561,6.654,4.507,7.992,3,20.781,3.2,29.189,2.36,1.275-.128,2.585.1,3.863,0,7.648-.587,17.234-1.37,24.039-5.15,2.325-1.292,9.962-10.621,11.375-13.093,0.68-1.19,1.75-2.214,2.36-3.434,0.618-1.235,1.279-12.467.859-13.307a7.389,7.389,0,0,0-.643-0.644c-0.479-.719-0.051-1.6-0.43-2.361" fill="none" stroke="#a2fac6" stroke-linecap="round" stroke-linejoin="round" stroke-width="2"/><path d="M98.832,117.122c2-3.967-.562,1.685-0.859,2.575" fill="none" stroke="#a2fac6" stroke-linecap="round" stroke-linejoin="round" stroke-width="2"/><path d="M261.642,224.915a54.6,54.6,0,0,1,3.767,12.555c0.1,0.62-.123,1.268,0,1.883,0.092,0.459.536,0.8,0.628,1.256,0.4,2.007.29,4.253,0.627,6.277,0.11,0.654.535,1.229,0.628,1.884,0.118,0.828-.118,1.682,0,2.51,0.094,0.655.535,1.229,0.628,1.883,0.236,1.658-.276,3.371,0,5.023a4.806,4.806,0,0,0,.627,1.255,11.048,11.048,0,0,1,.628,1.883c0.118,0.828-.118,1.682,0,2.511,0.094,0.655.5,1.234,0.628,1.883,0.371,1.858.289,3.786,0.627,5.65,0.309,1.7.972,3.32,1.256,5.022,0.479,2.875.728,5.89,1.255,8.789,0.763,4.2,2.038,8.3,2.511,12.555,0.139,1.248-.178,2.524,0,3.767,1.133,7.934,1.378,15.923,2.511,23.856,0.584,4.088-.374,8.444,0,12.555,0.282,3.111.746,6.363,1.255,9.418,0.283,1.7,1.042,3.309,1.255,5.022,0.234,1.869-.187,3.776,0,5.65,0.347,3.468,1,6.457,1.256,10.045,0.148,2.087-.174,4.193,0,6.278,0.123,1.474.5,2.919,0.627,4.394,0.43,5.149,0,10.53,0,15.695,0,4.074.856,7.924,1.256,11.928,0.208,2.083-.231,4.2,0,6.278,0.3,2.722.912,5.421,1.255,8.161,0.308,2.462.472,18.357,0,20.716-0.092.459-.576,0.791-0.628,1.255-0.162,1.456.318,2.965,0,4.395-0.256,1.153-1.778,1.334-2.51,1.883a21.587,21.587,0,0,0-3.139,3.767c-1.529,1.913-1.222,2.139-2.51,4.395a88.194,88.194,0,0,1-6.278,8.789c-0.415.552-6.5,7.23-6.906,7.533a39.694,39.694,0,0,0-4.394,3.139,10.12,10.12,0,0,0-.628,1.256c-1.574,2.1-3.231,4.44-5.65,5.65" fill="none" stroke="#a2fac6" stroke-linecap="round" stroke-linejoin="round" stroke-width="2"/><path d="M261.366,221.368v5.51c0-2.332-.384-5.042,0-7.347,0.484-2.9.367,0.661,0.367-2.2" fill="none" stroke="#a2fac6" stroke-linecap="round" stroke-linejoin="round" stroke-width="2"/><path d="M20.794,204.831c-3.537,8.6-7.991,16.8-11.451,25.448-0.478,1.193-1.591,2.7-1.909,3.818-0.175.611,0.125,1.285,0,1.909-0.338,1.691-2.61,7.828-3.181,9.543-1.58,1.053-.229,2.594-0.637,3.817-0.3.9-.973,1.645-1.272,2.545C1.738,253.73.721,262.883,1.072,264.636c0.968,4.842,2.367,9.75,3.181,14.633,0.48,2.879,1.57,4.585,1.909,7.634,0.232,2.095-.21,4.264,0,6.362-0.268,2.25,1.033,4.212,1.272,6.362,0.322,2.9-.48,6.03,0,8.907a32.956,32.956,0,0,1,.636,9.543c-0.083.666-.541,1.245-0.636,1.909a52.92,52.92,0,0,0,0,7c0,4.964-.615,10.349,0,15.269,0.134,1.073.517,2.106,0.636,3.181,0.212,1.9-.211,3.829,0,5.726,0.1,0.869.513,1.679,0.637,2.544,0.179,1.26-.127,2.551,0,3.818,0.323,3.226,1.52,5.8,1.909,8.907,0.138,1.105.364,5.908,0.636,7,0.115,0.46.521,0.812,0.637,1.272,0.162,0.645.432,7.046,0.637,8.271,0.324,1.948,1.508,3.726,1.908,5.725,0.583,2.911-.841-0.409.637,2.545" fill="none" stroke="#a2fac6" stroke-linecap="round" stroke-linejoin="round" stroke-width="2"/><path d="M24.611,271c0.824,5.58,2.082,11.045,3.181,16.541,0.249,1.248-.179,2.558,0,3.818,1.1,7.714-.1-5.13,1.272,4.453,0.353,2.472-.489,5.19,0,7.635,0.428,2.139.915,4.214,1.272,6.362,0.1,0.627-.09,1.279,0,1.908,0.544,3.8,3.648,12.622,7,14.633,2.012,1.207,1.712.285,3.818,0.637,2.136,0.356,4.226.916,6.362,1.272,3.62,0.6,4.476-.614,7.634,2.544" fill="none" stroke="#a2fac6" stroke-linecap="round" stroke-linejoin="round" stroke-width="2"/><path d="M15.068,340.344c4.621-.676,8.9.529,13.361,1.273,1.031,0.172,2.149-.172,3.181,0,1.771,0.295,6.609,2.67,8.907,3.181a66.592,66.592,0,0,0,11.452,0c5.025-.838-1.146-0.637,3.818-0.637" fill="none" stroke="#a2fac6" stroke-linecap="round" stroke-linejoin="round" stroke-width="2"/><path d="M22.067,374.063c3.066-3.672,7.066-6.546,10.179-10.179,0.69-.806,1.159-1.8,1.909-2.545s1.8-1.159,2.545-1.908c0.584-.585,2.111-3.176,3.181-3.818,1.554-.932,3.516-1.01,5.089-1.909,0.521-.3.774-0.94,1.273-1.272a56.772,56.772,0,0,1,6.362-3.181c1.789-.894,3.352-2.188,5.089-3.181,2.215-1.266,4.71-2.036,7-3.181" fill="none" stroke="#a2fac6" stroke-linecap="round" stroke-linejoin="round" stroke-width="2"/><path d="M17.613,384.243c-2.946,7.366.85-1.7-3.817,7.634-0.769,1.539-.661,2.823-1.272,4.454-0.333.888-1.012,1.632-1.273,2.544a6.982,6.982,0,0,0,0,1.909c-0.212.848-.359,1.715-0.636,2.544C8.035,411.066,6.8,411.654,6.8,420.507c0,1.114.213,6.576,0.637,7,1.909,1.909,2.226.637,3.817,1.909,0.7,0.562,1.217,1.333,1.909,1.909,0.587,0.489,1.369.731,1.909,1.272,1.081,1.081,1.464,2.736,2.544,3.818,0.541,0.54,1.369.731,1.909,1.272a5.737,5.737,0,0,1,1.272,1.909c0.315,0.787-.166,1.712,0,2.544,0.264,1.315,1.01,2.5,1.273,3.818a7.243,7.243,0,0,0,0,1.272c1.128,2.821,3.437,5.155,5.089,7.634" fill="none" stroke="#a2fac6" stroke-linecap="round" stroke-linejoin="round" stroke-width="2"/><path d="M25.169,198.656c-1.762,2.7-3.665,5.42-5.363,8.25" fill="none" stroke="#a2fac6" stroke-linecap="round" stroke-linejoin="round" stroke-width="2"/><path d="M57.469,207.711c-0.441,2.61-.984,5.252-1.31,7.861-0.178,1.421.235,2.955,0,4.367-0.639,3.834-.161-0.668-0.874,2.184-1.3,5.189-2.074,10.517-3.494,15.721-1,3.672-2.4,7.264-3.494,10.917-0.787,2.623-.171,5.206-0.436,7.861-0.4,3.974-1.788,7.834-2.184,11.791-0.218,2.178-.239,4.37-0.437,6.55-0.594,6.542-3.633,17.935-2.62,24.019a23.255,23.255,0,0,0,5.241,10.481c1.609,1.931,4.8,3.478,4.8,6.114" fill="none" stroke="#a2fac6" stroke-linecap="round" stroke-linejoin="round" stroke-width="2"/><path d="M51.355,303.787c1.6,8.029,1.329,16.216,3.93,24.018,0.291,0.874.65,1.727,0.874,2.621a4.21,4.21,0,0,0,0,.873c0.535,1.069,1.7,1.84,2.183,3.057,1.069,2.671,1.69,6.691,4.367,8.3,6.4,3.839,14.188,3.421,21.4,2.62,3.622-.4,7.284-0.106,10.918-0.436,4.658-.424,9.345-1.168,13.974-1.747,5.258-.657,10.6.67,15.722,1.31,6.048,0.757,12.3-.426,18.341.437,2.04,0.291,4.071,1.054,6.114,1.31a14.573,14.573,0,0,1,1.747,0c0.632,0.158,1.115.715,1.746,0.874,0.566,0.141,1.187-.161,1.747,0a12.776,12.776,0,0,1,1.31.873,37.721,37.721,0,0,0,9.171,2.184c4.786,0.6,7.6-.316,13.1,1.747,3.952,1.482,7.788,3.469,11.791,4.8,1.98,0.659,3.695.189,5.677,0.436,4.989,0.623,9.428,1.108,14.411,0,2.609-.58,5.461-0.657,7.424-2.62,1.809-1.809,1.422-4.59,2.184-6.114,0.184-.368.662-0.52,0.874-0.874,1.34-2.234,2.385-4.824,3.93-6.987,1.363-1.908,3.342-3.412,4.8-5.24,1.076-1.345,2.369-2.144,3.494-3.494a55.981,55.981,0,0,0,8.3-12.228,21.54,21.54,0,0,0,2.184-6.114c0.331-1.985-.285-4.12,0-6.114,1.216-8.509-.576-15.824-1.746-24.018-0.2-1.421.235-2.952,0-4.367-0.881-5.284-.117-10.858-0.874-16.158-0.265-1.854.264-3.822,0-5.677-0.464-3.241-3.057-6.644-3.057-9.17" fill="none" stroke="#a2fac6" stroke-linecap="round" stroke-linejoin="round" stroke-width="2"/><path d="M146.12,157.054a11.773,11.773,0,0,1,1.31,2.183c1.6,4.789,1.31,14.569,1.31,19.652,0,6.772.672,14.252,0,20.962-0.38,3.794-1.31,7.559-1.31,11.355" fill="none" stroke="#a2fac6" stroke-linecap="round" stroke-linejoin="round" stroke-width="2"/><path d="M143.936,236.534c0.476,6.406,1.31,12.785,1.31,19.215,0,5.759-.473,8.812-0.874,14.411-0.557,7.8.778,15.8,0,23.582-0.294,2.944-.944,5.81-1.31,8.735-0.579,4.631.28,9.317-.436,13.975-0.943,6.125-.436,12.574-0.436,18.778,0,2.22-.437,4.28-0.437,6.55,0,0.437.309,1,0,1.31-0.23.23-.291-0.582-0.436-0.873" fill="none" stroke="#a2fac6" stroke-linecap="round" stroke-linejoin="round" stroke-width="2"/><path d="M255.3,321.255a19.627,19.627,0,0,1-3.056,9.171c-3.016,4.523-8.774,6.03-13.1,8.734-2.066,1.29-3.991,2.717-6.114,3.93-2.311,1.32-5.17,1.7-7.425,3.057a12.1,12.1,0,0,0-.874.874c-1.388,1.041-3.679,1.4-5.24,2.183" fill="none" stroke="#a2fac6" stroke-linecap="round" stroke-linejoin="round" stroke-width="2"/><path d="M218.176,359.684c0.439,1.677,2.232,2.556,3.057,3.931,0.236,0.395.169,0.935,0.436,1.31,2.676,3.746,7.266,6.036,9.171,10.481,3.217,7.508,5.6,24.234,6.55,32.752,0.164,1.474-.13,2.49,0,3.931,0.242,2.653,1.09,5.214,1.31,7.86,0.289,3.462-.383,7.031,0,10.481a78.421,78.421,0,0,1,0,19.216c-0.123.864,0.172,1.763,0,2.62a3.723,3.723,0,0,1-.436.874l-0.436,2.183" fill="none" stroke="#a2fac6" stroke-linecap="round" stroke-linejoin="round" stroke-width="2"/><path d="M215.556,360.558c-0.369,3.105.286,6.238,0.873,9.171,0.2,1-.167,2.051,0,3.056,0.235,1.407.965,2.987,1.311,4.367,0.426,1.706.233,4.077,0.873,5.677,0.2,0.487.689,0.819,0.874,1.31,0.615,1.641.687,3.579,1.31,5.24,1.4,3.727.443,0.021,1.31,3.057,0.775,2.713,1.3,5.635,2.184,8.3,1.077,3.231,3.1,6.289,3.93,9.607a108.992,108.992,0,0,1,2.184,14.411c0.261,2.344,1.285,4.672,1.747,6.987,0.889,4.445,1.465,10.176,2.62,14.412,0.546,2,1.835,4.024,2.184,6.114,0.332,1.993.536,4.092,0.874,6.114" fill="none" stroke="#a2fac6" stroke-linecap="round" stroke-linejoin="round" stroke-width="2"/><path d="M230.4,354.881c5.325,1.1,10.585,1.984,15.285,4.8,1.922,1.153,2.386,3.579,3.494,5.241,0.918,1.377,2.2,2.438,3.057,3.93a91.782,91.782,0,0,1,6.987,16.158" fill="none" stroke="#a2fac6" stroke-linecap="round" stroke-linejoin="round" stroke-width="2"/><path d="M267.96,390.691c0.727,7.639,3.858,14.616,6.114,21.835,0.716,2.291,1.087,4.679,1.747,6.987,1.391,4.87,3.3,9.4,3.93,14.411,0.316,2.533,1.31,4.848,1.31,7.424" fill="none" stroke="#a2fac6" stroke-linecap="round" stroke-linejoin="round" stroke-width="2"/><path d="M215.556,355.754c0.417-1.477-.437,7.051-0.437,4.8v0.436" fill="none" stroke="#a2fac6" stroke-linecap="round" stroke-linejoin="round" stroke-width="2"/><path d="M64.456,352.261c-0.942.351-6.227,5.564-6.114,5.677,0.514,0.515,1.1-.985,1.746-1.31" fill="none" stroke="#a2fac6" stroke-linecap="round" stroke-linejoin="round" stroke-width="2"/><path d="M65.329,350.077h0" fill="none" stroke="#a2fac6" stroke-linecap="round" stroke-linejoin="round" stroke-width="2"/><path d="M63.146,348.331c1.372-.6-0.824-2.67,0-3.494,0.23-.23.333,0.565,0.436,0.873,1.065,3.2,0,.258,0,3.931,0,0.46.111-1.636,0.436-1.31,0.412,0.412.083,1.17,0,1.746-0.783,5.482-4.965,7.04-9.17,10.045-7.943,5.673-18.816,24.105-22.709,33.189-1.519,3.543-2.712,7.262-3.93,10.917-1.708,5.124-4.279,9.753-6.114,14.848-0.624,1.732-1.217,3.477-1.747,5.24-0.9,3-1.064,4.431-.873,4.367a4.207,4.207,0,0,0,1.31-1.31" fill="none" stroke="#a2fac6" stroke-linecap="round" stroke-linejoin="round" stroke-width="2"/><path d="M56.6,368.855c-3,8,.64-1.92-3.057,9.171-1.994,5.981-2.71,12.074-3.494,18.341a66.129,66.129,0,0,1-.873,6.987c-1.153,4.9-1.539,3.237-3.057,8.3-1.858,6.194-3.23,17.372-3.93,24.019-0.451,4.287.5,12.1-1.31,15.721" fill="none" stroke="#a2fac6" stroke-linecap="round" stroke-linejoin="round" stroke-width="2"/><path d="M63.583,362.742c-3.251,13.95-3.124,28.251-5.241,42.36-0.8,5.313-2.549,10.432-3.493,15.721-0.952,5.328-1.855,10.8-2.621,16.158-0.743,5.207-.655,10.482-1.31,15.721" fill="none" stroke="#a2fac6" stroke-linecap="round" stroke-linejoin="round" stroke-width="2"/><path d="M65.329,363.178c2.3,8.438,1.508,4.292,2.184,17.468a123.944,123.944,0,0,1-.436,12.665,168.483,168.483,0,0,0,0,17.9c0.347,5.9.87,12.06,1.746,17.9,0.221,1.469.71,2.892,0.874,4.367,0.128,1.157-.077,2.332,0,3.494,0.28,4.191,1.152,8.5,1.747,12.665,0.5,3.533,1.351,6.921,1.746,10.48" fill="none" stroke="#a2fac6" stroke-linecap="round" stroke-linejoin="round" stroke-width="2"/><path d="M114.241,412.962c0.874,0.292,1.755.559,2.62,0.874,8.028,2.919,6.036,2.047,10.917,6.114,0.807,0.672,1.879,1,2.621,1.747,3.448,3.448,5.019,10,11.354,8.734,4.743-.948,6.614-7.215,8.3-10.917" fill="none" stroke="#a2fac6" stroke-linecap="round" stroke-linejoin="round" stroke-width="2"/><path d="M159.221,409.032c5.462-6.242,7.628-9.03,13.975-14.847,2.427-2.225,5.745-3.59,8.3-5.677,1.95-1.6,3.505-3.446,5.677-4.8a87.771,87.771,0,0,0,7.424-4.8c1.741-1.354,2.945-3.128,4.8-4.367" fill="none" stroke="#a2fac6" stroke-linecap="round" stroke-linejoin="round" stroke-width="2"/><path d="M136.513,373.223c10.377,11.381,8.946,19.838,11.791,34.063,1.246,6.23,3.227,12.455,3.93,18.778a75.281,75.281,0,0,1,0,8.3v24.892" fill="none" stroke="#a2fac6" stroke-linecap="round" stroke-linejoin="round" stroke-width="2"/><path d="M81.487,362.742c4.121,1.232,8.171,2.578,12.227,3.93,0.7,0.235,1.506.135,2.184,0.437,3.826,1.7,5.821,6.064,9.171,8.3,1.3,0.869,2.94,1.1,4.367,1.746,7.3,3.32,16.709,5.317,23.145,9.607" fill="none" stroke="#a2fac6" stroke-linecap="round" stroke-linejoin="round" stroke-width="2"/><path d="M126.468,371.039c2.588,1.053,4.4,3.506,6.987,4.367" fill="none" stroke="#a2fac6" stroke-linecap="round" stroke-linejoin="round" stroke-width="2"/><path d="M155.727,378.9c2.05,0.41,3.944.937,6.114,0.436,0.709-.163,1.13-0.925,1.747-1.31,3.028-1.893,10.6-5.677,13.975-5.677" fill="none" stroke="#a2fac6" stroke-linecap="round" stroke-linejoin="round" stroke-width="2"/><path d="M62.709,357.5h0" fill="none" stroke="#a2fac6" stroke-linecap="round" stroke-linejoin="round" stroke-width="2"/><path d="M64.456,360.558c1.344,1.624-.62,4.621.873,6.114,0.728,0.728-.075-2.093-0.436-3.056-0.074-.2-1.223-3.786-1.31-3.931-0.317-.529-1.034-0.757-1.31-1.31a6.391,6.391,0,0,1,0-3.93" fill="none" stroke="#a2fac6" stroke-linecap="round" stroke-linejoin="round" stroke-width="2"/><path d="M65.329,359.248c2.633-.278,5.174-1.3,7.861-1.747a83.107,83.107,0,0,1,13.1,0c1.765,0.252,2.992,1.084,4.8,1.311,1.862,0.232,3.865-.017,5.677.436,0.632,0.158,1.13.668,1.747,0.874a36.808,36.808,0,0,0,6.55,1.31c2.154,0.269,4.4.129,6.551,0.436,1.473,0.211,2.874,1.062,4.366,1.31,4.235,0.706,8.483,1.924,12.665,2.62,1.406,0.235,2.969-.279,4.367,0,8.554,1.711,17.585-.794,26.2.437,1.848,0.264,3.836-.307,5.677,0,2.214,0.369,4.882.468,6.987,1.31,0.819,0.328,1.856,1.092,2.62,1.31,2,0.57,4.949.728,6.987,1.31,1.5,0.43,1.593,1.128,3.056,1.31,1.394,0.175,2.973-.232,4.367,0,3.834,0.639-.668.161,2.184,0.874,1.251,0.313,5.147,1.077,6.551,1.31,6.06,1.011,10.831-2.62,16.157-2.62" fill="none" stroke="#a2fac6" stroke-linecap="round" stroke-linejoin="round" stroke-width="2"/><path d="M151.372,464.8q0.237,1.18.472,2.361c0.158,1.259.246,2.529,0.472,3.778,0.261,1.435.7,2.814,0.944,4.25,0.435,2.614-.112,5.509-0.472,8.028a70.117,70.117,0,0,0,0,12.751c0.365,3.642,1.487,7.243,1.889,10.862,0.5,4.51-.411,9.175,0,13.7a101.674,101.674,0,0,1-.472,23.612c-0.667,4.671,0,13.349,0,18.418" fill="none" stroke="#a2fac6" stroke-linecap="round" stroke-linejoin="round" stroke-width="2"/><path d="M24.338,439.77c3.247,1.739,6.995,2.254,9.445,5.195,1.113,1.336,1.233,2.718,1.889,4.25,2.085,4.865,1.889,9.433,1.889,14.64,0,5.113.508,10.5,0,15.584a145.836,145.836,0,0,0-.944,14.64c0,13.989,3.165,27.995,1.889,42.03a20.442,20.442,0,0,1-.472,3.778c-1.193,4.174-.933-0.587-1.417,4.25-0.184,1.839.3,3.842,0,5.667-0.99,5.937-.472,12.344-0.472,18.418" fill="none" stroke="#a2fac6" stroke-linecap="round" stroke-linejoin="round" stroke-width="2"/><path d="M17.255,450.631a25.778,25.778,0,0,1,0,2.833c-0.283,2.546-1.162,5.006-1.417,7.556-0.221,2.206-.16,4.421-0.472,6.611s-1.169,4.384-1.417,6.611c-0.225,2.02.184,4.114,0,6.139-0.9,9.857.357,20.159-.472,29.279-0.5,5.5-1.137,17.347-.472,22.668,0.214,1.714.726,3.452,0.944,5.195,0.584,4.671-.114,9.476.472,14.167,0.2,1.62.4,10.393,0,11.806a13.777,13.777,0,0,1-.944,1.417c-0.9,2.1-2.628,7.342-.944,9.445a9.244,9.244,0,0,0,2.833,1.889c6.356,3.632,10.525-.528,16.529.472,3.975,0.662-1.241,5.711,2.361,6.611,0.283,0.071,3.74-.057,4.25,0,4.744,0.527-.153.5,5.195,0.944,2.039,0.17,4.1-.157,6.139,0,3.479,0.267,6.945,1.359,10.389,1.889,3.61,0.555,7.242.934,10.862,1.417,7.391,0.985,14.727,2.032,21.723,4.722,2.785,1.071,5.783,2.141,8.5,3.306,2.177,0.933,3.758,2.626,6.139,3.306,10.4,2.971,18.917,4.187,29.279,5.667,4.769,0.681,14.023-.95,18.418-2.833a14.862,14.862,0,0,1,3.306-1.417c0.931-.155,2.024-0.486,2.833,0,0.486,0.292.5,1.063,0.944,1.417a5.746,5.746,0,0,0,1.417.472c3,1.285,5.6,2.31,8.973,1.889,1.2,0.079,2.171-.782,3.306-0.944,2.533-.362,1.283.526,3.778-0.472,1.634-.654,3.053-1.8,4.722-2.361,2.005-.669,4.193-1.024,6.139-1.889,4.2-1.864,7.23-3.947,11.806-5.195,6.981-1.9,14.245-2.5,21.251-4.25,3.717-.929,7.559-2.2,11.334-2.833a29.163,29.163,0,0,1,8.5-.472c0.642,0.092,1.265.651,1.889,0.472,1.812-.518,2.707-3.7,3.306-5.195a47.325,47.325,0,0,0,3.778-18.418c0-4.521.408-9.2,0-13.7-0.3-3.25-1.659-6.286-2.361-9.445-1.566-7.046.179,0.485-.472-4.722-0.239-1.913-1.225-3.75-1.417-5.667-0.2-2.022.225-4.119,0-6.139s-1.175-3.735-1.417-5.667c-0.448-3.583-.025-7.277-0.472-10.862-0.378-3.022-1.591-5.993-1.889-8.973-0.55-5.5,2.9-10.292,3.778-15.584,0.421-2.528-.641-4.661-0.944-7.084-0.823-6.581,1.354,4.411-.472-4.722-0.181-.907-3.855-12.158-4.25-12.751a20.441,20.441,0,0,0-2.833-2.833" fill="none" stroke="#a2fac6" stroke-linecap="round" stroke-linejoin="round" stroke-width="2"/><path d="M251.96,490.772c0.158,0.63.356,1.25,0.472,1.889,0.488,2.686.664,5.392,1.417,8.028,1.171,4.1,3.348,7.985,3.778,12.278,0.22,2.2.043,4.981,0.944,7.084,0.224,0.521.765,0.878,0.944,1.417a9.335,9.335,0,0,1,0,1.417c0.472,2.834,1.574,5.664,1.889,8.5,0.38,3.421-.343,6.964,0,10.389,0.064,0.646.392,1.245,0.472,1.889,0.358,2.864-.012,5.6.472,8.5,0.385,2.315,2.474,17.883,1.417,19.362-2,2.8-7.262,2.735-10.389,3.778" fill="none" stroke="#a2fac6" stroke-linecap="round" stroke-linejoin="round" stroke-width="2"/><path d="M247.71,486.05c0.7-.7-1.648-2.13-0.944-2.833,1.217-1.217,5.253,7.142,4.25,6.139-0.649-.649-0.6-1.95-1.417-2.361-0.237-.119.9,3.183,0.944,3.306" fill="none" stroke="#a2fac6" stroke-linecap="round" stroke-linejoin="round" stroke-width="2"/><path d="M115.2,105.025a46.206,46.206,0,0,0,2.965-3.649" fill="none" stroke="#a2fac6" stroke-linecap="round" stroke-linejoin="round" stroke-width="1.5"/><path d="M175.172,103.429c0.06-.389-2.749-4.581-1.369-2.509" fill="none" stroke="#a2fac6" stroke-linecap="round" stroke-linejoin="round" stroke-width="1.5"/><path d="M171.3,108.673c-0.246-.49-1.123-0.421-1.369-0.911-0.228-.456.981,0.352,1.369,0.684,0.882,0.757,1.059,1.743,1.824,2.509" fill="none" stroke="#a2fac6" stroke-linecap="round" stroke-linejoin="round" stroke-width="1.5"/></g><g id="_1" data-name="1"><path d="M119.612,58.638c-0.9,2.109-3.543,5.188-3.543,7.358" fill="none" stroke="#a2fac6" stroke-linecap="round" stroke-linejoin="round"/><path d="M120.157,64.087c-1.463,2.039-.635,5.131-2,7.177" fill="none" stroke="#a2fac6" stroke-linecap="round" stroke-linejoin="round"/><path d="M120.793,71.173c-0.981,3.648.1,7.784-1.09,11.356" fill="none" stroke="#a2fac6" stroke-linecap="round" stroke-linejoin="round"/><path d="M122.247,77.623c0.369,3.754-.7,7.417-1.727,10.992" fill="none" stroke="#a2fac6" stroke-linecap="round" stroke-linejoin="round"/><path d="M124.336,86.071c0.217,2.428-.562,6.079-0.909,7.812" fill="none" stroke="#a2fac6" stroke-linecap="round" stroke-linejoin="round"/><path d="M126.516,90.159a42.905,42.905,0,0,0-.273,4.814" fill="none" stroke="#a2fac6" stroke-linecap="round" stroke-linejoin="round"/><path d="M128.515,93.338a4.364,4.364,0,0,1-.545,2.544" fill="none" stroke="#a2fac6" stroke-linecap="round" stroke-linejoin="round"/><path d="M119.067,86.162a8.142,8.142,0,0,0-1.907,1.817" fill="none" stroke="#a2fac6" stroke-linecap="round" stroke-linejoin="round"/><path d="M118.522,77.168a8.48,8.48,0,0,1-1.908,2.816" fill="none" stroke="#a2fac6" stroke-linecap="round" stroke-linejoin="round"/><path d="M116.887,68.448c-0.563,1.277-1.1,2.566-1.726,3.816" fill="none" stroke="#a2fac6" stroke-linecap="round" stroke-linejoin="round"/><path d="M119.521,95.155l-0.363,1.181" fill="none" stroke="#a2fac6" stroke-linecap="round" stroke-linejoin="round"/><path d="M121.52,95.155a18.217,18.217,0,0,1-.726,3.905" fill="none" stroke="#a2fac6" stroke-linecap="round" stroke-linejoin="round"/><path d="M120.884,92.157a9.955,9.955,0,0,1-2.362,2.634" fill="none" stroke="#a2fac6" stroke-linecap="round" stroke-linejoin="round"/><path d="M117.977,103.421q-0.227,1.227-.454,2.453" fill="none" stroke="#a2fac6" stroke-linecap="round" stroke-linejoin="round"/><path d="M124.881,99.152c0.031,0.083-1.357,7.65-.727,4.814" fill="none" stroke="#a2fac6" stroke-linecap="round" stroke-linejoin="round"/><path d="M118.25,101.242q-0.091.5-.182,1" fill="none" stroke="#a2fac6" stroke-linecap="round" stroke-linejoin="round"/><path d="M121.248,102.241c0.722,2.06-1.687,6.489-.092,8.085" fill="none" stroke="#a2fac6" stroke-linecap="round" stroke-linejoin="round"/><path d="M129.423,103.421c0.243,0.3-.3,6.7-0.909,4.269" fill="none" stroke="#a2fac6" stroke-linecap="round" stroke-linejoin="round"/><path d="M123.882,97.789a2.191,2.191,0,0,1-.454,1.181" fill="none" stroke="#a2fac6" stroke-linecap="round" stroke-linejoin="round"/><path d="M127.425,99.061c-0.179,2.814-.511,6.771-2.362,9.084" fill="none" stroke="#a2fac6" stroke-linecap="round" stroke-linejoin="round"/><path d="M120.066,64.451h0" fill="none" stroke="#a2fac6" stroke-linecap="round" stroke-linejoin="round"/><path d="M118.522,65.269a6.621,6.621,0,0,1,1.454-4" fill="none" stroke="#a2fac6" stroke-linecap="round" stroke-linejoin="round"/><path d="M117.7,75.624c0.049-.185.121-0.364,0.181-0.545" fill="none" stroke="#a2fac6" stroke-linecap="round" stroke-linejoin="round"/><path d="M117.7,83.982c-0.263.83-.42,1.124-0.909,0.636" fill="none" stroke="#a2fac6" stroke-linecap="round" stroke-linejoin="round"/><path d="M174.843,58.638a19.151,19.151,0,0,1-1.907,3" fill="none" stroke="#a2fac6" stroke-linecap="round" stroke-linejoin="round"/><path d="M174.3,62.907c-1.931,2.461-1.879,5.368-2.361,8.266" fill="none" stroke="#a2fac6" stroke-linecap="round" stroke-linejoin="round"/><path d="M174.843,66.177c-0.149.434-1.362,6.085-1.362,4.9" fill="none" stroke="#a2fac6" stroke-linecap="round" stroke-linejoin="round"/><path d="M177.024,63.18c0.221,1.014,1.2,3.248.453,4" fill="none" stroke="#a2fac6" stroke-linecap="round" stroke-linejoin="round"/><path d="M180.112,63a6.292,6.292,0,0,1,1.362,1.182" fill="none" stroke="#a2fac6" stroke-linecap="round" stroke-linejoin="round"/><path d="M175.479,77.351c-0.206,2.367.273,1.558-.727,2.725" fill="none" stroke="#a2fac6" stroke-linecap="round" stroke-linejoin="round"/><path d="M177.024,75.17c-0.018.668,0.438,1.9-.364,1.363" fill="none" stroke="#a2fac6" stroke-linecap="round" stroke-linejoin="round"/><path d="M177.841,71.718c0.5,0.365,2.982,1.614,2.362,2.544" fill="none" stroke="#a2fac6" stroke-linecap="round" stroke-linejoin="round"/><path d="M181.656,68.812a2.041,2.041,0,0,1,2.271.363" fill="none" stroke="#a2fac6" stroke-linecap="round" stroke-linejoin="round"/><path d="M173.753,75.352a5.477,5.477,0,0,1-1.09,2.089" fill="none" stroke="#a2fac6" stroke-linecap="round" stroke-linejoin="round"/><path d="M172.844,82.8c-0.327,1.991.638,9.107-1.816,9.72" fill="none" stroke="#a2fac6" stroke-linecap="round" stroke-linejoin="round"/><path d="M174.48,83.618c0.729-.519.4,5.911,0,6.177" fill="none" stroke="#a2fac6" stroke-linecap="round" stroke-linejoin="round"/><path d="M179.294,80.711c0.094,0.853,1.434,4,.091,4" fill="none" stroke="#a2fac6" stroke-linecap="round" stroke-linejoin="round"/><path d="M181.656,78.531c0.247,1.027,1.571,2.436.181,2.634" fill="none" stroke="#a2fac6" stroke-linecap="round" stroke-linejoin="round"/><path d="M183.11,72.626c1.184,0.207,1.752,3.074,1.453,4.27" fill="none" stroke="#a2fac6" stroke-linecap="round" stroke-linejoin="round"/><path d="M167.849,91.34a24.431,24.431,0,0,0-.182,2.816" fill="none" stroke="#a2fac6" stroke-linecap="round" stroke-linejoin="round"/><path d="M169.484,89.7c-0.163.831,0.387,1.919-.364,1.544" fill="none" stroke="#a2fac6" stroke-linecap="round" stroke-linejoin="round"/><path d="M170.846,86.98a19.554,19.554,0,0,1,.092,2.544" fill="none" stroke="#a2fac6" stroke-linecap="round" stroke-linejoin="round"/><path d="M169.665,96.972c0.107,3.414-.2,1.982.545,4.361" fill="none" stroke="#a2fac6" stroke-linecap="round" stroke-linejoin="round"/><path d="M172.118,95.882c-0.233.422,0.619,4.43,0.818,3.633" fill="none" stroke="#a2fac6" stroke-linecap="round" stroke-linejoin="round"/><path d="M173.844,93.429a16.094,16.094,0,0,0,.727,3.18" fill="none" stroke="#a2fac6" stroke-linecap="round" stroke-linejoin="round"/><path d="M177.205,88.887A26.927,26.927,0,0,1,177.3,91.7" fill="none" stroke="#a2fac6" stroke-linecap="round" stroke-linejoin="round"/><path d="M177.386,84.436a7.128,7.128,0,0,0,.182,1.544" fill="none" stroke="#a2fac6" stroke-linecap="round" stroke-linejoin="round"/><path d="M176.751,83.073a15.827,15.827,0,0,0-.091-2.089" fill="none" stroke="#a2fac6" stroke-linecap="round" stroke-linejoin="round"/><path d="M166.213,103.694c0.083,1.611,1,3.11,1,4.723" fill="none" stroke="#a2fac6" stroke-linecap="round" stroke-linejoin="round"/><path d="M131.967,106.691c-0.465,1.982.128,4.21-.364,6.178" fill="none" stroke="#a2fac6" stroke-linecap="round" stroke-linejoin="round"/><path d="M133.783,112.869a8.463,8.463,0,0,0,1.09,4.542" fill="none" stroke="#a2fac6" stroke-linecap="round" stroke-linejoin="round"/><path d="M141.051,118.773a18.388,18.388,0,0,0,3.905-.091" fill="none" stroke="#a2fac6" stroke-linecap="round" stroke-linejoin="round"/><path d="M150.316,120.681c4.381-.014,5.33-5.519,8.266-7.721" fill="none" stroke="#a2fac6" stroke-linecap="round" stroke-linejoin="round"/><path d="M161.126,110.961a33.55,33.55,0,0,1,.091,3.633" fill="none" stroke="#a2fac6" stroke-linecap="round" stroke-linejoin="round"/><path d="M163.307,108.236c0.12,1.574.091,3.149,0.091,4.724" fill="none" stroke="#a2fac6" stroke-linecap="round" stroke-linejoin="round"/><path d="M165.3,100.152c-0.2,1.307-.463,1.462.092,0.908" fill="none" stroke="#a2fac6" stroke-linecap="round" stroke-linejoin="round"/><path d="M127.061,109.781c0.336,1.716,1.414,8.451,3.452,9.81" fill="none" stroke="#a2fac6" stroke-linecap="round" stroke-linejoin="round"/><path d="M126.243,118.411c0.582,1.93,2.024,3.437,3.271,5" fill="none" stroke="#a2fac6" stroke-linecap="round" stroke-linejoin="round"/><path d="M135.964,125.132c4.889,1.156,3.755,2.706,5.541,5.087" fill="none" stroke="#a2fac6" stroke-linecap="round" stroke-linejoin="round"/><path d="M150.135,128.04c3.271-3.562,7.145-3.3,9.356-7.722" fill="none" stroke="#a2fac6" stroke-linecap="round" stroke-linejoin="round"/><path d="M134.782,120.409c1.026-.4,4.054.392,5.724,0.726" fill="none" stroke="#a2fac6" stroke-linecap="round" stroke-linejoin="round"/><path d="M123.064,114.868c1.344,0.179-.048,3.577,1.182,3.27" fill="none" stroke="#a2fac6" stroke-linecap="round" stroke-linejoin="round"/><path d="M170.119,105.965v0.545" fill="none" stroke="#a2fac6" stroke-linecap="round" stroke-linejoin="round"/><path d="M169.756,104.694c-0.612-.553-1.726-1.484-1.726-2.271" fill="none" stroke="#a2fac6" stroke-linecap="round" stroke-linejoin="round"/><path d="M168.212,113.5a20.9,20.9,0,0,0-.545,4.36" fill="none" stroke="#a2fac6" stroke-linecap="round" stroke-linejoin="round"/><path d="M165.668,111.688c0.217,1.706-.683,3.275-1.09,4.906" fill="none" stroke="#a2fac6" stroke-linecap="round" stroke-linejoin="round"/><path d="M161.763,117.683a10.416,10.416,0,0,1,.181,3.361" fill="none" stroke="#a2fac6" stroke-linecap="round" stroke-linejoin="round"/><path d="M173.844,103.694c0.21,2.725.116,1.574,0.273,3.451" fill="none" stroke="#a2fac6" stroke-linecap="round" stroke-linejoin="round"/><path d="M175.751,95.155a6.856,6.856,0,0,1,.818,3.451" fill="none" stroke="#a2fac6" stroke-linecap="round" stroke-linejoin="round"/><path d="M171.573,102.7a5.187,5.187,0,0,1,.091,1.362" fill="none" stroke="#a2fac6" stroke-linecap="round" stroke-linejoin="round"/><path d="M151.043,60.182a21.012,21.012,0,0,0,2.726.091" fill="none" stroke="#a2fac6" stroke-linecap="round" stroke-linejoin="round"/><path d="M154.223,58.728a17.871,17.871,0,0,0,2.452.091" fill="none" stroke="#a2fac6" stroke-linecap="round" stroke-linejoin="round"/><path d="M157.766,57.91a23.239,23.239,0,0,0,3.451.545" fill="none" stroke="#a2fac6" stroke-linecap="round" stroke-linejoin="round"/><path d="M154.313,59.545c2.291,0.064,4.536-.181,6.813-0.181" fill="none" stroke="#a2fac6" stroke-linecap="round" stroke-linejoin="round"/><path d="M162.308,60c1.39,0.266,2.44,1.316,3.815,1.544" fill="none" stroke="#a2fac6" stroke-linecap="round" stroke-linejoin="round"/><path d="M160.4,60.182c1.827,0.289,3.54,1.193,5.359,1.454" fill="none" stroke="#a2fac6" stroke-linecap="round" stroke-linejoin="round"/><path d="M162.853,58.91a15.9,15.9,0,0,0,2.906,1.182" fill="none" stroke="#a2fac6" stroke-linecap="round" stroke-linejoin="round"/><path d="M152.769,58.728a0.836,0.836,0,0,1,.726-0.181" fill="none" stroke="#a2fac6" stroke-linecap="round" stroke-linejoin="round"/><path d="M165.759,62.725c0.714,0.374,2.074.99,0.727,0.181" fill="none" stroke="#a2fac6" stroke-linecap="round" stroke-linejoin="round"/><path d="M166.758,62.362c2.6,1.3-.578-0.257.818,0.364" fill="none" stroke="#a2fac6" stroke-linecap="round" stroke-linejoin="round"/><path d="M127.515,62.543c1.329-.519,2.493.068,3.724,0.273" fill="none" stroke="#a2fac6" stroke-linecap="round" stroke-linejoin="round"/><path d="M127.152,61.635a32.451,32.451,0,0,1,5.9-.273" fill="none" stroke="#a2fac6" stroke-linecap="round" stroke-linejoin="round"/><path d="M133.147,62.089a7.206,7.206,0,0,1,1.635.182" fill="none" stroke="#a2fac6" stroke-linecap="round" stroke-linejoin="round"/><path d="M134.147,62.907c0.638,0.126,1.3.029,1.908,0.181" fill="none" stroke="#a2fac6" stroke-linecap="round" stroke-linejoin="round"/><path d="M123.609,64.179c0.593-1.011,2.646-1,2.726-1" fill="none" stroke="#a2fac6" stroke-linecap="round" stroke-linejoin="round"/><path d="M124.972,61.635c1.753-.351-0.412.051,0.726-0.092" fill="none" stroke="#a2fac6" stroke-linecap="round" stroke-linejoin="round"/><path d="M135.51,60.727c0.434,0,1.614.545,1.181,0.545" fill="none" stroke="#a2fac6" stroke-linecap="round" stroke-linejoin="round"/><path d="M136.871,62.089l0.364,0.092" fill="none" stroke="#a2fac6" stroke-linecap="round" stroke-linejoin="round"/><path d="M132.693,60.817h0.364" fill="none" stroke="#a2fac6" stroke-linecap="round" stroke-linejoin="round"/><path d="M148.5,57.638a3.036,3.036,0,0,0,1.363.181" fill="none" stroke="#a2fac6" stroke-linecap="round" stroke-linejoin="round"/><path d="M141.051,58.455h0" fill="none" stroke="#a2fac6" stroke-linecap="round" stroke-linejoin="round"/><path d="M140.869,58.638a2.007,2.007,0,0,0,.727-0.364" fill="none" stroke="#a2fac6" stroke-linecap="round" stroke-linejoin="round"/><path d="M155.04,65.541c0.151-.049,3.12.424,2.089-0.091" fill="none" stroke="#a2fac6" stroke-linecap="round" stroke-linejoin="round"/><path d="M160.4,65c0.434-.143,3.817,1.909,2.634.727" fill="none" stroke="#a2fac6" stroke-linecap="round" stroke-linejoin="round"/><path d="M151.134,66.268c0.869-.87-0.245.162,0.545-0.364" fill="none" stroke="#a2fac6" stroke-linecap="round" stroke-linejoin="round"/><path d="M126.062,68.357a8.674,8.674,0,0,1,2.544-1.727" fill="none" stroke="#a2fac6" stroke-linecap="round" stroke-linejoin="round"/><path d="M136.781,66.268c0.2,0.231,1.188.473,0.182,0.272" fill="none" stroke="#a2fac6" stroke-linecap="round" stroke-linejoin="round"/><path d="M138.6,65.087c0.5,0.149-.164.092-0.273,0.092" fill="none" stroke="#a2fac6" stroke-linecap="round" stroke-linejoin="round"/><path d="M133.511,64.633a2.789,2.789,0,0,1,1.09-.092" fill="none" stroke="#a2fac6" stroke-linecap="round" stroke-linejoin="round"/><path d="M129.514,64.542l0.454-.181" fill="none" stroke="#a2fac6" stroke-linecap="round" stroke-linejoin="round"/><path d="M155.585,62c0.642-.124,4.974.551,2.907,0.091" fill="none" stroke="#a2fac6" stroke-linecap="round" stroke-linejoin="round"/><path d="M150.771,60.636l0.545,0.181" fill="none" stroke="#a2fac6" stroke-linecap="round" stroke-linejoin="round"/><path d="M121.883,58c0.3,0.053.33-.247,0.454-0.453" fill="none" stroke="#a2fac6" stroke-linecap="round" stroke-linejoin="round"/><path d="M124.427,56.275h0" fill="none" stroke="#a2fac6" stroke-linecap="round" stroke-linejoin="round"/><path d="M165.3,50.825c0.636,0.334,1.266.678,1.908,1" fill="none" stroke="#a2fac6" stroke-linecap="round" stroke-linejoin="round"/><path d="M168.666,54c1.011,0.443.117,0.012-.091-0.092" fill="none" stroke="#a2fac6" stroke-linecap="round" stroke-linejoin="round"/><path d="M169.846,53.459h0" fill="none" stroke="#a2fac6" stroke-linecap="round" stroke-linejoin="round"/><path d="M152.4,72.362A8.35,8.35,0,0,1,157,70.22" fill="none" stroke="#a2fac6" stroke-linecap="round" stroke-linejoin="round"/><path d="M158.538,70.22c2.6,0.052,4.316,1.42,6.478,2.716" fill="none" stroke="#a2fac6" stroke-linecap="round" stroke-linejoin="round"/><path d="M153.783,74.582a16.479,16.479,0,0,0,4.807.522" fill="none" stroke="#a2fac6" stroke-linecap="round" stroke-linejoin="round"/><path d="M154.619,76.489a17.582,17.582,0,0,0,5.329.209" fill="none" stroke="#a2fac6" stroke-linecap="round" stroke-linejoin="round"/><path d="M157.284,79.363c2.088-.981,4.514-0.155,6.61-0.993" fill="none" stroke="#a2fac6" stroke-linecap="round" stroke-linejoin="round"/><path d="M157.435,71.762a2.073,2.073,0,0,1-.022.493c-0.036.439,0.6-1.62,0.6-1.179,0,0.645-.577,1.069-0.365,1.864" fill="none" stroke="#a2fac6" stroke-linecap="round" stroke-linejoin="round"/><path d="M157.906,72.083a2.672,2.672,0,0,0,.321,1.2" fill="none" stroke="#a2fac6" stroke-linecap="round" stroke-linejoin="round"/><path d="M157.349,72.747a1.172,1.172,0,0,0,.793.986" fill="none" stroke="#a2fac6" stroke-linecap="round" stroke-linejoin="round"/><path d="M157.05,73.154a1.705,1.705,0,0,0,1.049,1.008" fill="none" stroke="#a2fac6" stroke-linecap="round" stroke-linejoin="round"/><path d="M159.706,72.062a3.206,3.206,0,0,1,.3,1.415" fill="none" stroke="#a2fac6" stroke-linecap="round" stroke-linejoin="round"/><path d="M159.749,71.676a2.639,2.639,0,0,1,.471,2.271" fill="none" stroke="#a2fac6" stroke-linecap="round" stroke-linejoin="round"/><path d="M159.535,71.8a2.353,2.353,0,0,1-.343,2.378" fill="none" stroke="#a2fac6" stroke-linecap="round" stroke-linejoin="round"/><path d="M159.921,74.119h0" fill="none" stroke="#a2fac6" stroke-linecap="round" stroke-linejoin="round"/><path d="M160.22,71.484a1.572,1.572,0,0,1,.429,1.243" fill="none" stroke="#a2fac6" stroke-linecap="round" stroke-linejoin="round"/><path d="M160.435,74.355a10.31,10.31,0,0,0,1.157.107" fill="none" stroke="#a2fac6" stroke-linecap="round" stroke-linejoin="round"/><path d="M156.428,72.725h0" fill="none" stroke="#a2fac6" stroke-linecap="round" stroke-linejoin="round"/><path d="M156.295,72.324h0" fill="none" stroke="#a2fac6" stroke-linecap="round" stroke-linejoin="round"/><path d="M156.295,72.457c0.009-.893.679-1.5,0.934-2.27" fill="none" stroke="#a2fac6" stroke-linecap="round" stroke-linejoin="round"/><path d="M156.562,71.924h0" fill="none" stroke="#a2fac6" stroke-linecap="round" stroke-linejoin="round"/><path d="M156.963,71.791h0" fill="none" stroke="#a2fac6" stroke-linecap="round" stroke-linejoin="round"/><path d="M154.293,73.526h0" fill="none" stroke="#a2fac6" stroke-linecap="round" stroke-linejoin="round"/><path d="M153.646,72.513c-0.6,1.1.2-.195,0.365-0.573" fill="none" stroke="#a2fac6" stroke-linecap="round" stroke-linejoin="round"/><path d="M130.313,70.262c-0.9.424-1.319,1.4-2.21,1.841" fill="none" stroke="#a2fac6" stroke-linecap="round" stroke-linejoin="round"/><path d="M131.417,69.894c1.312-.1,3-0.255,4.125.589" fill="none" stroke="#a2fac6" stroke-linecap="round" stroke-linejoin="round"/><path d="M136.351,71.514a10.872,10.872,0,0,0,.958.81" fill="none" stroke="#a2fac6" stroke-linecap="round" stroke-linejoin="round"/><path d="M135.836,72.1l0.147,0.074" fill="none" stroke="#a2fac6" stroke-linecap="round" stroke-linejoin="round"/><path d="M134.731,71.735c0.836,0.184.5,0.265,0.221-.442" fill="none" stroke="#a2fac6" stroke-linecap="round" stroke-linejoin="round"/><path d="M134.142,71.587c0.547-.041-0.442,1.484-0.442,1.252a6.536,6.536,0,0,0,.442-1.473c-0.04-.434-0.965-1.171-0.81-0.809,0.07,0.162.818,3.1,0.221,2.5a5.215,5.215,0,0,1,0-1.4c-0.053-.349-0.707-2.036-0.515-0.884a4,4,0,0,1,.367,1.915" fill="none" stroke="#a2fac6" stroke-linecap="round" stroke-linejoin="round"/><path d="M130.68,70.924c-1.271,3.477-.565,0-0.295,0a5.063,5.063,0,0,1-.22,1.179,2.125,2.125,0,0,0,.146,1.031,3.578,3.578,0,0,0-.294-1.031,8.107,8.107,0,0,0,.441,1.547c0.25-.126.147-2.23,0.147-2.21a2.691,2.691,0,0,0,.663,2.136" fill="none" stroke="#a2fac6" stroke-linecap="round" stroke-linejoin="round"/><path d="M130.312,74.533c0.912,0.287-1.743-.343-2.062-0.663" fill="none" stroke="#a2fac6" stroke-linecap="round" stroke-linejoin="round"/><path d="M133.847,73.282c1.192-.744,1.027-0.427,1.694.074" fill="none" stroke="#a2fac6" stroke-linecap="round" stroke-linejoin="round"/><path d="M131.859,76.08a2.441,2.441,0,0,0,2.283.516" fill="none" stroke="#a2fac6" stroke-linecap="round" stroke-linejoin="round"/><path d="M136.277,74.9h-0.146" fill="none" stroke="#a2fac6" stroke-linecap="round" stroke-linejoin="round"/><path d="M133.626,74.386a5.6,5.6,0,0,1,1.842-.147" fill="none" stroke="#a2fac6" stroke-linecap="round" stroke-linejoin="round"/><path d="M143.348,66.211a5.623,5.623,0,0,0,.368,1.841" fill="none" stroke="#a2fac6" stroke-linecap="round" stroke-linejoin="round"/><path d="M141.949,72.914a10.265,10.265,0,0,1-.295,2.578c-0.213,1.282-1.05,2.285-1.179,3.314-0.282,2.262.082,4.517-.295,6.776" fill="none" stroke="#a2fac6" stroke-linecap="round" stroke-linejoin="round"/><path d="M137.014,89.042c0.089,1.223.742,1.566,1.547,2.21" fill="none" stroke="#a2fac6" stroke-linecap="round" stroke-linejoin="round"/><path d="M141.728,92.8l0.147,0.147" fill="none" stroke="#a2fac6" stroke-linecap="round" stroke-linejoin="round"/><path d="M145.41,91.987c0.469-.495,1.114-1.21,1.768-0.883" fill="none" stroke="#a2fac6" stroke-linecap="round" stroke-linejoin="round"/><path d="M149.24,88.674c0.6,0.493.432,2.246,0.737,1.178" fill="none" stroke="#a2fac6" stroke-linecap="round" stroke-linejoin="round"/><path d="M152.554,85.065c1.424,0.733,1.988,3.152,1.988,4.86" fill="none" stroke="#a2fac6" stroke-linecap="round" stroke-linejoin="round"/><path d="M156.089,94.124c0.937,2.27,1.826,4.6,2.725,6.849" fill="none" stroke="#a2fac6" stroke-linecap="round" stroke-linejoin="round"/><path d="M134.952,97.143c-0.854,1.888-3.01,3.54-3.314,5.671" fill="none" stroke="#a2fac6" stroke-linecap="round" stroke-linejoin="round"/><path d="M132.534,91.018c-0.14.7-.26,0.448,0.118,0.825" fill="none" stroke="#a2fac6" stroke-linecap="round" stroke-linejoin="round"/><path d="M135.836,101.869a4.348,4.348,0,0,0,.708,3.656" fill="none" stroke="#a2fac6" stroke-linecap="round" stroke-linejoin="round"/><path d="M134.067,103.284a5.3,5.3,0,0,0-.589,1.769" fill="none" stroke="#a2fac6" stroke-linecap="round" stroke-linejoin="round"/><path d="M152.232,101.278c0.72,1.135,1.651,2.159,1.651,3.539" fill="none" stroke="#a2fac6" stroke-linecap="round" stroke-linejoin="round"/><path d="M156.124,102.1a16.882,16.882,0,0,1,1.3,5.78" fill="none" stroke="#a2fac6" stroke-linecap="round" stroke-linejoin="round"/><path d="M136.19,106.232c2.375-1.268,5.469-.368,7.9-1.18" fill="none" stroke="#a2fac6" stroke-linecap="round" stroke-linejoin="round"/><path d="M147.514,105.053c2.421,0.237,4.879.354,7.312,0.354" fill="none" stroke="#a2fac6" stroke-linecap="round" stroke-linejoin="round"/><path d="M139.611,107.648c4.093-.961,8.52,1.056,12.62.236,0.73-.146,1.275-0.826,2.005-0.826" fill="none" stroke="#a2fac6" stroke-linecap="round" stroke-linejoin="round"/><path d="M151.17,110.715c-2.379,1.763-5.917,1.176-8.728.707" fill="none" stroke="#a2fac6" stroke-linecap="round" stroke-linejoin="round"/><path d="M142.655,98.1v0.866" fill="none" stroke="#a2fac6" stroke-linecap="round" stroke-linejoin="round"/><path d="M142.308,98.444c-0.043,1.624.294-1.49,0-2.078" fill="none" stroke="#a2fac6" stroke-linecap="round" stroke-linejoin="round"/><path d="M147.33,100.7c-0.363,1.37.345,2.083,0.866,0.519" fill="none" stroke="#a2fac6" stroke-linecap="round" stroke-linejoin="round"/><path d="M147.157,99.657a6.235,6.235,0,0,1,.346-2.6" fill="none" stroke="#a2fac6" stroke-linecap="round" stroke-linejoin="round"/><path d="M152.871,99.657c0.058,0.115.116,0.23,0.174,0.347" fill="none" stroke="#a2fac6" stroke-linecap="round" stroke-linejoin="round"/><path d="M151.832,98.791c-0.316-1.218.243,1.524,1.213,1.039" fill="none" stroke="#a2fac6" stroke-linecap="round" stroke-linejoin="round"/><path d="M137.978,99.83c0.493,1.282-.519-2.562-0.519-2.6" fill="none" stroke="#a2fac6" stroke-linecap="round" stroke-linejoin="round"/><path d="M143.347,125.114a4.7,4.7,0,0,0,6.754-2.6" fill="none" stroke="#a2fac6" stroke-linecap="round" stroke-linejoin="round"/><path d="M141.961,123.9c-0.617-.5-2.481-2.251-1.039-2.251" fill="none" stroke="#a2fac6" stroke-linecap="round" stroke-linejoin="round"/><path d="M146.464,120.611c1.08,0.21-3.471-1.559-1.385-1.559" fill="none" stroke="#a2fac6" stroke-linecap="round" stroke-linejoin="round"/><path d="M148.022,74.373c-0.186,1.829,1.386,3.432,1.386,5.2" fill="none" stroke="#a2fac6" stroke-linecap="round" stroke-linejoin="round"/></g></svg>