<?xml version="1.0" encoding="UTF-8" standalone="no"?>
<svg width="144px" height="720px" viewBox="0 0 144 720" version="1.1" xmlns="http://www.w3.org/2000/svg" xmlns:xlink="http://www.w3.org/1999/xlink">
    <!-- Generator: Sketch 42 (36781) - http://www.bohemiancoding.com/sketch -->
    <title>p1</title>
    <desc>Created with Sketch.</desc>
    <defs></defs>
    <g id="Page-1" stroke="none" stroke-width="1" fill="none" fill-rule="evenodd">
        <g id="p1" fill="#FFFFFF">
            <path d="M4.736,32 L4.736,54.896 L138.944,54.896 L138.944,32 L4.736,32 Z M60.464,256.928 L60.464,169.376 L82.352,169.376 L82.352,256.928 L60.464,256.928 Z M70.832,120.128 L89.696,129.056 C88.256,131.504 86.816,133.952 85.232,136.256 C109.424,157.856 128.576,166.928 142.256,171.104 C136.496,176 130.016,184.208 126.848,191.264 C113.888,185.504 96.752,176 72.416,152.528 C56.864,169.52 37.568,181.904 17.408,191.12 C14.096,184.496 7.904,176.144 2,170.384 C29.648,160.88 56,144.896 70.832,120.128 Z M43.184,333.968 L43.184,296.096 L8.768,296.096 L8.768,277.808 L62.336,277.808 C60.896,274.208 59.168,270.32 57.584,267.152 L78.176,262.544 C80.768,267.152 84.08,273.488 85.952,277.808 L134.624,277.808 L134.624,296.096 L99.632,296.096 L99.632,305.168 L110.864,297.824 C119.936,304.016 130.304,313.232 135.632,319.568 L119.936,331.088 C115.472,325.184 107.264,317.12 99.632,310.928 L99.632,333.968 L78.464,333.968 L78.464,296.096 L64.352,296.096 L64.352,333.968 L43.184,333.968 Z M24.032,298.112 L42.752,303.152 C38,313.808 29.792,324.608 22.304,331.376 C18.56,328.064 10.64,322.88 6.176,320.432 C13.664,314.96 20.432,306.464 24.032,298.112 Z M91.712,354.848 L51.968,354.848 C57.44,359.888 64.208,364.064 71.84,367.808 C79.472,364.208 86.24,359.888 91.712,354.848 Z M110.864,335.984 L124.256,344.912 C117.056,357.728 106.976,367.952 94.592,376.016 C107.696,379.616 122.816,381.92 139.232,383.216 C135.056,387.68 130.016,396.176 127.424,401.504 C105.68,399.2 86.96,394.88 70.976,387.968 C53.84,394.736 34.256,398.912 13.952,401.504 C12.368,396.32 7.616,387.392 4.16,383.072 C20.288,381.776 35.552,379.472 49.232,375.728 C41.024,369.824 33.68,362.912 27.488,354.848 L16.688,354.848 L16.688,336.704 L107.552,336.704 L110.864,335.984 Z M138.512,459.248 L83.504,459.248 L83.504,408.416 L60.464,408.416 L60.464,459.248 L6.176,459.248 L6.176,481.136 L60.464,481.136 L60.464,545.216 L83.504,545.216 L83.504,481.136 L138.512,481.136 L138.512,459.248 Z M60.464,688.928 L60.464,601.376 L82.352,601.376 L82.352,688.928 L60.464,688.928 Z M70.832,552.128 L89.696,561.056 C88.256,563.504 86.816,565.952 85.232,568.256 C109.424,589.856 128.576,598.928 142.256,603.104 C136.496,608 130.016,616.208 126.848,623.264 C113.888,617.504 96.752,608 72.416,584.528 C56.864,601.52 37.568,613.904 17.408,623.12 C14.096,616.496 7.904,608.144 2,602.384 C29.648,592.88 56,576.896 70.832,552.128 Z"></path>
        </g>
    </g>
</svg>