<?xml version="1.0" encoding="UTF-8" standalone="no"?>
<svg width="108px" height="540px" viewBox="0 0 108 540" version="1.1" xmlns="http://www.w3.org/2000/svg" xmlns:xlink="http://www.w3.org/1999/xlink">
    <!-- Generator: Sketch 42 (36781) - http://www.bohemiancoding.com/sketch -->
    <title>p2</title>
    <desc>Created with Sketch.</desc>
    <defs></defs>
    <g id="Page-1" stroke="none" stroke-width="1" fill="none" fill-rule="evenodd">
        <g id="p2" fill="#FFFFFF">
            <path d="M102.548,42.664 L60.32,42.664 L60.32,4 L46.28,4 L46.28,42.664 L4.7,42.664 L4.7,56.056 L46.28,56.056 L46.28,104.764 L60.32,104.764 L60.32,56.056 L102.548,56.056 L102.548,42.664 Z M46.388,212.656 L46.388,146.668 L59.78,146.668 L59.78,212.656 L46.388,212.656 Z M53.084,111.784 L64.64,117.292 C63.56,118.912 62.48,120.64 61.4,122.368 C77.924,138.676 92.612,146.668 105.14,151.42 C101.576,154.444 97.472,159.412 95.636,163.624 C83.864,157.9 70.472,149.908 53.624,132.412 C41.852,145.912 27.056,156.388 11.396,163.516 C9.344,159.628 5.672,154.552 2,150.988 C22.52,143.32 42.068,130.036 53.084,111.784 Z M33.644,271.408 L33.644,241.6 L6.644,241.6 L6.644,230.26 L48.224,230.26 C46.928,227.344 45.308,224.212 43.904,221.62 L56.324,218.704 C58.484,222.16 61.184,227.02 62.588,230.26 L99.848,230.26 L99.848,241.6 L72.308,241.6 L72.308,250.024 L81.38,244.3 C88.292,249.376 96.068,256.936 99.848,261.904 L90.128,268.924 C86.348,263.632 78.68,255.748 72.308,250.456 L72.308,271.408 L59.348,271.408 L59.348,241.6 L46.712,241.6 L46.712,271.408 L33.644,271.408 Z M19.712,244.192 L31.268,247.216 C27.812,255.532 21.656,263.74 16.04,268.924 C13.664,267.088 8.804,263.74 6.104,262.228 C11.72,257.692 17.012,250.888 19.712,244.192 Z M71.12,285.016 L35.696,285.016 C40.34,289.984 46.28,294.088 53.3,297.544 C60.32,294.088 66.368,290.092 71.12,285.016 Z M82.46,273.352 L90.668,278.968 C85.052,289.012 76.844,296.788 66.8,302.944 C77.492,306.4 89.588,308.668 102.98,309.856 C100.388,312.448 97.364,317.74 95.744,321.088 C79.328,319.144 65.072,315.58 52.868,310.072 C39.908,315.472 25.112,318.928 9.776,321.088 C8.696,317.848 5.888,312.34 3.728,309.748 C16.58,308.452 28.784,306.184 39.8,302.728 C32.456,297.868 26.192,291.928 20.9,285.016 L12.8,285.016 L12.8,273.784 L80.408,273.784 L82.46,273.352 Z M77.384,384.16 L77.384,370.012 L29.648,370.012 L29.648,384.16 L77.384,384.16 Z M29.648,410.404 L77.384,410.404 L77.384,395.824 L29.648,395.824 L29.648,410.404 Z M100.712,345.82 L59.996,345.82 C58.916,350.14 57.728,354.244 56.54,358.132 L91.1,358.132 L91.1,428.764 L77.384,428.764 L77.384,422.284 L29.648,422.284 L29.648,428.764 L16.58,428.764 L16.58,358.132 L42.932,358.132 C43.688,354.244 44.336,350.032 44.876,345.82 L5.78,345.82 L5.78,333.292 L100.712,333.292 L100.712,345.82 Z M46.388,536.656 L46.388,470.668 L59.78,470.668 L59.78,536.656 L46.388,536.656 Z M53.084,435.784 L64.64,441.292 C63.56,442.912 62.48,444.64 61.4,446.368 C77.924,462.676 92.612,470.668 105.14,475.42 C101.576,478.444 97.472,483.412 95.636,487.624 C83.864,481.9 70.472,473.908 53.624,456.412 C41.852,469.912 27.056,480.388 11.396,487.516 C9.344,483.628 5.672,478.552 2,474.988 C22.52,467.32 42.068,454.036 53.084,435.784 Z"></path>
        </g>
    </g>
</svg>