<?xml version="1.0" encoding="UTF-8" standalone="no"?>
<svg width="72px" height="360px" viewBox="0 0 72 360" version="1.1" xmlns="http://www.w3.org/2000/svg" xmlns:xlink="http://www.w3.org/1999/xlink">
    <!-- Generator: Sketch 42 (36781) - http://www.bohemiancoding.com/sketch -->
    <title>p3</title>
    <desc>Created with Sketch.</desc>
    <defs></defs>
    <g id="Page-1" stroke="none" stroke-width="1" fill="none" fill-rule="evenodd">
        <g id="p3" fill="#FFFFFF">
            <path d="M52.832,38.84 L52.832,27.392 L18.776,27.392 L18.776,38.84 L52.832,38.84 Z M18.776,56.696 L52.832,56.696 L52.832,44.96 L18.776,44.96 L18.776,56.696 Z M66.728,11.552 L38.864,11.552 C37.928,14.792 37.136,18.248 36.272,21.128 L59.96,21.128 L59.96,67.424 L52.832,67.424 L52.832,62.888 L18.776,62.888 L18.776,67.424 L12.008,67.424 L12.008,21.128 L29.36,21.128 C30.008,18.248 30.656,14.72 31.016,11.552 L4.304,11.552 L4.304,5 L66.728,5 L66.728,11.552 Z M31.952,139.28 L31.952,95.216 L38.864,95.216 L38.864,139.28 L31.952,139.28 Z M35.696,73.184 L41.672,75.992 C41.024,77.144 40.376,78.296 39.584,79.376 C49.52,90.176 59.528,96.224 69.248,100.616 C67.448,102.128 65.36,104.72 64.352,106.88 C54.992,102.128 45.92,95.864 35.624,84.704 C27.848,94.136 17.624,101.768 6.968,106.736 C5.816,104.792 3.872,102.2 2,100.4 C15.536,94.928 28.496,85.28 35.696,73.184 Z M23.672,179.168 L23.672,158.288 L4.664,158.288 L4.664,152.384 L33.248,152.384 C32.456,150.44 31.16,147.992 30.008,146.192 L36.56,144.608 C38.072,146.984 39.944,150.224 40.952,152.384 L66.296,152.384 L66.296,158.288 L47.144,158.288 L47.144,179.096 L40.376,179.096 L40.376,158.288 L30.44,158.288 L30.44,179.168 L23.672,179.168 Z M48.656,164.048 L53.552,161.024 C58.16,164.768 63.344,170.168 65.864,173.696 L60.68,177.224 C58.16,173.48 52.904,167.792 48.656,164.048 Z M14.744,160.736 L20.72,162.392 C18.344,167.936 14.312,173.552 10.496,177.224 C9.344,176.144 6.752,174.488 5.24,173.624 C9.128,170.384 12.656,165.632 14.744,160.736 Z M49.16,186.8 L22.016,186.8 C25.472,190.832 30.008,194.288 35.552,197.024 C41.096,194.288 45.704,190.976 49.16,186.8 Z M55.064,180.68 L59.312,183.56 C55.424,190.472 49.52,195.8 42.392,199.976 C49.952,202.784 58.664,204.656 68.168,205.592 C66.8,207.032 65.216,209.696 64.352,211.424 C53.408,210.056 43.616,207.536 35.336,203.648 C26.552,207.464 16.616,209.912 6.392,211.496 C5.816,209.768 4.304,206.96 3.152,205.592 C12.152,204.512 20.936,202.64 28.64,199.904 C23.024,196.376 18.344,192.056 14.672,186.8 L8.984,186.8 L8.984,180.968 L53.84,180.968 L55.064,180.68 Z M67.736,245.336 L38.864,245.336 L38.864,228.416 C47,227.12 54.632,225.608 60.896,223.736 L55.712,218.12 C44.264,221.648 24.464,224.384 7.256,225.896 C7.976,227.408 8.84,230.072 9.056,231.872 C16.328,231.224 24.104,230.432 31.736,229.424 L31.736,245.336 L3.44,245.336 L3.44,251.816 L31.736,251.816 L31.736,283.352 L38.864,283.352 L38.864,251.816 L67.736,251.816 L67.736,245.336 Z M31.952,355.28 L31.952,311.216 L38.864,311.216 L38.864,355.28 L31.952,355.28 Z M35.696,289.184 L41.672,291.992 C41.024,293.144 40.376,294.296 39.584,295.376 C49.52,306.176 59.528,312.224 69.248,316.616 C67.448,318.128 65.36,320.72 64.352,322.88 C54.992,318.128 45.92,311.864 35.624,300.704 C27.848,310.136 17.624,317.768 6.968,322.736 C5.816,320.792 3.872,318.2 2,316.4 C15.536,310.928 28.496,301.28 35.696,289.184 Z"></path>
        </g>
    </g>
</svg>