<?xml version="1.0" encoding="UTF-8" standalone="no"?>
<svg width="36px" height="180px" viewBox="0 0 36 180" version="1.1" xmlns="http://www.w3.org/2000/svg" xmlns:xlink="http://www.w3.org/1999/xlink">
    <!-- Generator: Sketch 42 (36781) - http://www.bohemiancoding.com/sketch -->
    <title>p4</title>
    <desc>Created with Sketch.</desc>
    <defs></defs>
    <g id="Page-1" stroke="none" stroke-width="1" fill="none" fill-rule="evenodd">
        <g id="p4" fill="#FFFFFF">
            <path d="M34.4,15.644 L19.244,15.644 L19.244,5.924 C23.636,5.204 27.668,4.376 30.692,3.44 L29.36,2 C23.78,3.8 13.196,5.276 4.412,6.176 C4.592,6.608 4.844,7.292 4.916,7.724 C8.948,7.328 13.304,6.788 17.48,6.14 L17.48,15.644 L2.504,15.644 L2.504,17.336 L17.48,17.336 L17.48,34.04 L19.244,34.04 L19.244,17.336 L34.4,17.336 L34.4,15.644 Z M17.552,70.004 L17.552,47.36 L19.28,47.36 L19.28,70.004 L17.552,70.004 Z M18.812,37.388 L20.324,38.108 C20.072,38.576 19.748,39.08 19.388,39.584 C23.42,45.056 28.568,48.908 34.976,52.22 C34.508,52.544 34.004,53.192 33.716,53.696 C27.524,50.276 22.592,46.46 18.416,40.916 C14.6,46.1 9.02,50.78 3.296,53.66 C2.972,53.192 2.504,52.544 2,52.184 C8.768,49.016 15.212,43.364 18.812,37.388 Z M13.52,90.272 L13.52,78.752 L3.116,78.752 L3.116,77.168 L18.488,77.168 C17.948,76.088 17.156,74.648 16.364,73.568 L17.984,73.1 C18.884,74.36 19.892,76.052 20.396,77.168 L33.752,77.168 L33.752,78.752 L23.276,78.752 L23.276,90.2 L21.548,90.2 L21.548,78.752 L15.248,78.752 L15.248,90.272 L13.52,90.272 Z M25.616,81.632 L26.948,80.984 C29.288,83.18 31.916,86.276 33.14,88.256 L31.7,89.084 C30.476,87.032 27.776,83.828 25.616,81.632 Z M9.2,80.66 L10.82,81.056 C9.56,84.044 7.544,87.032 5.6,88.976 C5.312,88.724 4.628,88.256 4.196,88.04 C6.248,86.168 8.084,83.396 9.2,80.66 Z M26.732,92.972 L10.28,92.972 C12.26,95.708 14.996,98.012 18.38,99.812 C21.836,98.048 24.752,95.78 26.732,92.972 Z M28.316,91.28 L29.432,92.072 C27.308,95.708 24.068,98.516 20.108,100.712 C24.248,102.62 29.216,103.916 34.58,104.528 C34.22,104.924 33.788,105.608 33.572,106.076 C27.92,105.284 22.736,103.808 18.416,101.576 C13.916,103.772 8.732,105.176 3.548,106.112 C3.368,105.644 2.936,104.924 2.612,104.528 C7.544,103.808 12.476,102.548 16.688,100.64 C13.232,98.624 10.424,96.068 8.372,92.972 L5.456,92.972 L5.456,91.352 L27.956,91.352 L28.316,91.28 Z M34.076,113.924 L34.076,112.268 L2.792,112.268 L2.792,113.924 L13.268,113.924 C13.052,123.464 12.44,135.56 2,140.924 C2.432,141.212 3.008,141.752 3.296,142.148 C10.604,138.26 13.304,131.168 14.312,123.86 L28.748,123.86 C28.136,134.624 27.524,138.728 26.336,139.808 C25.976,140.204 25.508,140.276 24.644,140.24 C23.744,140.24 21.044,140.24 18.236,139.952 C18.596,140.456 18.812,141.104 18.848,141.644 C21.368,141.86 23.924,141.896 25.184,141.86 C26.444,141.788 27.2,141.572 27.848,140.816 C29.252,139.376 29.864,135.092 30.548,123.14 C30.548,122.888 30.584,122.204 30.584,122.204 L14.528,122.204 C14.852,119.396 14.96,116.552 15.032,113.924 L34.076,113.924 Z M17.552,178.004 L17.552,155.36 L19.28,155.36 L19.28,178.004 L17.552,178.004 Z M18.812,145.388 L20.324,146.108 C20.072,146.576 19.748,147.08 19.388,147.584 C23.42,153.056 28.568,156.908 34.976,160.22 C34.508,160.544 34.004,161.192 33.716,161.696 C27.524,158.276 22.592,154.46 18.416,148.916 C14.6,154.1 9.02,158.78 3.296,161.66 C2.972,161.192 2.504,160.544 2,160.184 C8.768,157.016 15.212,151.364 18.812,145.388 Z"></path>
        </g>
    </g>
</svg>