<?xml version="1.0" encoding="UTF-8" standalone="no"?>
<svg width="18px" height="162px" viewBox="0 0 18 162" version="1.1" xmlns="http://www.w3.org/2000/svg" xmlns:xlink="http://www.w3.org/1999/xlink">
    <!-- Generator: Sketch 42 (36781) - http://www.bohemiancoding.com/sketch -->
    <title>p5</title>
    <desc>Created with Sketch.</desc>
    <defs></defs>
    <g id="Page-1" stroke="none" stroke-width="1" fill="none" fill-rule="evenodd">
        <g id="p5" fill="#FFFFFF">
            <path d="M9.172,17.236 L9.172,5.806 L9.694,5.806 L9.694,17.236 L9.172,17.236 Z M9.676,1 L10.126,1.216 C10,1.45 9.856,1.666 9.712,1.882 C11.494,4.654 14.104,6.76 17.632,8.65 C17.488,8.722 17.326,8.902 17.236,9.046 C13.78,7.12 11.26,5.032 9.442,2.296 C7.534,4.978 4.654,7.516 1.684,9.01 C1.594,8.902 1.432,8.722 1.288,8.65 C4.654,6.976 7.894,3.97 9.676,1 Z M9.172,35.236 L9.172,23.806 L9.694,23.806 L9.694,35.236 L9.172,35.236 Z M9.676,19 L10.126,19.216 C10,19.45 9.856,19.666 9.712,19.882 C11.494,22.654 14.104,24.76 17.632,26.65 C17.488,26.722 17.326,26.902 17.236,27.046 C13.78,25.12 11.26,23.032 9.442,20.296 C7.534,22.978 4.654,25.516 1.684,27.01 C1.594,26.902 1.432,26.722 1.288,26.65 C4.654,24.976 7.894,21.97 9.676,19 Z M9.172,48.286 L9.172,45.892 L3.97,45.892 L3.97,48.286 L9.172,48.286 Z M3.97,51.382 L9.172,51.382 L9.172,48.808 L3.97,48.808 L3.97,51.382 Z M10.198,37.468 L10.684,37.63 C9.766,39.538 8.614,41.212 7.282,42.688 L10.72,42.688 L10.72,43.21 L6.778,43.21 C6.04,43.984 5.248,44.74 4.402,45.388 L9.712,45.388 L9.712,52.84 L9.172,52.84 L9.172,51.904 L3.97,51.904 L3.97,53.092 L3.448,53.092 L3.448,46.09 C2.818,46.522 2.134,46.954 1.45,47.35 C1.36,47.242 1.144,47.044 1,46.936 C2.89,45.964 4.6,44.722 6.094,43.21 L1.324,43.21 L1.324,42.688 L5.374,42.688 L5.374,39.826 L2.188,39.826 L2.188,39.304 L5.374,39.304 L5.374,37.162 L5.896,37.162 L5.896,39.304 L8.578,39.304 L8.578,39.826 L5.896,39.826 L5.896,42.688 L6.598,42.688 C8.056,41.158 9.262,39.412 10.198,37.468 Z M17.182,38.026 L17.092,38.062 L11.692,38.062 L11.692,53.236 L12.232,53.236 L12.232,38.584 L16.786,38.584 C16.03,40.132 14.932,42.13 13.834,43.912 C16.174,45.658 16.894,47.08 16.894,48.376 C16.912,49.078 16.768,49.708 16.282,49.978 C16.012,50.122 15.688,50.212 15.328,50.23 C14.842,50.284 14.122,50.266 13.42,50.194 C13.546,50.356 13.636,50.59 13.636,50.752 C14.212,50.788 14.914,50.806 15.472,50.752 C15.904,50.698 16.318,50.59 16.606,50.41 C17.218,50.032 17.452,49.24 17.434,48.376 C17.434,46.99 16.786,45.568 14.518,43.804 C15.544,42.094 16.696,39.988 17.56,38.314 L17.182,38.026 Z M7.192,63.424 L7.192,57.466 L1.792,57.466 L1.792,56.944 L9.712,56.944 C9.442,56.386 8.992,55.63 8.56,55.054 L9.028,54.892 C9.514,55.522 10.036,56.386 10.288,56.944 L17.11,56.944 L17.11,57.466 L11.674,57.466 L11.674,63.388 L11.152,63.388 L11.152,57.466 L7.732,57.466 L7.732,63.424 L7.192,63.424 Z M13.15,58.906 L13.6,58.744 C14.77,59.896 16.12,61.552 16.714,62.578 L16.228,62.794 C15.616,61.732 14.266,60.058 13.15,58.906 Z M5.068,58.546 L5.59,58.672 C4.978,60.202 3.97,61.714 2.98,62.722 C2.89,62.65 2.656,62.488 2.512,62.416 C3.556,61.426 4.492,59.986 5.068,58.546 Z M13.888,64.54 L5.086,64.54 C6.112,66.07 7.588,67.348 9.406,68.338 C11.296,67.366 12.862,66.106 13.888,64.54 Z M14.428,63.982 L14.752,64.252 C13.672,66.088 11.98,67.528 9.946,68.626 C12.124,69.706 14.698,70.426 17.47,70.786 C17.362,70.912 17.236,71.11 17.164,71.254 C14.302,70.858 11.656,70.066 9.442,68.896 C7.174,70.048 4.546,70.786 1.936,71.272 C1.864,71.128 1.72,70.912 1.612,70.786 C4.15,70.354 6.706,69.652 8.902,68.59 C7.048,67.546 5.536,66.178 4.51,64.54 L3.016,64.54 L3.016,64.018 L14.284,64.018 L14.428,63.982 Z M16.462,75.52 L16.156,75.934 C15.382,75.268 13.87,74.314 12.61,73.702 L12.916,73.342 C14.176,73.954 15.688,74.872 16.462,75.52 Z M15.634,78.832 L16.174,78.976 C15.382,81.352 14.284,83.35 12.898,85.06 C13.726,87.292 14.788,88.552 16.066,88.552 C16.678,88.552 16.912,87.598 17.038,85.06 C17.164,85.168 17.38,85.276 17.524,85.312 C17.38,88.12 17.11,89.092 16.03,89.092 C14.554,89.092 13.384,87.778 12.52,85.51 C11.26,86.968 9.784,88.138 8.074,89.11 C7.984,89.002 7.786,88.804 7.66,88.696 C9.478,87.742 11.044,86.482 12.322,84.934 C11.62,82.864 11.152,80.11 10.918,76.96 L3.628,76.96 L3.628,79.75 L8.398,79.75 L8.398,80.092 C8.29,84.394 8.182,85.834 7.84,86.266 C7.624,86.5 7.39,86.59 6.922,86.608 C6.472,86.626 5.608,86.608 4.69,86.536 C4.672,86.374 4.618,86.158 4.51,86.014 C5.518,86.104 6.472,86.104 6.796,86.104 C7.066,86.104 7.264,86.086 7.372,85.942 C7.66,85.636 7.786,84.232 7.876,80.272 L3.628,80.272 L3.628,81.298 C3.628,83.674 3.376,86.968 1.738,89.272 C1.648,89.164 1.45,89.002 1.306,88.93 C2.908,86.68 3.106,83.602 3.106,81.28 L3.106,76.438 L10.882,76.438 C10.81,75.34 10.774,74.224 10.756,73.054 L11.296,73.054 C11.296,74.224 11.332,75.358 11.404,76.438 L17.398,76.438 L17.398,76.96 L11.44,76.96 C11.656,79.984 12.088,82.522 12.718,84.466 C13.942,82.882 14.932,80.974 15.634,78.832 Z M11.62,106.318 C10.54,106.318 10.306,106.156 10.306,105.544 L10.306,98.344 L17.398,98.344 L17.398,97.822 L9.028,97.822 C9.316,96.112 9.388,94.366 9.442,92.836 L16.336,92.836 L16.336,92.314 L2.656,92.314 L2.656,92.836 L8.938,92.836 C8.902,94.348 8.83,96.094 8.506,97.822 L1.504,97.822 L1.504,98.344 L8.416,98.344 C7.66,101.782 5.878,105.148 1.36,106.858 C1.45,106.948 1.63,107.146 1.72,107.272 C6.4,105.454 8.2,101.944 8.92,98.344 L9.784,98.344 L9.784,105.526 C9.784,106.606 10.198,106.84 11.656,106.84 L15.706,106.84 C17.2,106.84 17.416,106.156 17.524,103.474 C17.362,103.438 17.164,103.348 17.002,103.222 C16.912,105.85 16.75,106.318 15.706,106.318 L11.62,106.318 Z M8.776,117.784 L15.166,117.784 C15.166,117.784 15.148,118.036 15.13,118.126 C14.752,122.644 14.392,124.264 13.798,124.84 C13.51,125.11 13.24,125.182 12.736,125.182 C12.268,125.2 11.296,125.182 10.306,125.092 C10.288,124.948 10.234,124.732 10.144,124.588 C11.242,124.678 12.268,124.696 12.628,124.696 C13.006,124.696 13.186,124.678 13.348,124.516 C13.87,124.048 14.23,122.446 14.59,118.306 L8.668,118.306 C8.02,121.33 6.562,123.976 2.872,125.362 C2.782,125.236 2.602,125.02 2.476,124.948 C6.076,123.652 7.48,121.132 8.128,118.306 L2.548,118.306 L2.548,117.784 L8.218,117.784 C8.398,116.902 8.506,115.984 8.578,115.066 L9.118,115.066 C9.028,115.984 8.92,116.902 8.776,117.784 Z M7.084,112.582 L7.552,112.78 C6.31,114.364 4.636,115.768 2.89,116.614 L2.494,116.272 C4.186,115.48 5.914,114.094 7.084,112.582 Z M11.206,112.942 L11.548,112.672 C13.132,113.716 15.004,115.192 15.958,116.164 L15.598,116.47 C14.662,115.516 12.772,113.986 11.206,112.942 Z M10.198,110.998 L16.768,110.998 L16.768,114.094 L16.246,114.094 L16.246,111.52 L2.584,111.52 L2.584,114.094 L2.062,114.094 L2.062,110.998 L9.604,110.998 C9.334,110.404 8.902,109.648 8.506,109.054 L8.992,108.892 C9.442,109.558 9.928,110.404 10.198,110.998 Z M10.648,130.024 C10.306,129.268 9.496,128.008 8.758,127.054 L8.308,127.252 C9.046,128.206 9.838,129.484 10.18,130.276 L10.648,130.024 Z M15.058,130.762 L14.932,130.816 L2.404,130.816 L2.404,131.338 L14.536,131.338 C12.448,134.326 8.308,138.124 4.708,140.086 C4.6,140.032 4.51,140.014 4.384,140.014 C3.538,140.014 2.566,140.986 1.468,142.228 L1.918,142.678 C2.89,141.454 3.772,140.536 4.384,140.536 C4.762,140.536 5.32,141.13 5.986,141.598 C7.174,142.372 8.686,142.534 10.864,142.534 C12.538,142.534 16.012,142.444 17.398,142.354 C17.416,142.174 17.506,141.868 17.578,141.724 C15.832,141.85 13.222,141.976 10.864,141.976 C8.812,141.976 7.372,141.85 6.256,141.13 C5.806,140.86 5.5,140.572 5.23,140.374 C8.956,138.25 13.276,134.272 15.436,131.032 L15.058,130.762 Z M8.758,145.486 L9.226,145.756 C8.758,146.602 8.146,147.574 7.624,148.222 L7.246,148.006 C7.732,147.34 8.398,146.224 8.758,145.486 Z M4.078,148.024 L3.646,148.204 C3.448,147.556 2.926,146.53 2.404,145.774 L2.818,145.612 C3.358,146.35 3.898,147.358 4.078,148.024 Z M5.5,152.632 L5.5,149.68 C4.582,151.048 3.178,152.362 1.81,153.082 C1.738,152.92 1.576,152.74 1.468,152.614 C2.908,151.948 4.456,150.508 5.32,149.05 L1.486,149.05 L1.486,148.528 L5.5,148.528 L5.5,145 L6.022,145 L6.022,148.528 L9.982,148.528 L9.982,149.05 L6.022,149.05 L6.022,149.158 C6.778,149.626 8.938,151.084 9.442,151.48 L9.1,151.93 C8.578,151.498 6.958,150.292 6.022,149.662 L6.022,152.632 L5.5,152.632 Z M8.398,154.9 L4.798,154.9 C4.438,155.602 4.06,156.304 3.718,156.862 C4.564,157.168 5.5,157.6 6.346,158.014 C7.246,157.186 7.966,156.16 8.398,154.9 Z M8.614,159.31 L8.2,159.724 C7.732,159.4 7.102,159.004 6.4,158.644 C5.05,159.778 3.412,160.534 1.756,160.966 C1.702,160.822 1.576,160.624 1.468,160.534 C3.052,160.138 4.636,159.454 5.914,158.392 C4.978,157.924 3.934,157.438 2.98,157.096 C3.376,156.502 3.844,155.71 4.24,154.9 L1.882,154.9 L1.882,154.378 L4.51,154.378 C4.708,153.928 4.906,153.514 5.05,153.1 L5.554,153.19 C5.41,153.568 5.23,153.964 5.05,154.378 L8.65,154.378 L8.776,154.342 L9.082,154.504 C8.614,156.052 7.804,157.276 6.796,158.248 C7.516,158.626 8.164,158.986 8.614,159.31 Z M11.728,149.194 L11.692,149.338 C12.088,151.696 12.682,153.91 13.546,155.782 C14.464,153.982 15.076,151.786 15.454,149.194 L11.728,149.194 Z M17.308,149.194 L16.012,149.194 C15.544,152.074 14.878,154.414 13.834,156.34 C14.824,158.284 16.102,159.778 17.74,160.642 C17.596,160.75 17.434,160.93 17.344,161.074 C15.778,160.174 14.518,158.698 13.546,156.844 C12.448,158.68 10.972,160.12 8.992,161.236 C8.92,161.128 8.74,160.93 8.614,160.804 C10.702,159.724 12.196,158.248 13.276,156.322 C12.448,154.558 11.818,152.506 11.386,150.274 C10.954,151.498 10.468,152.614 9.874,153.532 C9.784,153.46 9.532,153.298 9.388,153.226 C10.738,151.318 11.566,148.366 12.052,145.288 L12.592,145.378 C12.394,146.512 12.16,147.628 11.872,148.672 L17.308,148.672 L17.308,149.194 Z"></path>
        </g>
    </g>
</svg>