<svg id="songjiang" xmlns="http://www.w3.org/2000/svg" viewBox="0 0 320.438 605.741"><title>songjiang-regular</title><g id="path"><path d="M17.456,208.927a56.965,56.965,0,0,0-6.859,5.531c-2.377,2.377-4.91,4.548-7.08,7.08-13.045,15.219,28.97,17.143,26.992,32.967-0.76,6.085-8.784-5.243-12.168,2.655-3.667,8.554,8.053,19.529,16.372,18.142,7.45-1.241,21.3-20.244,35.622-24.338" transform="translate(0 -0.002)" fill-opacity="0" stroke="#000" stroke-linecap="round" stroke-linejoin="round" stroke-width="2"/><path d="M76.53,158.482c-0.8,12.563,1.619,39.241-3.54,49.56" transform="translate(0 -0.002)" fill-opacity="0" stroke="#000" stroke-linecap="round" stroke-linejoin="round" stroke-width="2"/><path d="M55.95,172.863c4.916,19.5,12.488,37.669,24.559,53.764" transform="translate(0 -0.002)" fill-opacity="0" stroke="#000" stroke-linecap="round" stroke-linejoin="round" stroke-width="2"/><path d="M57.945,204.944c4.08,7.2,7.776,16.4,14.381,21.683" transform="translate(0 -0.002)" fill-opacity="0" stroke="#000" stroke-linecap="round" stroke-linejoin="round" stroke-width="2"/><path d="M54.4,215.343c2.578,5.066,5.039,9.44,9.956,12.39" transform="translate(0 -0.002)" fill-opacity="0" stroke="#000" stroke-linecap="round" stroke-linejoin="round" stroke-width="2"/><path d="M37.811,208.263c4.179,7.3,8.763,15.776,16.594,19.691" transform="translate(0 -0.002)" fill-opacity="0" stroke="#000" stroke-linecap="round" stroke-linejoin="round" stroke-width="2"/><path d="M27.633,214.237A24.133,24.133,0,0,0,38.7,228.176c5.761,3.2,11.617,6.526,18.585,5.531,11.322-1.618,33.935-10.42,37.391,6.859" transform="translate(0 -0.002)" fill-opacity="0" stroke="#000" stroke-linecap="round" stroke-linejoin="round" stroke-width="2"/><path d="M98.212,171.757c-5.751,8.233-13.777,14.441-20.8,21.461" transform="translate(0 -0.002)" fill-opacity="0" stroke="#000" stroke-linecap="round" stroke-linejoin="round" stroke-width="2"/><path d="M80.07,201.183c7.331-3.614,14.024-8.361,20.576-13.275" transform="translate(0 -0.002)" fill-opacity="0" stroke="#000" stroke-linecap="round" stroke-linejoin="round" stroke-width="2"/><path d="M78.078,210.033c8.068,1.286,12.942-6.6,19.028-8.629" transform="translate(0 -0.002)" fill-opacity="0" stroke="#000" stroke-linecap="round" stroke-linejoin="round" stroke-width="2"/><path d="M81.618,217.334c9.323,1.468,17.372-1.163,25.666-5.31" transform="translate(0 -0.002)" fill-opacity="0" stroke="#000" stroke-linecap="round" stroke-linejoin="round" stroke-width="2"/><path d="M105.514,249.416h0" transform="translate(0 -0.002)" fill-opacity="0" stroke="#000" stroke-linecap="round" stroke-linejoin="round" stroke-width="2"/><path d="M105.292,247.867c-1.457-.148-2.426-1.546-3.761-1.991-6.359-2.12-17.743-1.727-22.789,3.319-2.394,2.394-3.833,5.674-5.31,8.628A23.207,23.207,0,0,0,71,270.877c1.711,15.392,11.12,29.058,12.833,44.472s-0.587,37.2-9.735,50" transform="translate(0 -0.002)" fill-opacity="0" stroke="#000" stroke-linecap="round" stroke-linejoin="round" stroke-width="2"/><path d="M94.45,254.947c-1.167,1.893-.7,5.416,1.991,5.753,10.134,1.266,16.338-21.066,28.32-15.931a8.522,8.522,0,0,1,4.647,6.417c0.7,3.863.442,7.987,0.442,11.947" transform="translate(0 -0.002)" fill-opacity="0" stroke="#000" stroke-linecap="round" stroke-linejoin="round" stroke-width="2"/><path d="M116.35,255.168c3.775,13.177,17.875,5.246,25.665,16.152,1.583,2.215,1.63,5.434,1.991,7.965,2.58,18.059-24.354,25.758-34.515,37.612-8.1,9.447-14.16,29.7-14.16,42.038" transform="translate(0 -0.002)" fill-opacity="0" stroke="#000" stroke-linecap="round" stroke-linejoin="round" stroke-width="2"/><path d="M69.892,279.285c-3.226,11.008-15.226,16.473-18.806,27.213" transform="translate(0 -0.002)" fill-opacity="0" stroke="#000" stroke-linecap="round" stroke-linejoin="round" stroke-width="2"/><path d="M70.777,285.258c-5.626,10.481-14.454,18.435-17.479,30.533" transform="translate(0 -0.002)" fill-opacity="0" stroke="#000" stroke-linecap="round" stroke-linejoin="round" stroke-width="2"/><path d="M72.768,294.108c-3.562,5.718-12.671,14.139-14.6,20.577-1.144,3.813-1,7.876-1.77,11.726" transform="translate(0 -0.002)" fill-opacity="0" stroke="#000" stroke-linecap="round" stroke-linejoin="round" stroke-width="2"/><path d="M76.087,297.206a14.167,14.167,0,0,0-1.106,4.646c-3.135,21.941-20.7,27.608-23.674,48.454-0.827,5.787,3.184,14.721,10.178,12.39" transform="translate(0 -0.002)" fill-opacity="0" stroke="#000" stroke-linecap="round" stroke-linejoin="round" stroke-width="2"/><path d="M58.83,352.519c1.218-1.458,5.783-6.506,7.743-3.762,5.762,8.067-5.858,18.2-8.407,25a41.68,41.68,0,0,0-1.549,7.744c-1.4,8.411,8.464,15.441,13.939,20.133,2.278,1.953,3.869,4.534,5.974,6.638" transform="translate(0 -0.002)" fill-opacity="0" stroke="#000" stroke-linecap="round" stroke-linejoin="round" stroke-width="2"/><path d="M8.827,242.114C6.432,251.779-1.345,264.581,4.4,274.638c4.315,7.552,16.96,8.812,24.116,12.39,8.13,4.066,9.95,12.934,14.6,19.913" transform="translate(0 -0.002)" fill-opacity="0" stroke="#000" stroke-linecap="round" stroke-linejoin="round" stroke-width="2"/><path d="M23.208,289.462a77.3,77.3,0,0,1,2.213,10.178c0.66,4.625.677,13.679,3.54,17.257,2.08,2.6,4.832,3.475,7.522,5.089,7.491,4.495,11.484,11,14.16,19.028" transform="translate(0 -0.002)" fill-opacity="0" stroke="#000" stroke-linecap="round" stroke-linejoin="round" stroke-width="2"/><path d="M117.138,310.563c3.685,19.168-8.457,37.939-15.386,54.567-2.555,6.133-1.725,12.7-3.761,18.806" transform="translate(0 -0.002)" fill-opacity="0" stroke="#000" stroke-linecap="round" stroke-linejoin="round" stroke-width="2"/><path d="M123.014,307.826c-0.8,5,.823,13.6.2,18.585-1.6,12.759-9.7,24.745-14.824,36.285-4.517,10.164-5.753,22.626-5.753,33.63" transform="translate(0 -0.002)" fill-opacity="0" stroke="#000" stroke-linecap="round" stroke-linejoin="round" stroke-width="2"/><path d="M128.779,303.246c1.044,12.643,1.384,30.142-5.123,41.529-2.568,4.494-5.574,8.944-7.744,13.717-5.931,13.05-8.591,30.94-5.752,45.136" transform="translate(0 -0.002)" fill-opacity="0" stroke="#000" stroke-linecap="round" stroke-linejoin="round" stroke-width="2"/><path d="M73.65,390.8c8.329,6.577,7.538,17.974,10.178,27.214,1.259,4.4,3.479,8.27,5.31,12.39,3.7,8.316,10.506,18.172,18.585,22.789,2.671,1.526,5.468,1.222,8.408,1.549,14.38,1.6,18.164-5.886,20.355-19.028,1.646-9.877-1.141-23.08-5.532-31.86-1.96-3.921-4.236-7.558-5.752-11.726-2.814-7.738-2.979-18.157-2.434-26.329,0.379-5.68.3-10.149,2.238-15.466,0.988-2.716,3.68-6.7,4.842-9.314,6.914-15.557,15.623-31.318,11.284-48.676" transform="translate(0 -0.002)" fill-opacity="0" stroke="#000" stroke-linecap="round" stroke-linejoin="round" stroke-width="2"/><path d="M140.087,333.219c-10.73,26.334,9.044,59.774,3.889,85.548-1.077,5.387-3.194,10.1-4.926,15.3" transform="translate(0 -0.002)" fill-opacity="0" stroke="#000" stroke-linecap="round" stroke-linejoin="round" stroke-width="2"/><path d="M142.939,312.22c0.023,6.857,7.617,11.691,6.222,18.665-0.689,3.445-8.26,12.336-10.629,19.443" transform="translate(0 -0.002)" fill-opacity="0" stroke="#000" stroke-linecap="round" stroke-linejoin="round" stroke-width="2"/><path d="M11.25,224.857c6.04-6.188,11.994-16.417,13.74-25.146,6.318-31.59,14.983-61.924,44.07-80.1,15.89-9.931,36.53-11.9,50.033-25.4" transform="translate(0 -0.002)" fill-opacity="0" stroke="#000" stroke-linecap="round" stroke-linejoin="round" stroke-width="2"/><path d="M109.019,102.257c1.417,6.936,7.2,17.806,12.663,22.276,21.246,17.383,53.007.463,66.1-19.184" transform="translate(0 -0.002)" fill-opacity="0" stroke="#000" stroke-linecap="round" stroke-linejoin="round" stroke-width="2"/><path d="M187.787,105.349c5.633,1.6,14.3,6.92,19.184,9.851,14.543,8.726,30.948,19.937,34.478,37.589,0.616,3.079-.55,5.9-1.037,8.814-0.425,2.55-3.122,7.954-5.7,8.814" transform="translate(0 -0.002)" fill-opacity="0" stroke="#000" stroke-linecap="round" stroke-linejoin="round" stroke-width="2"/><path d="M242.772,157.134c6.2,7.983-2.142,13.283-5.471,18.468a10.089,10.089,0,0,0-.777,6.74" transform="translate(0 -0.002)" fill-opacity="0" stroke="#000" stroke-linecap="round" stroke-linejoin="round" stroke-width="2"/><path d="M245.692,167.388c6.386,12.526-14.133,14.544-5.8,28.435" transform="translate(0 -0.002)" fill-opacity="0" stroke="#000" stroke-linecap="round" stroke-linejoin="round" stroke-width="2"/><path d="M246.945,178.1c6.9,5.8,9.816,18,16.021,24.208" transform="translate(0 -0.002)" fill-opacity="0" stroke="#000" stroke-linecap="round" stroke-linejoin="round" stroke-width="2"/><path d="M227.969,173.01c9.322,21.582,9,72.743,4.148,95.4a111.217,111.217,0,0,1-9.333,26.442" transform="translate(0 -0.002)" fill-opacity="0" stroke="#000" stroke-linecap="round" stroke-linejoin="round" stroke-width="2"/><path d="M227.45,289.148c2.072,10.518.2,11.95-8.814,15.554-1.4.561-2.066,1.681-3.37,2.334-1.018.509-2.016,0.461-2.851,1.3" transform="translate(0 -0.002)" fill-opacity="0" stroke="#000" stroke-linecap="round" stroke-linejoin="round" stroke-width="2"/><path d="M211.306,119.054c-8.95,25.011-33.4,47.293-61.368,45.142-2.543-.2-4.989-1.044-7.517-1.3a71.631,71.631,0,0,1-29.813-10.111C100.484,145.511,88.985,126.279,82.8,113.9" transform="translate(0 -0.002)" fill-opacity="0" stroke="#000" stroke-linecap="round" stroke-linejoin="round" stroke-width="2"/><path d="M176.64,318.7c-0.115-3.416,3.817-3.458,4.407-7,0.586-3.517-5.553-3.755-4.926-7.518,0.488-2.926,3.187-5.413,4.148-8.3,1.161-3.483,1.956-7.3,2.852-10.888,1.055-4.222.418-8.908,0.777-13.221a225.443,225.443,0,0,0-.777-44.07c-2.213-19.911-3.336-43.743-12.444-61.958" transform="translate(0 -0.002)" fill-opacity="0" stroke="#000" stroke-linecap="round" stroke-linejoin="round" stroke-width="2"/><path d="M272.3,198.934c-3.123,2.176-11.048,6.892-9.848,11.666,1.059,4.236,8.58,7.725,11.666,10.37,5.767,4.943,10.668,13.2,11.925,20.739" transform="translate(0 -0.002)" fill-opacity="0" stroke="#000" stroke-linecap="round" stroke-linejoin="round" stroke-width="2"/><path d="M274.113,202.822c0.129,1.122-1.209,1.007-1.555,1.815-4.3,10.029,6.184,16.636,9.851,24.887,1.13,2.542,1.27,5.833,1.814,8.554" transform="translate(0 -0.002)" fill-opacity="0" stroke="#000" stroke-linecap="round" stroke-linejoin="round" stroke-width="2"/><path d="M274.632,205.674h0" transform="translate(0 -0.002)" fill-opacity="0" stroke="#000" stroke-linecap="round" stroke-linejoin="round" stroke-width="2"/><path d="M271.78,208.785h0" transform="translate(0 -0.002)" fill-opacity="0" stroke="#000" stroke-linecap="round" stroke-linejoin="round" stroke-width="2"/><path d="M256.485,212.155c-4.971-2.339-15.569,1.674-16.332,7.777-0.84,6.719,2.865,12.484,4.925,18.665,4.019,12.055,10.036,33.24,5.185,45.366" transform="translate(0 -0.002)" fill-opacity="0" stroke="#000" stroke-linecap="round" stroke-linejoin="round" stroke-width="2"/><path d="M259.85,218.9c-3.235,2.687-5.117,6.785-7.777,10.11" transform="translate(0 -0.002)" fill-opacity="0" stroke="#000" stroke-linecap="round" stroke-linejoin="round" stroke-width="2"/><path d="M256.226,243.263c10.4,33.252-30.954,81.5-27.739,110.435,0.7,6.277,4.186,13.119,7.777,18.147" transform="translate(0 -0.002)" fill-opacity="0" stroke="#000" stroke-linecap="round" stroke-linejoin="round" stroke-width="2"/><path d="M266.077,220.71c-3.828,6.231-4.381,13.407-3.37,20.479,1.06,7.425,4.628,14.245,7.258,21.258,4.173,11.127,4.56,26.986,3.37,38.885-3.158,31.583-21.678,60.841-4.666,92.03,4.127,7.566,14.121,23.1,24.628,21,8.526-1.706,11.752-8.412,16.332-14.518,5.268-7.024,5.678-13.025,6.74-21.516,5.426-43.407-13.889-55.789-27.479-92.029-6.487-17.3.139-28.836-1.815-42.515-0.58-4.061-2.344-7.86-2.852-11.925" transform="translate(0 -0.002)" fill-opacity="0" stroke="#000" stroke-linecap="round" stroke-linejoin="round" stroke-width="2"/><path d="M298.481,244.819h0" transform="translate(0 -0.002)" fill-opacity="0" stroke="#000" stroke-linecap="round" stroke-linejoin="round" stroke-width="2"/><path d="M297.444,247.67c2.581,5.3,7.037,10.851,8.037,16.851,1.378,8.271-5.473,14.315-4.407,21.776,1.016,7.116,5.92,14.173,9.073,20.479,7.674,15.348,11.429,36.18,8.036,53.144" transform="translate(0 -0.002)" fill-opacity="0" stroke="#000" stroke-linecap="round" stroke-linejoin="round" stroke-width="2"/><path d="M297.185,267.631c7.912,33.3-.259,7.055-0.259-7" transform="translate(0 -0.002)" fill-opacity="0" stroke="#000" stroke-linecap="round" stroke-linejoin="round" stroke-width="2"/><path d="M237.042,348c1.258,10.6.8,21.208,3.111,31.627,4.421,19.893,26.376,35.256,45.885,35.256" transform="translate(0 -0.002)" fill-opacity="0" stroke="#000" stroke-linecap="round" stroke-linejoin="round" stroke-width="2"/><path d="M264,372.882c9.309,5.238,15.008,2.995,23.59-1.3,17.609-8.8,16.313-31.976,18.147-48.478" transform="translate(0 -0.002)" fill-opacity="0" stroke="#000" stroke-linecap="round" stroke-linejoin="round" stroke-width="2"/><path d="M262.966,356.809c29.612,8.154,33.993-15.394,41.478-37.849" transform="translate(0 -0.002)" fill-opacity="0" stroke="#000" stroke-linecap="round" stroke-linejoin="round" stroke-width="2"/><path d="M266.85,350.587c23.571,11.607,26.7-27.742,29.035-41.737" transform="translate(0 -0.002)" fill-opacity="0" stroke="#000" stroke-linecap="round" stroke-linejoin="round" stroke-width="2"/><path d="M271.78,321.034c12.66,2.868,16.662-12.262,20.739-21.776" transform="translate(0 -0.002)" fill-opacity="0" stroke="#000" stroke-linecap="round" stroke-linejoin="round" stroke-width="2"/><path d="M275.928,299.258c5.445-4.088,7.606-9.193,10.11-15.035" transform="translate(0 -0.002)" fill-opacity="0" stroke="#000" stroke-linecap="round" stroke-linejoin="round" stroke-width="2"/><path d="M276.187,287.593c5.617-3.255,8.1-9.365,10.369-15.036" transform="translate(0 -0.002)" fill-opacity="0" stroke="#000" stroke-linecap="round" stroke-linejoin="round" stroke-width="2"/><path d="M275.409,278.26c3.978-3.82,7-9.464,7-15.036" transform="translate(0 -0.002)" fill-opacity="0" stroke="#000" stroke-linecap="round" stroke-linejoin="round" stroke-width="2"/><path d="M274.632,262.706c4.848-5.284,7.269-12.2,12.184-17.11" transform="translate(0 -0.002)" fill-opacity="0" stroke="#000" stroke-linecap="round" stroke-linejoin="round" stroke-width="2"/><path d="M281.631,254.67c-0.379,2.594,2.491,3.629,4.407,3.629" transform="translate(0 -0.002)" fill-opacity="0" stroke="#000" stroke-linecap="round" stroke-linejoin="round" stroke-width="2"/><path d="M269.45,226.672c0.462,6.4,1.323,12.894,3.888,18.665" transform="translate(0 -0.002)" fill-opacity="0" stroke="#000" stroke-linecap="round" stroke-linejoin="round" stroke-width="2"/><path d="M266.85,222.265c-0.435,7.764-3.529,22.5,3.889,27.22" transform="translate(0 -0.002)" fill-opacity="0" stroke="#000" stroke-linecap="round" stroke-linejoin="round" stroke-width="2"/><path d="M272.039,226.154c1.051,8.677,11.147,13.133,11.147,22.294" transform="translate(0 -0.002)" fill-opacity="0" stroke="#000" stroke-linecap="round" stroke-linejoin="round" stroke-width="2"/><path d="M290.445,243C297,246.314,299,233.052,299,228.483" transform="translate(0 -0.002)" fill-opacity="0" stroke="#000" stroke-linecap="round" stroke-linejoin="round" stroke-width="2"/><path d="M153.49,326.184c10.523,0.87,21.04-.4,31.251-2.446,5.357-1.071,10.481-4.375,15.49-6.522,3.548-1.52,9.106-3.67,11.685-6.25" transform="translate(0 -0.002)" fill-opacity="0" stroke="#000" stroke-linecap="round" stroke-linejoin="round" stroke-width="2"/><path d="M148.326,340.315h0" transform="translate(0 -0.002)" fill-opacity="0" stroke="#000" stroke-linecap="round" stroke-linejoin="round" stroke-width="2"/><path d="M148.326,340.859c20.392,1.4,39.244-1.632,57.34-11.685,3.893-2.163,10.2-4.03,12.772-7.881" transform="translate(0 -0.002)" fill-opacity="0" stroke="#000" stroke-linecap="round" stroke-linejoin="round" stroke-width="2"/><path d="M176.317,340.044c-0.169,3.03,2.161,5.641,2.717,8.424,0.51,2.547-4.424,5.441-3.8,9.783,0.408,2.856,2.671,5.441,2.174,8.424-0.407,2.442-2.081,7.027-1.087,9.512,1.02,2.551,2.653,6.635,2.174,9.511-0.583,3.5-4.976,9.821-4.076,15.218,0.4,2.374,2.514,4.419,2.989,6.794a30.487,30.487,0,0,1-2.174,19.566" transform="translate(0 -0.002)" fill-opacity="0" stroke="#000" stroke-linecap="round" stroke-linejoin="round" stroke-width="2"/><path d="M163.816,343.3c4.206,3.2,7.753,8.015,13.86,7.337,6.684-.743,10.443-7.726,14.674-11.957" transform="translate(0 -0.002)" fill-opacity="0" stroke="#000" stroke-linecap="round" stroke-linejoin="round" stroke-width="2"/><path d="M154.033,345.75c4.992,7.954,12.4,16.3,22.556,16.3,1.058,0,2.539.225,3.532-.271,5.906-2.953,10.459-10.863,13.316-16.577" transform="translate(0 -0.002)" fill-opacity="0" stroke="#000" stroke-linecap="round" stroke-linejoin="round" stroke-width="2"/><path d="M149.142,346.837a12.815,12.815,0,0,1,1.9,5.164c0.664,3.319.692,6.721,1.359,10.054,1.444,7.221,6.527,13.217,10.055,19.567,1.835,3.3,3.21,6.963,4.891,10.326,1.26,2.52,3.323,4.713,4.892,7.066,3.091,4.636,6.467,16.2,4.619,21.74" transform="translate(0 -0.002)" fill-opacity="0" stroke="#000" stroke-linecap="round" stroke-linejoin="round" stroke-width="2"/><path d="M145.609,359.338a86.781,86.781,0,0,0,9.511,36.143c1.439,2.877,2.571,6.03,4.348,8.7,3.864,5.8,13.083,19.6,11.957,26.36a34.211,34.211,0,0,1-1.63,4.891" transform="translate(0 -0.002)" fill-opacity="0" stroke="#000" stroke-linecap="round" stroke-linejoin="round" stroke-width="2"/><path d="M199.687,337.87c1.474,13.339-4.012,25.729-7.609,38.317-1.827,6.4-2.155,13.278-5.163,19.294" transform="translate(0 -0.002)" fill-opacity="0" stroke="#000" stroke-linecap="round" stroke-linejoin="round" stroke-width="2"/><path d="M206.481,334.337c2.676,12.109-2.216,27.649-6.522,39.132-0.553,1.474-.592,3.136-1.087,4.62-2.829,8.489-5.224,17.242-9.239,25.273-3.2,6.4-3.969,15.11-9.24,20.381" transform="translate(0 -0.002)" fill-opacity="0" stroke="#000" stroke-linecap="round" stroke-linejoin="round" stroke-width="2"/><path d="M207.568,364.773c-3.938,21.028-11.435,50.516-22.012,69.025-3.1,5.423-6.851,13.988-11.957,17.392" transform="translate(0 -0.002)" fill-opacity="0" stroke="#000" stroke-linecap="round" stroke-linejoin="round" stroke-width="2"/><path d="M210.286,381.622c-0.811,6.609-1.083,13.26-1.631,19.837-0.593,7.114-3.966,17.335-6.25,24.186-0.688,2.066-1.814,4.364-2.174,6.522-3.031,18.185-8.753,35.752-15.218,52.992-0.666,1.776-1.009,3.921-1.9,5.707-1.555,3.109-3.451,6.086-4.892,8.967-1.192,2.385-4.309,4.271-5.707,7.066" transform="translate(0 -0.002)" fill-opacity="0" stroke="#000" stroke-linecap="round" stroke-linejoin="round" stroke-width="2"/><path d="M212.46,397.111h0" transform="translate(0 -0.002)" fill-opacity="0" stroke="#000" stroke-linecap="round" stroke-linejoin="round" stroke-width="2"/><path d="M210.829,399.014c0.207,1.841-.271,3.638-0.271,5.435,0,4.841.4,9.947-.272,14.674-1.447,10.125-4.526,19.721-5.979,29.893-0.463,3.245-.184,6.553-0.543,9.783-0.9,8.064-5.631,29.263-8.7,36.415-0.928,2.165-10.206,18.878-11.686,20.653-2.743,3.292-6.581,5.931-8.967,9.511" transform="translate(0 -0.002)" fill-opacity="0" stroke="#000" stroke-linecap="round" stroke-linejoin="round" stroke-width="2"/><path d="M208.65,453.364c-3.4,18.677-5.4,37.668-11.413,55.709-2.284,6.85-3.842,13.7-7.338,20.11-0.922,1.691-1.394,3.858-2.445,5.435-1.676,2.513-3.325,5.5-5.435,7.609-1.5,1.5-3.919,2.131-4.892,4.076" transform="translate(0 -0.002)" fill-opacity="0" stroke="#000" stroke-linecap="round" stroke-linejoin="round" stroke-width="2"/><path d="M218.982,327.271c2.521,4.367,4.1,9.018,3.533,14.131-0.495,4.453-8.244,14.788-1.087,16.577" transform="translate(0 -0.002)" fill-opacity="0" stroke="#000" stroke-linecap="round" stroke-linejoin="round" stroke-width="2"/><path d="M221.156,350.1c1.561,6.708,3.426,13.3,2.717,20.382-0.62,6.2-1.844,12.365-2.717,18.479-1.143,8-1.284,16.173-2.174,24.186-0.884,7.958-2.937,22.326-1.631,30.164,1.085,6.509,2.868,13.01,3.8,19.566,0.976,6.832.925,13.817,1.9,20.653,1.408,9.859,3.6,23.01,1.631,32.882-1.5,7.5-7.369,13.682-9.783,20.925" transform="translate(0 -0.002)" fill-opacity="0" stroke="#000" stroke-linecap="round" stroke-linejoin="round" stroke-width="2"/><path d="M215.177,446.3c-1.623,4.058-1.337,2.933-2.445,8.7-0.688,3.577-.513,7.516-0.816,11.142-0.393,4.726-1.471,9.389-1.9,14.131-0.864,9.507-1.714,19.026-2.446,28.534-0.7,9.053.458,18.738-2.445,27.447" transform="translate(0 -0.002)" fill-opacity="0" stroke="#000" stroke-linecap="round" stroke-linejoin="round" stroke-width="2"/><path d="M213.55,501.464c-1.272,20.477,1.021,39.341,8.968,57.883a40.747,40.747,0,0,0,5.435,9.511c0.2,0.249.877,0.586,0.543,1.087-0.663.995-3.473,1.792-4.62,2.174-2.154.718-3.964,2.261-6.25,2.718-4.119.824-8.569-.254-12.772,0.272a15.837,15.837,0,0,0-5.707,1.63c-3.244,1.947-11.154,10.079-12.772,13.316" transform="translate(0 -0.002)" fill-opacity="0" stroke="#000" stroke-linecap="round" stroke-linejoin="round" stroke-width="2"/><path d="M152.674,429.993c0.964,3.726,1.4,7.477,2.446,11.142,2.352,8.232,4.983,16.4,7.066,24.729,1.256,5.024,1.571,10.251,2.717,15.219,1.48,6.411,2.785,12.835,4.077,19.294,0.786,3.931,2.546,7.7,2.989,11.685,1.179,10.613,3.522,21,5.435,31.523,0.9,4.933,1.234,10.1,2.446,14.947,2.295,9.179,3.859,18.482,5.706,27.718,0.284,1.417,2.206,7.819,1.631,8.968-0.28.56-7.057,2.985-8.153,3.533-1.936.968-3.433,3.347-5.435,4.348-0.741.371-15.87,1.794-16.848,1.631a24.8,24.8,0,0,0-4.077-.816c-3.983,0-7.869-1.9-11.957-1.9-0.609,0-2.242.86-2.717,0.543-0.631-.42-3.395-12.221-3.8-13.859-1.154-4.619-2.994-9.075-4.348-13.587-2.569-8.566-3.909-17.8-4.891-26.632-0.448-4.035-2.774-8.777-3.261-14.131-0.675-7.421-4.892-14.3-4.892-21.74" transform="translate(0 -0.002)" fill-opacity="0" stroke="#000" stroke-linecap="round" stroke-linejoin="round" stroke-width="2"/><path d="M158.381,421.569c-0.9,4.817,2.464,6.856,2.99,8.7,1.761,6.166,8.026,8.789,10.054,13.859,0.941,2.352-3.319,6.819-1.9,10.6,1.113,2.969,8.5,2.691,4.348,7.88-3.666,4.583-6.25,8.427-6.25,14.675,0,1.645-.625,2.446,1.087,2.446" transform="translate(0 -0.002)" fill-opacity="0" stroke="#000" stroke-linecap="round" stroke-linejoin="round" stroke-width="2"/><path d="M87.726,445.211c1.789,2.717,3.821,5.5,4.62,8.7,2.954,11.819,5.484,23.99,8.967,35.6,2.2,7.32,3.159,14.932,5.164,22.284,1.8,6.6,5.184,12.562,7.337,19.022,2.145,6.436,4.371,12.842,6.522,19.295" transform="translate(0 -0.002)" fill-opacity="0" stroke="#000" stroke-linecap="round" stroke-linejoin="round" stroke-width="2"/><path d="M75.769,425.645c3.071,17.272,5.808,34.579,8.7,51.9A8.212,8.212,0,0,0,85.55,480c1.94,3.881,4.312,13.989,5.435,18.479,4.409,17.638,7.032,28.467,15.218,44.839,3.622,7.243,12.3,25.535,14.131,32.882,2.008,8.068-3.533,8.01-3.023,15.106,0.355,4.933,13.29,5.468,17.711,2.21" transform="translate(0 -0.002)" fill-opacity="0" stroke="#000" stroke-linecap="round" stroke-linejoin="round" stroke-width="2"/><path d="M70.062,406.351c0.39,5.742-1.265,11.621-.543,17.392,1.918,15.35,2.256,30.989,3.8,46.47,0.217,2.174,1.141,4.341,1.359,6.522,1.566,15.666,5.161,31.424,8.7,46.741,1.981,8.585,3.285,17.342,5.707,25.816,1.7,5.967,2.647,12.017,4.619,17.936,1.2,3.6,2.9,6.827,3.533,10.6a60.446,60.446,0,0,0,2.989,7.066c0.349,0,4.644-3.6,5.435-4.077,4.007-2.4,10.547-3.368,14.947-1.9" transform="translate(0 -0.002)" fill-opacity="0" stroke="#000" stroke-linecap="round" stroke-linejoin="round" stroke-width="2"/><path d="M112.1,579.158c2.564,1.465,4.938,5.6,5.209,11.3" transform="translate(0 -0.002)" fill-opacity="0" stroke="#000" stroke-linecap="round" stroke-linejoin="round" stroke-width="2"/><path d="M74.307,480.73c0.974,17.2.837,34.42,1.912,51.616,0.568,9.09,2.481,17.9,3.3,26.938,0.223,2.454,1.091,4.732,1.39,7.125,0.253,2.022-.146,4.281.348,6.257,0.12,0.479.925,5.524,1.39,5.213,0.174-.115-0.231-0.347-0.347-0.521" transform="translate(0 -0.002)" fill-opacity="0" stroke="#000" stroke-linecap="round" stroke-linejoin="round" stroke-width="2"/><path d="M61.794,399.918C61.621,438.325,62.546,481,64.923,521.4c0.426,7.248,1.412,42.753,4.969,47.809,2.434,3.46,10.411,7.5,12.757,8.673" transform="translate(0 -0.002)" fill-opacity="0" stroke="#000" stroke-linecap="round" stroke-linejoin="round" stroke-width="2"/><path d="M81.85,568.619c1.094-4.58,5.6-5.974,8.681-8.747" transform="translate(0 -0.002)" fill-opacity="0" stroke="#000" stroke-linecap="round" stroke-linejoin="round" stroke-width="2"/><path d="M217.289,307.51c0.279,4.511-.668,9.432,1.125,13.616" transform="translate(0 -0.002)" fill-opacity="0" stroke="#000" stroke-linecap="round" stroke-linejoin="round" stroke-width="2"/><path d="M221.9,305.6c2.3,10.7-.127,14.952,8.778,23.856" transform="translate(0 -0.002)" fill-opacity="0" stroke="#000" stroke-linecap="round" stroke-linejoin="round" stroke-width="2"/><path d="M246.884,249.219c-5.466,12.974-10.255,27.792-8.44,42.312" transform="translate(0 -0.002)" fill-opacity="0" stroke="#000" stroke-linecap="round" stroke-linejoin="round" stroke-width="2"/><path d="M243.283,239.767c-1.594,5.574-5.76,10.072-7.765,15.416" transform="translate(0 -0.002)" fill-opacity="0" stroke="#000" stroke-linecap="round" stroke-linejoin="round" stroke-width="2"/><path d="M236.644,237.516a22.239,22.239,0,0,1,4.839-5.4" transform="translate(0 -0.002)" fill-opacity="0" stroke="#000" stroke-linecap="round" stroke-linejoin="round" stroke-width="2"/><path d="M173.863,327.779c-0.628.859-8.145,5.2-7.97,5.431,0.252,0.336,7.3,3.049,8.393,3.6" transform="translate(0 -0.002)" fill-opacity="0" stroke="#000" stroke-linecap="round" stroke-linejoin="round" stroke-width="2"/><path d="M181.2,328.061c-0.043.185,6.444,2.028,6.419,2.116-0.1.357-6.449,4.4-7.547,5.5" transform="translate(0 -0.002)" fill-opacity="0" stroke="#000" stroke-linecap="round" stroke-linejoin="round" stroke-width="2"/><path d="M168.221,327.214c-0.848.661-7.554,5.764-7.336,6.419,1.331,3.991,7.906,4.355,11.074,5.713" transform="translate(0 -0.002)" fill-opacity="0" stroke="#000" stroke-linecap="round" stroke-linejoin="round" stroke-width="2"/><path d="M185.289,325.663c0.447,0.164.9,0.31,1.34,0.494a32.776,32.776,0,0,1,4.8,2.045c0.216,0.135,2.412,1.45,2.4,1.481-0.5,1.17-6.907,5.686-8.463,6.983" transform="translate(0 -0.002)" fill-opacity="0" stroke="#000" stroke-linecap="round" stroke-linejoin="round" stroke-width="2"/><path d="M161.167,328.484c-0.008,2.8-1.044,5.808-.423,8.605a16.543,16.543,0,0,1,.706,3.456" transform="translate(0 -0.002)" fill-opacity="0" stroke="#000" stroke-linecap="round" stroke-linejoin="round" stroke-width="2"/><path d="M157.218,328.2c-0.253,4.2-.756,8.565.07,12.7" transform="translate(0 -0.002)" fill-opacity="0" stroke="#000" stroke-linecap="round" stroke-linejoin="round" stroke-width="2"/><path d="M153.9,327c-1,3.55-1.95,9.855-.917,13.471" transform="translate(0 -0.002)" fill-opacity="0" stroke="#000" stroke-linecap="round" stroke-linejoin="round" stroke-width="2"/><path d="M193.189,321.713a34.964,34.964,0,0,1,2.539,12.414" transform="translate(0 -0.002)" fill-opacity="0" stroke="#000" stroke-linecap="round" stroke-linejoin="round" stroke-width="2"/><path d="M199.4,318.892a51.171,51.171,0,0,1,1.2,12.625" transform="translate(0 -0.002)" fill-opacity="0" stroke="#000" stroke-linecap="round" stroke-linejoin="round" stroke-width="2"/><path d="M207.789,315.436c-0.927,1.528-6.137,8.106-5.854,9.8,0.031,0.188,6.666,1.315,7.829,1.481" transform="translate(0 -0.002)" fill-opacity="0" stroke="#000" stroke-linecap="round" stroke-linejoin="round" stroke-width="2"/><path d="M211.315,314.519c0.235,0.781-4.248,7.938-4.161,8.111,0.23,0.461,6.654.846,7.688,0.846" transform="translate(0 -0.002)" fill-opacity="0" stroke="#000" stroke-linecap="round" stroke-linejoin="round" stroke-width="2"/><path d="M174.075,327.426c-0.137,3.44-.644,8.185,1.763,11.074" transform="translate(0 -0.002)" fill-opacity="0" stroke="#000" stroke-linecap="round" stroke-linejoin="round" stroke-width="2"/><path d="M178.377,326.509a29.834,29.834,0,0,1,.423,11.285" transform="translate(0 -0.002)" fill-opacity="0" stroke="#000" stroke-linecap="round" stroke-linejoin="round" stroke-width="2"/><path d="M176.514,335.685c1.431,0,.653.117,2.3-0.54" transform="translate(0 -0.002)" fill-opacity="0" stroke="#000" stroke-linecap="round" stroke-linejoin="round" stroke-width="2"/><path d="M175.569,329.607c1.9-.38.9-0.382,2.971,0.135" transform="translate(0 -0.002)" fill-opacity="0" stroke="#000" stroke-linecap="round" stroke-linejoin="round" stroke-width="2"/><path d="M276.6,212.863c-0.994-3.7-2.707-20.194,0-22.9,1.45-1.449,3.718-2.279,5.515-3.178,6.016-3.008,5.846-5.179,13.367-3.925,0.97,0.161,4.631-.7,5.234-0.094,1.085,1.085.12,3.993-.748,4.861-4.491,4.491-6.641,1.946-9.721,3.178s-6.055,4.936-9.534,2.617" transform="translate(0 -0.002)" fill-opacity="0" stroke="#000" stroke-linecap="round" stroke-linejoin="round" stroke-width="2"/><path d="M294.825,185.476c0.5,0.223-1.328,1.158-.841,1.4,0.512,0.256,1.731-3.13,1.87-2.991,0.968,0.968-3.05,4.011.093,2.243a10.573,10.573,0,0,1,1.683-.841" transform="translate(0 -0.002)" fill-opacity="0" stroke="#000" stroke-linecap="round" stroke-linejoin="round" stroke-width="2"/><path d="M283.8,183.793c3.147-5.961,8.256-10.244,13.927-13.647,1.825-1.1,4.964-1.2,7.011-1.495,0.886-.127,3.959-1.692,4.673-1.215,0.908,0.6-1.247,4.082-1.495,4.58-1.332,2.662-9.879,5.8-12.806,10.188" transform="translate(0 -0.002)" fill-opacity="0" stroke="#000" stroke-linecap="round" stroke-linejoin="round" stroke-width="2"/><path d="M296.882,178.278a5.311,5.311,0,0,0,2.15-.654" transform="translate(0 -0.002)" fill-opacity="0" stroke="#000" stroke-linecap="round" stroke-linejoin="round" stroke-width="2"/><path d="M296.6,178.372a3.359,3.359,0,0,1-1.308-1.028" transform="translate(0 -0.002)" fill-opacity="0" stroke="#000" stroke-linecap="round" stroke-linejoin="round" stroke-width="2"/><path d="M300.9,174.633c0.089,0.384,2.8.3,2.8,0a3.994,3.994,0,0,0-1.495,0c-0.468,0-1.4-.467-1.4,0,0,1.082,2.848-.116,4.86-1.122" transform="translate(0 -0.002)" fill-opacity="0" stroke="#000" stroke-linecap="round" stroke-linejoin="round" stroke-width="2"/><path d="M285.665,193.888c-0.939,2.325.752,6.672-2.15,8.413" transform="translate(0 -0.002)" fill-opacity="0" stroke="#000" stroke-linecap="round" stroke-linejoin="round" stroke-width="2"/><path d="M289.4,196.879c1.309,2.276,2.7,4.716,3.085,7.385" transform="translate(0 -0.002)" fill-opacity="0" stroke="#000" stroke-linecap="round" stroke-linejoin="round" stroke-width="2"/><path d="M283.7,222.21a7.682,7.682,0,0,1-2.337,3.178" transform="translate(0 -0.002)" fill-opacity="0" stroke="#000" stroke-linecap="round" stroke-linejoin="round" stroke-width="2"/><path d="M286.506,226.6h0" transform="translate(0 -0.002)" fill-opacity="0" stroke="#000" stroke-linecap="round" stroke-linejoin="round" stroke-width="2"/><path d="M285.85,226.043c0.075,0.306-2.682,2.349-1.122,1.308" transform="translate(0 -0.002)" fill-opacity="0" stroke="#000" stroke-linecap="round" stroke-linejoin="round" stroke-width="2"/><path d="M287.628,232.492a39.241,39.241,0,0,1,3.832-4.58c3.326-3.326,8.489-4.375,11.778-7.665,2.525-2.525,3.334-5.413,5.047-8.412,2.4-4.19,6.673-7.091,9.722-10.749,3.233-3.881.422-7.439-3.739-8.132" transform="translate(0 -0.002)" fill-opacity="0" stroke="#000" stroke-linecap="round" stroke-linejoin="round" stroke-width="2"/><path d="M301.65,178.278c-1.036-.46,1.86-0.578,2.524-0.467,1.966,0.328,2.587.971,2.991,2.991,1.037,5.188-.761,9.429-4.206,13.367-0.547.624-1.882,2.8-2.992,2.43a1.661,1.661,0,0,1-.841-1.309c0-3.748,3.478-4.437,6.076-6.169" transform="translate(0 -0.002)" fill-opacity="0" stroke="#000" stroke-linecap="round" stroke-linejoin="round" stroke-width="2"/><path d="M310.25,184.354c3.391-1.063,3.7,5.884,2.711,7.852-0.532,1.064-5.9,7.523-6.73,7.384-1.037-.173-1.523-2.589-0.841-3.271a6.659,6.659,0,0,1,1.682-.842,7.755,7.755,0,0,1,2.15.187" transform="translate(0 -0.002)" fill-opacity="0" stroke="#000" stroke-linecap="round" stroke-linejoin="round" stroke-width="2"/><path d="M312.492,195.01c-0.891.979-2.806,4.578-1.4,5.982,0.949,0.95,1.715.262,2.991,1.963" transform="translate(0 -0.002)" fill-opacity="0" stroke="#000" stroke-linecap="round" stroke-linejoin="round" stroke-width="2"/><path d="M309.781,202.581c-1.111,1.444,1.029,2.524,2.243,2.524" transform="translate(0 -0.002)" fill-opacity="0" stroke="#000" stroke-linecap="round" stroke-linejoin="round" stroke-width="2"/><path d="M311.65,201.46h0" transform="translate(0 -0.002)" fill-opacity="0" stroke="#000" stroke-linecap="round" stroke-linejoin="round" stroke-width="2"/><path d="M297.256,198.468c-0.839-.12-1.851-1.112-2.711-0.467a6.577,6.577,0,0,0,.935,1.4,30.305,30.305,0,0,0,1.589,4.019c1.422,2.845-2.127,2.83-2.8,4.861-0.331.993,1,1.758,0.841,2.9-0.371,2.594-5.9,7.659-8.039,8.88-0.989.565-2.839,0.416-3.926,0.28" transform="translate(0 -0.002)" fill-opacity="0" stroke="#000" stroke-linecap="round" stroke-linejoin="round" stroke-width="2"/><path d="M301.65,200.151h0" transform="translate(0 -0.002)" fill-opacity="0" stroke="#000" stroke-linecap="round" stroke-linejoin="round" stroke-width="2"/><path d="M301.742,199.5c-0.1.475-1.222,4.522-.934,4.58,0.393,0.078,1.968-2.8,5.234-1.4,1.018,0.436,2.14,4.464,2.43,4.58,0.527,0.21,1.515-.617,1.963-0.841" transform="translate(0 -0.002)" fill-opacity="0" stroke="#000" stroke-linecap="round" stroke-linejoin="round" stroke-width="2"/><path d="M295.85,193.608c1.254,1.456,1.742,2.432,3.365,1.215" transform="translate(0 -0.002)" fill-opacity="0" stroke="#000" stroke-linecap="round" stroke-linejoin="round" stroke-width="2"/><path d="M127.75,54.273a51.654,51.654,0,0,1-4.2,13.5,40.8,40.8,0,0,0-3.151,9.3c-1.552,9.312.724,20.1,6.9,27.305a25.888,25.888,0,0,0,4.651,3.751,14.326,14.326,0,0,0,3,1.95c10.986,4.394,16.151-2.166,24.6-7.8,3.83-2.553,7.11-5.053,9.452-9.151" transform="translate(0 -0.002)" fill-opacity="0" stroke="#000" stroke-linecap="round" stroke-linejoin="round" stroke-width="2"/><path d="M129.7,50.822c5.6,3.608,11.967,10.009,7.8,16.953-1.286,2.144-6.061,4.651-4.8,7.8,0.534,1.334,3.168,1.6,3.9,2.7" transform="translate(0 -0.002)" fill-opacity="0" stroke="#000" stroke-linecap="round" stroke-linejoin="round" stroke-width="2"/><path d="M130.15,60.574l-0.3-.3" transform="translate(0 -0.002)" fill-opacity="0" stroke="#000" stroke-linecap="round" stroke-linejoin="round" stroke-width="2"/><path d="M127.45,58.023a0.82,0.82,0,0,0-.3-0.15c0.79,0.79,7.042,5.419,6.451,6.6-0.909,1.818-8.911.329-1.35-3.451" transform="translate(0 -0.002)" fill-opacity="0" stroke="#000" stroke-linecap="round" stroke-linejoin="round" stroke-width="2"/><path d="M149.208,57.273h3a35.284,35.284,0,0,0,4.8,0c3.476-.5,6.716-3.45,10.5-3.45" transform="translate(0 -0.002)" fill-opacity="0" stroke="#000" stroke-linecap="round" stroke-linejoin="round" stroke-width="2"/><path d="M151.309,62.524c0.278,0.1,11.7-.98,11.7-2.25a6.8,6.8,0,0,0-1.351.9,11.652,11.652,0,0,0-3.3,2.4,20.62,20.62,0,0,1-1.5,2.4,2.994,2.994,0,0,1-2.1.75c-2.277,0-1.749-2.149-2.4-3.451a1.525,1.525,0,0,0-2.143-.245q-0.056.045-.108,0.095a4.578,4.578,0,0,0-.9,3.151c0,0.826.017,1.912,0.75,2.4,1.342,0.9,7.512-.122,9.152-0.45,1.213-.242,2.324-1.7,3.3-2.4" transform="translate(0 -0.002)" fill-opacity="0" stroke="#000" stroke-linecap="round" stroke-linejoin="round" stroke-width="2"/><path d="M144.407,75.577c-2.437-.98,4.91,2.571-0.45,5.251" transform="translate(0 -0.002)" fill-opacity="0" stroke="#000" stroke-linecap="round" stroke-linejoin="round" stroke-width="2"/><path d="M139.606,78.877c-0.77-1.913.993-2.747,2.1-.9" transform="translate(0 -0.002)" fill-opacity="0" stroke="#000" stroke-linecap="round" stroke-linejoin="round" stroke-width="2"/><path d="M132.55,82.478c0.138,0.492-8.491,2.582-8.4,2.85,0.148,0.445.789,0.263,1.05,0.3,5,0.715,6.923-4.032,11.252-4.65" transform="translate(0 -0.002)" fill-opacity="0" stroke="#000" stroke-linecap="round" stroke-linejoin="round" stroke-width="2"/><path d="M144.257,83.528l1.5,0.75c1.518,0.759,3.24,2.266,4.95,2.551a9.47,9.47,0,0,1,2.4.3,0.906,0.906,0,0,1,.45.9c-0.161.806-1.644,1.239-2.4,1.05-2.558-.639-4-3.259-5.852-4.8-1.525-1.271-3.721-1.621-5.1-3" transform="translate(0 -0.002)" fill-opacity="0" stroke="#000" stroke-linecap="round" stroke-linejoin="round" stroke-width="2"/><path d="M136.006,89.979h0" transform="translate(0 -0.002)" fill-opacity="0" stroke="#000" stroke-linecap="round" stroke-linejoin="round" stroke-width="2"/><path d="M135.106,86.379c2.784-.073,5.07,1.65,7.651,1.65a3.741,3.741,0,0,0-1.05.45" transform="translate(0 -0.002)" fill-opacity="0" stroke="#000" stroke-linecap="round" stroke-linejoin="round" stroke-width="2"/><path d="M136.306,89.379c5.133,0.79-.245-0.121,3,0.6,0.356,0.079,1.415-.3,1.051-0.3-1.453,0-2.817,1.05-4.351,1.05H134.35c-0.2,0-.6-0.2-0.6,0,0,0.586,1.066.576,1.651,0.6a25.332,25.332,0,0,0,2.55-.151" transform="translate(0 -0.002)" fill-opacity="0" stroke="#000" stroke-linecap="round" stroke-linejoin="round" stroke-width="2"/><path d="M136.756,95.68c1.222,1.261-1.489,4.509-2.4,3.9-0.515-.343.159-1.255,0.45-1.8,0.635-1.191,1.848-1.713-.15,0,0-.224-0.6.523-0.6,0.3,0-.395,2.119-1.866,2.551-1.651,0.642,0.321-.433,1.085-0.3,1.351,0.042,0.084,2.61.456,2.85,0.6,0.275,0.165,1.054.7,0.751,0.6a8.429,8.429,0,0,1-3.3-2.251c-0.325-.432-1.283-1.732-0.9-1.35,0.748,0.748,1.345,1.646,2.1,2.4,0.028,0.028,1,1,.75,1.05a25.365,25.365,0,0,1-3.9-.15,2.915,2.915,0,0,0-.751,0,11.156,11.156,0,0,0,3.6,0" transform="translate(0 -0.002)" fill-opacity="0" stroke="#000" stroke-linecap="round" stroke-linejoin="round" stroke-width="2"/><path d="M132.105,104.382h0" transform="translate(0 -0.002)" fill-opacity="0" stroke="#000" stroke-linecap="round" stroke-linejoin="round" stroke-width="2"/><path d="M128.5,100.481c4.135,1.714,6.927,5.908,11.853,4.5,1.605-.459.767-0.478,2.4-0.75,0.3-.049.9,0.3,0.9,0a12.514,12.514,0,0,0-1.8.6c-1.462.609-2.884,1.339-4.351,1.95" transform="translate(0 -0.002)" fill-opacity="0" stroke="#000" stroke-linecap="round" stroke-linejoin="round" stroke-width="2"/><path d="M148.758,104.532h0" transform="translate(0 -0.002)" fill-opacity="0" stroke="#000" stroke-linecap="round" stroke-linejoin="round" stroke-width="2"/><path d="M147.258,104.682a20.032,20.032,0,0,0,2.25-.45,12.749,12.749,0,0,0,2.4-1.05c0.453-.259-1.1.12-1.5,0.45a26.3,26.3,0,0,1-3.75,2.85c-2.317,1.49-4.8,2.7-7.2,4.051" transform="translate(0 -0.002)" fill-opacity="0" stroke="#000" stroke-linecap="round" stroke-linejoin="round" stroke-width="2"/><path d="M175.913,61.624c-1.423,4.835-6.639,20.1-6,25.2a26.547,26.547,0,0,0,3.451,7.2" transform="translate(0 -0.002)" fill-opacity="0" stroke="#000" stroke-linecap="round" stroke-linejoin="round" stroke-width="2"/><path d="M174.113,71.976c0.4-1.374,6.551-8.3,8.851-6,1.626,1.626.118,4.672,0.6,6.6,0.464,1.854,1.316,3.124,1.051,5.251-0.47,3.758-4.1,8.252-8.1,8.252" transform="translate(0 -0.002)" fill-opacity="0" stroke="#000" stroke-linecap="round" stroke-linejoin="round" stroke-width="2"/><path d="M179.814,70.176c-0.351,1.054-1.081,2.073-1.351,3.15a6.046,6.046,0,0,0-.3,1.8c0.726,1.088,3.579,2.915,1.2,4.5-1.131.754-5.9,0.552-6.3-1.05-0.232-.931,1.036-2.413,1.8-2.85,0.467-.268,1.881-0.22,1.5-0.6-1.237-1.237-1.65.823-1.65,1.65a3.671,3.671,0,0,1-.3,2.25,11.318,11.318,0,0,1-.75,1.651" transform="translate(0 -0.002)" fill-opacity="0" stroke="#000" stroke-linecap="round" stroke-linejoin="round" stroke-width="2"/><path d="M171.262,82.628c-0.256,2.819-.174.509,0.15,3.751,0.071,0.711-.488,3.563,0,4.05,0.448,0.448.6-1.606,0.6-1.65,0-2.161.607-4.308,0.3-6.451a19.673,19.673,0,0,0-.3-2.4c-0.25,0,0,.5,0,0.751v2.4c0,3.414-1.269,7.814.3,10.952" transform="translate(0 -0.002)" fill-opacity="0" stroke="#000" stroke-linecap="round" stroke-linejoin="round" stroke-width="2"/><path d="M169.012,85.628c-0.252,1.615.524,10,2.4,11.253" transform="translate(0 -0.002)" fill-opacity="0" stroke="#000" stroke-linecap="round" stroke-linejoin="round" stroke-width="2"/><path d="M171.412,91.48c0-.187.866,4.664,0.75,4.2-0.466-1.867-1.118-3.643-1.5-5.551-0.179-.895-0.332-1.795-0.45-2.7-0.052-.4.135-1.486-0.15-1.2-0.239.239-.207,5.548,0,7.2,0.059,0.471.32,1.806,0.45,1.35,0.525-1.839-.15-3.961-0.15-5.851v-1.95c0,1.431-.525,8.826.45,9.151" transform="translate(0 -0.002)" fill-opacity="0" stroke="#000" stroke-linecap="round" stroke-linejoin="round" stroke-width="2"/><path d="M133.9,40.62c-0.843,2.776-7.578,8.75-3.6,11.4" transform="translate(0 -0.002)" fill-opacity="0" stroke="#000" stroke-linecap="round" stroke-linejoin="round" stroke-width="2"/><path d="M134.05,39.87c0.467-1.134,1.566-1.931,2.1-3" transform="translate(0 -0.002)" fill-opacity="0" stroke="#000" stroke-linecap="round" stroke-linejoin="round" stroke-width="2"/><path d="M130.75,40.62a84.356,84.356,0,0,1-2.251-8.4c0.348-.522,11.819-5.618,13.653-6.9,0.442-.31,3.343-3.553,3.751-3.451,0.9,0.225,3.632,4.412,5.1,5.251a42.731,42.731,0,0,0,15.752,4.951,50.472,50.472,0,0,0,13.8-.15c0.241-.035,3-1.052,3-1.05,0.267,0.267.974,4.918,2.251,6.451,0.838,1,8.385,7.121,8.4,7.2,0.2,1.005-1.311,5.093-1.5,6.6-0.23,1.839,1.583,5,1.2,6.151-0.037.112-11.4,9.033-12.452,9.452" transform="translate(0 -0.002)" fill-opacity="0" stroke="#000" stroke-linecap="round" stroke-linejoin="round" stroke-width="2"/><path d="M132.85,46.021c1.938,0.581,3.841-.3,5.851-0.3,11.158,0,20.071,1.214,29.256,8.1,2.1,1.576,5.26,2.566,6.6,4.8" transform="translate(0 -0.002)" fill-opacity="0" stroke="#000" stroke-linecap="round" stroke-linejoin="round" stroke-width="2"/><path d="M167.061,42.871a37.993,37.993,0,0,1,13.053,20.854" transform="translate(0 -0.002)" fill-opacity="0" stroke="#000" stroke-linecap="round" stroke-linejoin="round" stroke-width="2"/><path d="M177.563,50.072c2.112,2.205,2.8,6.2,3.9,8.4" transform="translate(0 -0.002)" fill-opacity="0" stroke="#000" stroke-linecap="round" stroke-linejoin="round" stroke-width="2"/><path d="M180.564,39.87a14.275,14.275,0,0,0,0,1.951c0.392,2.844,1.688,5.592,2.25,8.4,0.546,2.731.511,5.528,0.9,8.252,0.154,1.074.821,2.2,0.6,3.3a5.49,5.49,0,0,1-.9,1.35" transform="translate(0 -0.002)" fill-opacity="0" stroke="#000" stroke-linecap="round" stroke-linejoin="round" stroke-width="2"/><path d="M145.758,37.92c-0.614.776-1.951,3.007-1.951,4.051,0,0.445,6.763,1.648,7.652,1.5,1.759-.293,5.567-3.709.6-4.951-1.075-.269-2.192-0.865-3.3-1.05a17.142,17.142,0,0,0-2.85-.3" transform="translate(0 -0.002)" fill-opacity="0" stroke="#000" stroke-linecap="round" stroke-linejoin="round" stroke-width="2"/><path d="M152.509,33.569c1.362-1.223,3.769-4.5,5.851-4.5" transform="translate(0 -0.002)" fill-opacity="0" stroke="#000" stroke-linecap="round" stroke-linejoin="round" stroke-width="2"/><path d="M169.612,17.066h0" transform="translate(0 -0.002)" fill-opacity="0" stroke="#000" stroke-linecap="round" stroke-linejoin="round" stroke-width="2"/><path d="M168.712,18.116c-2.21,3.215-8.2,8.54-9.3,11.852" transform="translate(0 -0.002)" fill-opacity="0" stroke="#000" stroke-linecap="round" stroke-linejoin="round" stroke-width="2"/><path d="M151.459,34.619a9.754,9.754,0,0,1-1.951,2.4" transform="translate(0 -0.002)" fill-opacity="0" stroke="#000" stroke-linecap="round" stroke-linejoin="round" stroke-width="2"/><path d="M150.408,22.617c0.612-.643-0.212-8.276,0-8.7,0.265-.529,7.936.6,9,0.6,3.9,0,8.1-1.725,12-.751,2.536,0.634,4.294,2.378,6.6,3.3,3.929,1.572,7.8,2.805,11.552,4.951,0.757,0.432,7.359,3.164,7.5,3.451,0.33,0.66-.494,1.287-0.75,1.8-1.758,3.516-4.078,10.22-7.2,12.3" transform="translate(0 -0.002)" fill-opacity="0" stroke="#000" stroke-linecap="round" stroke-linejoin="round" stroke-width="2"/><path d="M165.111,12.265c-1.7-2.629-2.213-5.627-3.6-8.4a2.5,2.5,0,0,1-.3-0.75c0.437-.583,2.856-0.9,3.6-1.2,0.53-.212,1.618-1.026,2.25-0.9,0.592,0.119.3,1.653,0.451,2.1a51.014,51.014,0,0,0,3.15,5.7" transform="translate(0 -0.002)" fill-opacity="0" stroke="#000" stroke-linecap="round" stroke-linejoin="round" stroke-width="2"/><path d="M181.014,15.566c1.672-1.4,3.536-2.554,5.251-3.9a25.879,25.879,0,0,0,4.2-3.751c0.123-.158.783-2.054,1.2-1.95,0.814,0.2.636,3.391,0.9,4.051,0.327,0.818,1.935,3.519,1.05,4.051-3.257,1.954-10.967,3.311-12.3,4.2" transform="translate(0 -0.002)" fill-opacity="0" stroke="#000" stroke-linecap="round" stroke-linejoin="round" stroke-width="2"/><path d="M124.15,54.873c-0.988.139-2.816,0.265-3.6,1.05-0.821.821-1.128,2.1-1.8,3-0.962,1.282-2.832,2.234-4.051,3.3-1.425,1.247-2.576,2.877-3.9,4.2-1.442,1.442-5.419,3.722-6.151,5.551-0.337.843,5.471,11.062,7.051,11.852" transform="translate(0 -0.002)" fill-opacity="0" stroke="#000" stroke-linecap="round" stroke-linejoin="round" stroke-width="2"/><path d="M118.15,63.875c-0.691,3.364-7.182,5.9-7.8,9-0.186.929,4.41,8.011,5.4,9" transform="translate(0 -0.002)" fill-opacity="0" stroke="#000" stroke-linecap="round" stroke-linejoin="round" stroke-width="2"/><path d="M116.95,82.628a38.249,38.249,0,0,1-4.65,3.751c-0.447.255-1.542,0.272-1.351,0.75,0.471,1.176,2.934,2.28,3.9,3.15,1.737,1.564,2.443,3.977,4.8,4.651" transform="translate(0 -0.002)" fill-opacity="0" stroke="#000" stroke-linecap="round" stroke-linejoin="round" stroke-width="2"/><path d="M121.45,59.824c0.012,1.12,2.592,3,2.4,4.051-0.585,3.218-3.417,5.763-3.9,9.151" transform="translate(0 -0.002)" fill-opacity="0" stroke="#000" stroke-linecap="round" stroke-linejoin="round" stroke-width="2"/><path d="M194.816,62.374c0.52,3.413,6.537,6.2,7.352,9.452,0.547,2.19-3.41,10.305-4.351,12.752-0.921,2.394-1.3,4.94-2.1,7.352-0.128.383-1.524,6-1.651,6-1.421,0-2.951-2.537-3.75-3.451s-1.91-1.328-2.7-2.25c-2.165-2.527-3.519-5.06-6.6-6.6" transform="translate(0 -0.002)" fill-opacity="0" stroke="#000" stroke-linecap="round" stroke-linejoin="round" stroke-width="2"/><path d="M188.665,63.124c1.492,3.194,3.5,7.12,6.3,9.452,0.519,0.432,1.8,1.048,2.1,1.65a0.907,0.907,0,0,1-.3.9,23.585,23.585,0,0,0-1.65,6.751c-0.165,1.1-.978,6.922-1.951,7.651-0.228.171-1.935-1.191-1.95-1.2-1.5-.9-6.558-4.415-7.352-6-0.641-1.283.839-3.679,1.051-4.951,0.4-2.432-.3-5.545.15-7.8,0.134-.673,1.148-0.694,1.35-1.5,0.265-1.061-1.691-3.487-.45-3.9" transform="translate(0 -0.002)" fill-opacity="0" stroke="#000" stroke-linecap="round" stroke-linejoin="round" stroke-width="2"/><path d="M191.066,62.974c1.821,2.081,1.008,1.309,4.351,3.751,0.627,0.459,1.088.4,1.8,0.9,0.232,0.163,2.127,1.3,1.95,1.651-0.149.3-2.428,0.313-2.7,0.15-0.188-.113-1.007-1.223-1.05-1.2-0.329.164,0.6,5.692,0.9,6.452" transform="translate(0 -0.002)" fill-opacity="0" stroke="#000" stroke-linecap="round" stroke-linejoin="round" stroke-width="2"/><path d="M263.679,243.157h0" transform="translate(0 -0.002)" fill-opacity="0" stroke="#000" stroke-linecap="round" stroke-linejoin="round" stroke-width="2"/><path d="M125.35,112.633h0" transform="translate(0 -0.002)" fill-opacity="0" stroke="#000" stroke-linecap="round" stroke-linejoin="round" stroke-width="2"/><path d="M116.2,106.632c2.637,1.439,5.279,3.015,7.952,4.351,0.821,0.411,1.773.212,2.55,0.6" transform="translate(0 -0.002)" fill-opacity="0" stroke="#000" stroke-linecap="round" stroke-linejoin="round" stroke-width="2"/><path d="M123.4,103.332c-0.6,1.716.355,3.071,0.75,4.651,1.576,6.307,2.61,4.291,7.2,7.351,1.891,1.261,4.051,1.359,6.151,2.1,10.227,3.61,17.57,4.986,26.555-3,2.748-2.443,6.1-4.32,8.4-7.2,0.233-.291,1.947-2.4,1.8-2.55-5.808-5.807-2.529-2.658-9.3-4.351" transform="translate(0 -0.002)" fill-opacity="0" stroke="#000" stroke-linecap="round" stroke-linejoin="round" stroke-width="2"/><path d="M175.613,95.83c-1.032,2.128-2.851,5.254-2.851,7.8" transform="translate(0 -0.002)" fill-opacity="0" stroke="#000" stroke-linecap="round" stroke-linejoin="round" stroke-width="2"/><path d="M176.363,93.13c0.75,0.05,1.5.12,2.251,0.15,1.608,0.064,4.672.825,5.25,2.85,0.274,0.959-.326,2.464-0.45,3.451-0.045.363,0.268,1.742-.15,1.95-3,1.5-6.577,2.393-9.751,3.451" transform="translate(0 -0.002)" fill-opacity="0" stroke="#000" stroke-linecap="round" stroke-linejoin="round" stroke-width="2"/><path d="M131.2,115.634c-1.124,3.506,4.7,5.486,6.751,7.051,1.25,0.953,2.284,2.123,3.6,3,2.248,1.5,4.935,2.358,7.051,4.05,0.3,0.244.7,0.952,1.2,0.751,1.894-.758,6.322-4.782,7.652-6.3,1.207-1.38,2.369-3.78,3.9-4.8" transform="translate(0 -0.002)" fill-opacity="0" stroke="#000" stroke-linecap="round" stroke-linejoin="round" stroke-width="2"/><path d="M144.107,122.385c1.621-1.073,4.017.6,5.7,0.6,0.468,0,.889-0.618,1.351-0.75,1.646-.47,3.43-0.573,5.1-1.05a4.273,4.273,0,0,0,1.8-1.5" transform="translate(0 -0.002)" fill-opacity="0" stroke="#000" stroke-linecap="round" stroke-linejoin="round" stroke-width="2"/><path d="M167.061,117.134a25.9,25.9,0,0,0,3.9-1.2c2.417-1.187,13.2-8.6,15.3-11.4a10.411,10.411,0,0,0,.45-1.5" transform="translate(0 -0.002)" fill-opacity="0" stroke="#000" stroke-linecap="round" stroke-linejoin="round" stroke-width="2"/><path d="M173.363,115.484a55.709,55.709,0,0,1-6.752,5.4c-0.554.4-5.675,4.826-6,4.5-0.38-.38,1.223-4.466,1.351-5.1,0.252-1.265-.734-4.384.6-4.051" transform="translate(0 -0.002)" fill-opacity="0" stroke="#000" stroke-linecap="round" stroke-linejoin="round" stroke-width="2"/><path d="M125.35,116.834h0" transform="translate(0 -0.002)" fill-opacity="0" stroke="#000" stroke-linecap="round" stroke-linejoin="round" stroke-width="2"/><path d="M115.15,107.232c1.493-.147,13.147,8.512,12.3,10.2-0.513,1.027.36,2.928,0.15,4.5a3.025,3.025,0,0,0-.3,1.5c0.444,0.888,2.219,1.11,3,1.5,2.5,1.249,4.626,2.853,7.051,4.2a8.6,8.6,0,0,0,2.7.75" transform="translate(0 -0.002)" fill-opacity="0" stroke="#000" stroke-linecap="round" stroke-linejoin="round" stroke-width="2"/><path d="M113.5,106.632a13.867,13.867,0,0,0,1.05,2.7c1.086,1.65,9.746,11.738,12.6,12.452" transform="translate(0 -0.002)" fill-opacity="0" stroke="#000" stroke-linecap="round" stroke-linejoin="round" stroke-width="2"/><path d="M144.407,112.633a26.694,26.694,0,0,0,3.751-.6,76.719,76.719,0,0,0,9.6-3.9c0.734-.367,1.2-0.974,1.95-1.351,0.2-.1.7-0.1,0.6-0.3-0.009-.019-2.2,1.179-2.25,1.2-1.245.554-2.545,0.748-3.751,1.351" transform="translate(0 -0.002)" fill-opacity="0" stroke="#000" stroke-linecap="round" stroke-linejoin="round" stroke-width="2"/><path d="M138.256,111.883h0" transform="translate(0 -0.002)" fill-opacity="0" stroke="#000" stroke-linecap="round" stroke-linejoin="round" stroke-width="2"/><path d="M120.85,97.631c-0.414-.237.6,3.5,1.05,4.35,0.739,1.4,1.906,2.551,2.7,3.9,0.322,0.547,4.026,7.918,5.551,6.9,0.377-.251-5.777-8.064-1.951-6.151,1.626,0.813-.234.118,1.8,0.9,0.728,0.28,1.556.4,2.25,0.751" transform="translate(0 -0.002)" fill-opacity="0" stroke="#000" stroke-linecap="round" stroke-linejoin="round" stroke-width="2"/><path d="M134.356,105.582c-0.656-.739,5.146,3.011,4.35,1.95-0.533-.711-3.482-1.066-4.35-1.5a11.7,11.7,0,0,1-3.9-3c-0.1-.121-0.893-1.412-1.2-0.9-1.081,1.8,5.415,5.5,6.751,6a13.71,13.71,0,0,0,4.351.6" transform="translate(0 -0.002)" fill-opacity="0" stroke="#000" stroke-linecap="round" stroke-linejoin="round" stroke-width="2"/><path d="M148.158,106.932c-3.315,2.289-7.264,3.483-10.8,5.251" transform="translate(0 -0.002)" fill-opacity="0" stroke="#000" stroke-linecap="round" stroke-linejoin="round" stroke-width="2"/><path d="M143.657,105.132c-2.337,1.206-4.459,3.1-7.051,3.751" transform="translate(0 -0.002)" fill-opacity="0" stroke="#000" stroke-linecap="round" stroke-linejoin="round" stroke-width="2"/><path d="M180.864,88.179h0" transform="translate(0 -0.002)" fill-opacity="0" stroke="#000" stroke-linecap="round" stroke-linejoin="round" stroke-width="2"/><path d="M177.113,93.88c-1.038-1.188,1.18-6.9,1.8-6.9,0.353,0,1.351,1.261,1.65,1.5a11.1,11.1,0,0,0,1.65.75,18.994,18.994,0,0,1,5.1,4.951c0.3,0.372,2.25,1.654,2.1,2.25-0.113.456-.791,0.957-0.9,1.5-0.152.759,0.378,2.339,0,3-0.359.63-4.951,1.375-4.951,1.651,0,0.858,4.885-2.534,2.551-3" transform="translate(0 -0.002)" fill-opacity="0" stroke="#000" stroke-linecap="round" stroke-linejoin="round" stroke-width="2"/><path d="M116.2,87.729c-2.536,1.631.15-.289,0.15,0.75,0,0.791-.942-1.483-0.75-2.25,0.072-.286,1.538-1.989,1.65-1.651,0.415,1.245-.939,2.9-1.2,4.2-0.276,1.381,2.628,5.328,3.6,6.3" transform="translate(0 -0.002)" fill-opacity="0" stroke="#000" stroke-linecap="round" stroke-linejoin="round" stroke-width="2"/><path d="M172.012,94.63c0.7-3.037-3.566,5.4-3.45,5.4a0.813,0.813,0,0,0,.3-0.45,10.372,10.372,0,0,1,1.35-1.35,25.505,25.505,0,0,1,2.25-1.35" transform="translate(0 -0.002)" fill-opacity="0" stroke="#000" stroke-linecap="round" stroke-linejoin="round" stroke-width="2"/><path d="M177.563,87.429l0.3-.15" transform="translate(0 -0.002)" fill-opacity="0" stroke="#000" stroke-linecap="round" stroke-linejoin="round" stroke-width="2"/><path d="M193.916,60.574c0.042-.586-1.565-2.1-0.45-2.1" transform="translate(0 -0.002)" fill-opacity="0" stroke="#000" stroke-linecap="round" stroke-linejoin="round" stroke-width="2"/></g></svg>